<svg width="60" height="60" viewBox="0 0 60 60" fill="none" xmlns="http://www.w3.org/2000/svg">
<path d="M38.6627 12.2667C38.4666 11.549 37.9948 10.9379 37.3502 10.5664C36.7056 10.1949 35.9403 10.0932 35.221 10.2834L25.3043 12.9376L12.3543 0.920898L8.76683 1.8834L16.5252 15.2709L7.221 17.7501L3.546 14.8917L0.833496 15.6209L5.67516 24.0209L36.6502 15.7376C38.1668 15.3001 39.0418 13.7542 38.6627 12.2667ZM56.2502 24.1667L53.3335 30.0001H38.7502L35.8335 24.1667L38.7502 21.2501H44.5835V15.4167H47.5002V21.2501H53.3335L56.2502 24.1667ZM59.1668 53.3334V59.1667H0.833496V53.3334H38.7502V32.9167H53.3335V53.3334H59.1668Z" fill="#0064D2"/>
</svg>
