<svg width="30" height="32" viewBox="0 0 30 32" fill="none" xmlns="http://www.w3.org/2000/svg">
<mask id="mask0_43_1138" style="mask-type:alpha" maskUnits="userSpaceOnUse" x="6" y="2" width="18" height="27">
<path fill-rule="evenodd" clip-rule="evenodd" d="M18.8646 2.58929H11.103V2.84453V9.4057C11.103 10.0513 11.4271 10.3441 12.1319 10.3441H17.8437C18.5648 10.3441 18.8808 10.0588 18.8808 9.39068V2.85955C18.8808 2.76946 18.8727 2.67938 18.8646 2.58929ZM12.7801 8.82765C12.772 8.59494 12.9826 8.39225 13.2338 8.39225C13.4769 8.39225 13.6956 8.58743 13.7118 8.81264C13.7118 9.03785 13.5012 9.24805 13.25 9.24805C12.9988 9.25556 12.7801 9.06037 12.7801 8.82765ZM16.7662 8.39225C17.0174 8.39975 17.2199 8.60244 17.2118 8.83516C17.2037 9.06788 16.985 9.26306 16.7419 9.25556C16.4907 9.24805 16.2801 9.03785 16.2882 8.81264C16.2963 8.57992 16.5231 8.38474 16.7662 8.39225ZM15 8.39975C15.2431 8.39975 15.4618 8.60244 15.4537 8.83516C15.4537 9.06037 15.235 9.25556 14.9838 9.25556C14.7326 9.25556 14.522 9.05287 14.5301 8.82015C14.5301 8.58743 14.7488 8.39225 15 8.39975ZM19.61 2.64184C20.5336 2.70941 21.3032 3.5502 21.3113 4.50359C21.3167 5.67441 21.3149 6.8419 21.3131 8.0105L21.3131 8.01337C21.3122 8.59713 21.3113 9.18117 21.3113 9.76604V12.2959V12.5887C21.2719 12.5903 21.234 12.5916 21.1974 12.5929C21.0686 12.5973 20.955 12.6012 20.8414 12.6187C20.0637 12.7313 19.5046 13.3244 19.4965 14.0601C19.4911 14.6042 19.4929 15.145 19.4947 15.6913C19.4956 15.9666 19.4965 16.2432 19.4965 16.5224H10.5035V14.3303C10.5035 14.299 10.5038 14.2673 10.5041 14.2355V14.2355C10.5054 14.1073 10.5067 13.9762 10.4873 13.8499C10.3738 13.1367 9.7419 12.6262 8.96412 12.5962H8.70486L8.70158 12.5572C8.69471 12.4762 8.68866 12.4048 8.68866 12.3334V4.53362C8.68866 3.63277 9.27199 2.89708 10.1632 2.64935C10.2199 2.63434 10.2766 2.62683 10.39 2.61182V2.94963V9.39819C10.39 10.4267 11.0301 11.0197 12.14 11.0197H17.8843C18.978 11.0197 19.6262 10.4267 19.6262 9.41321V2.94213C19.61 2.84453 19.61 2.73944 19.61 2.64184ZM15 25.5459H7.28704C6.55787 25.5459 6.25 25.2606 6.25 24.5925V14.2102C6.25 13.5796 6.57407 13.2793 7.24653 13.2718H8.82639C9.42593 13.2793 9.7662 13.5871 9.7662 14.1426V18.9547C9.7662 19.3676 9.86343 19.4651 10.3252 19.4651H19.6829C20.1204 19.4651 20.2257 19.3676 20.2257 18.9697V14.2102C20.2257 13.5646 20.5417 13.2718 21.2465 13.2643H22.794C23.4097 13.2718 23.7419 13.5796 23.75 14.1577V24.63C23.75 25.2381 23.4178 25.5384 22.7535 25.5384C20.1615 25.5459 17.5858 25.5459 15.002 25.5459H15ZM14.9676 23.9318H17.3009C17.5521 23.9318 17.7465 23.8718 17.7789 23.609C17.8032 23.3913 17.6169 23.2562 17.3009 23.2562H12.691C12.375 23.2562 12.1968 23.3838 12.1968 23.594C12.1968 23.8117 12.3669 23.9243 12.691 23.9318H14.9676ZM10.4954 27.798V26.2365H19.4803V27.798H19.8206H22.7049C22.7287 27.798 22.7549 27.7964 22.7816 27.7947C22.8545 27.7902 22.9307 27.7855 22.9722 27.813C23.0856 27.8956 23.2396 28.0232 23.2396 28.1358C23.2396 28.2484 23.0937 28.376 22.9722 28.4511C22.9183 28.49 22.8244 28.4836 22.7365 28.4777H22.7365C22.7057 28.4756 22.6755 28.4736 22.6481 28.4736H7.34375H7.28704C6.91435 28.4736 6.73611 28.361 6.74421 28.1283C6.75231 27.9031 6.91435 27.798 7.27893 27.798H10.1308H10.4954ZM19.4722 18.7745V17.2356H10.5197V18.7745H19.4722Z" fill="black"/>
</mask>
<g mask="url(#mask0_43_1138)">
<rect width="30" height="31.0714" fill="#19A7CE"/>
</g>
</svg>
