<svg width="16" height="9" viewBox="0 0 16 9" fill="none" xmlns="http://www.w3.org/2000/svg">
<path d="M7.89083 8.45985C7.62749 8.4604 7.37228 8.36207 7.16951 8.18193L0.407153 2.14026C0.176989 1.93516 0.0322466 1.64044 0.00476915 1.32092C-0.0227083 1.00141 0.0693296 0.683275 0.260635 0.436513C0.451941 0.189751 0.726843 0.0345719 1.02487 0.00511309C1.32289 -0.0243458 1.61962 0.0743285 1.84979 0.279429L7.89083 5.69276L13.9319 0.472764C14.0472 0.372392 14.1798 0.297437 14.3222 0.252207C14.4646 0.206977 14.6139 0.192364 14.7616 0.209207C14.9093 0.22605 15.0524 0.274017 15.1827 0.350352C15.313 0.426687 15.428 0.529885 15.521 0.654013C15.6242 0.778256 15.7024 0.924013 15.7506 1.08215C15.7989 1.24029 15.8161 1.4074 15.8013 1.57302C15.7865 1.73864 15.7399 1.89919 15.6646 2.04463C15.5892 2.19006 15.4866 2.31723 15.3632 2.41818L8.60088 8.25443C8.39228 8.40609 8.14228 8.47842 7.89083 8.45985Z" fill="#19A7CE"/>
</svg>
