<svg width="26" height="26" viewBox="0 0 26 26" fill="none" xmlns="http://www.w3.org/2000/svg">
<path fill-rule="evenodd" clip-rule="evenodd" d="M17.6507 2.4838C18.0738 2.06074 18.7597 2.06074 19.1828 2.48381L23.5161 6.81715C23.7193 7.02031 23.8334 7.29586 23.8334 7.58318C23.8334 7.8705 23.7193 8.14605 23.5161 8.34921L19.1828 12.6825C18.7597 13.1056 18.0738 13.1056 17.6507 12.6825C17.2276 12.2595 17.2276 11.5735 17.6507 11.1505L20.1347 8.66651L3.25008 8.66651C2.65177 8.66651 2.16675 8.18148 2.16675 7.58318C2.16675 6.98487 2.65177 6.49984 3.25008 6.49984L20.1347 6.49984L17.6507 4.01587C17.2276 3.5928 17.2276 2.90687 17.6507 2.4838ZM8.34946 13.3171C8.77253 13.7402 8.77253 14.4261 8.34946 14.8492L5.86549 17.3332L22.7501 17.3332C23.3484 17.3332 23.8334 17.8182 23.8334 18.4165C23.8334 19.0148 23.3484 19.4998 22.7501 19.4998L5.8655 19.4998L8.34946 21.9838C8.77253 22.4069 8.77253 23.0928 8.34946 23.5159C7.9264 23.9389 7.24047 23.9389 6.8174 23.5159L2.48407 19.1825C2.061 18.7595 2.061 18.0735 2.48406 17.6505L6.8174 13.3171C7.24046 12.8941 7.92639 12.8941 8.34946 13.3171Z" fill="black"/>
</svg>
