<svg width="32" height="29" viewBox="0 0 32 29" fill="none" xmlns="http://www.w3.org/2000/svg">
<path d="M15.8258 19.3334C15.537 19.3339 15.257 19.2356 15.0346 19.0555L7.61632 13.0138C7.36383 12.8087 7.20505 12.514 7.17491 12.1945C7.14477 11.8749 7.24573 11.5568 7.45559 11.31C7.66545 11.0633 7.96702 10.9081 8.29395 10.8786C8.62088 10.8492 8.94639 10.9479 9.19888 11.153L15.8258 16.5663L22.4528 11.3463C22.5793 11.2459 22.7248 11.171 22.881 11.1257C23.0372 11.0805 23.201 11.0659 23.363 11.0827C23.525 11.0996 23.682 11.1476 23.825 11.2239C23.9679 11.3002 24.0941 11.4034 24.1961 11.5275C24.3093 11.6518 24.3951 11.7975 24.448 11.9557C24.5009 12.1138 24.5198 12.2809 24.5036 12.4466C24.4873 12.6122 24.4362 12.7727 24.3535 12.9182C24.2708 13.0636 24.1583 13.1908 24.023 13.2917L16.6048 19.128C16.3759 19.2796 16.1017 19.352 15.8258 19.3334Z" fill="white"/>
</svg>
