<svg width="31" height="29" viewBox="0 0 31 29" fill="none" xmlns="http://www.w3.org/2000/svg">
<path d="M15.0534 19.3334C14.7645 19.3339 14.4845 19.2356 14.2621 19.0555L6.84386 13.0138C6.59137 12.8087 6.43259 12.514 6.40245 12.1945C6.37231 11.8749 6.47327 11.5568 6.68313 11.31C6.89299 11.0633 7.19456 10.9081 7.52149 10.8786C7.84842 10.8492 8.17393 10.9479 8.42642 11.153L15.0534 16.5663L21.6803 11.3463C21.8068 11.2459 21.9523 11.171 22.1085 11.1257C22.2647 11.0805 22.4285 11.0659 22.5905 11.0827C22.7525 11.0996 22.9095 11.1476 23.0525 11.2239C23.1955 11.3002 23.3216 11.4034 23.4236 11.5275C23.5369 11.6518 23.6226 11.7975 23.6755 11.9557C23.7284 12.1138 23.7473 12.2809 23.7311 12.4466C23.7148 12.6122 23.6638 12.7727 23.5811 12.9182C23.4984 13.0636 23.3859 13.1908 23.2505 13.2917L15.8323 19.128C15.6035 19.2796 15.3292 19.352 15.0534 19.3334Z" fill="#0064D2"/>
</svg>
