<svg width="25" height="25" viewBox="0 0 25 25" fill="none" xmlns="http://www.w3.org/2000/svg">
<path d="M21.7014 18.725C21.4293 18.725 21.1561 18.6762 20.8938 18.5769L4.31745 12.2803C3.04523 11.7986 2.03596 10.8495 1.47658 9.60832C0.917256 8.36716 0.874727 6.98244 1.35686 5.70925C1.35778 5.70681 1.35871 5.70432 1.35969 5.70188L2.33542 3.18679C2.53049 2.68401 3.09616 2.43454 3.59909 2.62956C4.10192 2.82463 4.35139 3.3904 4.15632 3.89323L3.18205 6.40446C2.88605 7.18879 2.91272 8.04143 3.25725 8.80588C3.60222 9.57141 4.22473 10.1568 5.00998 10.4541L21.5863 16.7507C21.7421 16.8097 21.8744 16.7301 21.9241 16.693C21.9831 16.649 22.0805 16.5524 22.0694 16.4003C21.9828 15.2205 21.3965 14.4162 20.3262 14.0096L16.4593 12.5847C16.089 12.4482 15.8372 12.1023 15.8213 11.7079L15.5701 5.5133C15.4856 4.55412 15.2785 3.84489 14.9547 3.405C14.7941 3.18694 14.576 3.19094 14.4898 3.20281C14.3994 3.21521 14.2425 3.26296 14.1524 3.44065C14.1524 3.44065 13.0911 8.51516 13.0731 8.56286C12.7021 9.54245 11.7672 10.1468 10.7769 10.1469C10.4887 10.1469 10.1961 10.0958 9.91101 9.98781L5.41164 8.26032C4.90813 8.06701 4.65671 7.50212 4.85002 6.99861C5.04333 6.49514 5.60837 6.24367 6.11169 6.43698L10.6069 8.16291C10.8425 8.25217 11.1091 8.14568 11.2236 7.92292C11.2236 7.92292 12.2845 2.84934 12.3027 2.80163C12.6203 1.96272 13.3387 1.38933 14.2243 1.26784C15.1109 1.14621 15.9933 1.52151 16.5275 2.24709C17.0778 2.99455 17.4017 4.01526 17.5179 5.3677C17.5192 5.38235 17.7464 10.9775 17.7464 10.9775L21.0059 12.1787C21.0087 12.1797 21.0113 12.1807 21.0141 12.1818C22.8078 12.861 23.8743 14.3085 24.0172 16.2576C24.0743 17.0357 23.7284 17.7838 23.092 18.2586C22.6799 18.566 22.1925 18.725 21.7014 18.725Z" fill="#19A7CE"/>
<path d="M24.0234 23.7549H0.976562C0.437207 23.7549 0 23.3177 0 22.7783C0 22.239 0.437207 21.8018 0.976562 21.8018H24.0234C24.5628 21.8018 25 22.239 25 22.7783C25 23.3177 24.5628 23.7549 24.0234 23.7549Z" fill="#19A7CE"/>
</svg>
