<svg width="25" height="25" viewBox="0 0 25 25" fill="none" xmlns="http://www.w3.org/2000/svg">
<g clip-path="url(#clip0_43_1365)">
<rect width="25" height="25" fill="white"/>
<path d="M24.0235 23.1933H0.976799C0.437448 23.1933 0.000244141 22.7561 0.000244141 22.2167C0.000244141 21.6774 0.437448 21.2402 0.976799 21.2402H24.0235C24.5628 21.2402 25 21.6774 25 22.2167C25 22.7561 24.5628 23.1933 24.0235 23.1933Z" fill="#19A7CE"/>
<path d="M5.91232 18.3144C5.46848 18.3144 5.0219 18.2559 4.58172 18.1377C3.26693 17.7844 2.16841 16.9404 1.48848 15.7609L0.132633 13.4306C-0.138605 12.9644 0.0194504 12.3666 0.485609 12.0954C0.951767 11.8242 1.54956 11.9821 1.8208 12.4483L3.1786 14.7821C3.59994 15.5129 4.27747 16.0336 5.08845 16.2514C5.89928 16.4693 6.74659 16.3583 7.47408 15.9389L22.8763 7.0604C23.0215 6.97666 23.0436 6.82383 23.0464 6.76201C23.0497 6.68843 23.0366 6.55191 22.9119 6.46421C21.9444 5.78409 20.9507 5.72843 19.9586 6.29859L16.3907 8.40892C16.0504 8.61029 15.6221 8.58656 15.3062 8.34857L10.3533 4.61965C9.55755 4.07756 8.87758 3.78855 8.33208 3.76062C8.06113 3.74636 7.92656 3.91809 7.8811 3.99231C7.83345 4.07009 7.77104 4.22175 7.85146 4.40402L11.0454 8.35736C11.0775 8.39706 11.1064 8.43915 11.1318 8.48334C11.459 9.05086 11.5455 9.71184 11.3756 10.3445C11.2061 10.9751 10.802 11.5024 10.2373 11.8297L6.11232 14.2684C5.64797 14.5428 5.04919 14.389 4.77468 13.9247C4.50017 13.4604 4.65408 12.8615 5.11833 12.587L9.2472 10.1461C9.25028 10.1443 9.25336 10.1425 9.25648 10.1407C9.37206 10.0741 9.45472 9.96653 9.48934 9.83772C9.51898 9.72727 9.51029 9.61267 9.46527 9.50936L6.27189 5.5567C6.23981 5.517 6.21095 5.47491 6.18546 5.43077C5.73742 4.65358 5.7487 3.7345 6.21559 2.9722C6.68292 2.20917 7.53169 1.76376 8.43212 1.81005C9.35897 1.85756 10.3541 2.25331 11.4742 3.01995C11.4864 3.02825 11.4983 3.03685 11.51 3.04568L15.9589 6.39512L18.9694 4.61442C18.9726 4.61257 18.9757 4.61071 18.9789 4.6089C20.6405 3.65105 22.4362 3.74231 24.0351 4.86628C24.6733 5.31491 25.0332 6.05631 24.9976 6.84951C24.9617 7.64814 24.5334 8.35951 23.8517 8.75243L8.44956 17.631C7.66499 18.0833 6.7943 18.3144 5.91232 18.3144Z" fill="#19A7CE"/>
</g>
<defs>
<clipPath id="clip0_43_1365">
<rect width="25" height="25" fill="white"/>
</clipPath>
</defs>
</svg>
