<svg width="33" height="30" viewBox="0 0 33 30" fill="none" xmlns="http://www.w3.org/2000/svg">
<g clip-path="url(#clip0_368_1114)">
<path d="M28.5674 22.4699C28.2092 22.4699 27.8496 22.4113 27.5042 22.2921L5.68337 14.7362C4.00864 14.1581 2.68004 13.0193 1.94369 11.5298C1.2074 10.0404 1.15141 8.37879 1.78608 6.85095C1.7873 6.84802 1.78852 6.84504 1.78981 6.84211L3.07425 3.824C3.33104 3.22066 4.07568 2.92131 4.73773 3.15533C5.39966 3.38941 5.72805 4.06834 5.47126 4.67174L4.18875 7.68521C3.7991 8.6264 3.8342 9.64957 4.28773 10.5669C4.74185 11.4855 5.56131 12.188 6.59501 12.5448L28.4159 20.1007C28.621 20.1715 28.7952 20.0759 28.8605 20.0315C28.9383 19.9786 29.0664 19.8628 29.0518 19.6802C28.9379 18.2645 28.166 17.2993 26.7572 16.8114L21.6668 15.1015C21.1793 14.9377 20.8479 14.5226 20.8268 14.0493L20.4962 6.61582C20.3849 5.4648 20.1124 4.61373 19.6861 4.08586C19.4747 3.82418 19.1876 3.82898 19.0741 3.84322C18.9551 3.8581 18.7487 3.91541 18.6299 4.12863C18.6299 4.12863 17.2329 10.218 17.2092 10.2753C16.7208 11.4508 15.4901 12.176 14.1865 12.1761C13.8071 12.1761 13.4219 12.1148 13.0467 11.9852L7.12375 9.91224C6.46093 9.68027 6.12997 9.0024 6.38444 8.39818C6.63891 7.79402 7.38272 7.49226 8.04529 7.72423L13.9627 9.79535C14.2728 9.90246 14.6238 9.77466 14.7745 9.50736C14.7745 9.50736 16.1712 3.41906 16.195 3.36181C16.6132 2.35511 17.5589 1.66705 18.7247 1.52127C19.8917 1.37531 21.0534 1.82566 21.7565 2.69636C22.4809 3.59332 22.9074 4.81816 23.0603 6.44109C23.0619 6.45867 23.361 13.1729 23.361 13.1729L27.6519 14.6143C27.6555 14.6155 27.659 14.6167 27.6626 14.618C30.0238 15.4331 31.4278 17.17 31.6159 19.509C31.691 20.4427 31.2357 21.3404 30.398 21.9101C29.8554 22.2791 29.2139 22.4698 28.5674 22.4699V22.4699Z" fill="white"/>
<path d="M31.6242 28.5059H1.28554C0.575534 28.5059 0 27.9812 0 27.334C0 26.6868 0.575534 26.1621 1.28554 26.1621H31.6242C32.3342 26.1621 32.9097 26.6868 32.9097 27.334C32.9097 27.9812 32.3342 28.5059 31.6242 28.5059Z" fill="white"/>
</g>
<defs>
<clipPath id="clip0_368_1114">
<rect width="32.9097" height="30" fill="white"/>
</clipPath>
</defs>
</svg>
