<svg width="33" height="30" viewBox="0 0 33 30" fill="none" xmlns="http://www.w3.org/2000/svg">
<g clip-path="url(#clip0_366_1110)">
<path d="M31.6242 27.832H1.28577C0.575774 27.832 0.000244141 27.3074 0.000244141 26.6601C0.000244141 26.0129 0.575774 25.4883 1.28577 25.4883H31.6242C32.3342 25.4883 32.9097 26.0129 32.9097 26.6601C32.9097 27.3074 32.3342 27.832 31.6242 27.832V27.832Z" fill="white"/>
<path d="M7.78291 21.9771C7.19864 21.9771 6.61077 21.907 6.03132 21.765C4.30055 21.3412 2.85446 20.3283 1.95942 18.9129L0.174597 16.1165C-0.182458 15.5571 0.0256042 14.8398 0.639249 14.5143C1.25289 14.1889 2.03983 14.3784 2.39688 14.9379L4.18427 17.7383C4.73891 18.6154 5.63081 19.2401 6.69837 19.5015C7.76575 19.763 8.88113 19.6298 9.83878 19.1265L30.1141 8.47233C30.3052 8.37185 30.3343 8.18845 30.338 8.11427C30.3423 8.02597 30.3252 7.86214 30.161 7.75691C28.8873 6.94076 27.5793 6.87397 26.2732 7.55816L21.5766 10.0906C21.1285 10.3322 20.5648 10.3037 20.1489 10.0181L13.629 5.54343C12.5814 4.89293 11.6863 4.54611 10.9682 4.5126C10.6116 4.49549 10.4344 4.70156 10.3746 4.79062C10.3119 4.88396 10.2297 5.06595 10.3356 5.28468L14.54 10.0287C14.5822 10.0763 14.6203 10.1268 14.6538 10.1799C15.0844 10.8609 15.1984 11.6541 14.9746 12.4132C14.7516 13.17 14.2197 13.8027 13.4762 14.1955L8.04618 17.1219C7.43492 17.4512 6.6467 17.2666 6.28534 16.7094C5.92397 16.1523 6.12657 15.4337 6.73771 15.1043L12.1729 12.1752C12.177 12.173 12.181 12.1709 12.1851 12.1687C12.3373 12.0888 12.4461 11.9597 12.4917 11.8051C12.5307 11.6726 12.5192 11.5351 12.46 11.4111L8.25624 6.66789C8.21401 6.62026 8.17602 6.56975 8.14247 6.51678C7.55267 5.58415 7.56752 4.48125 8.18213 3.56649C8.79731 2.65085 9.91463 2.11637 11.0999 2.17191C12.32 2.22892 13.63 2.70382 15.1045 3.6238C15.1206 3.63376 15.1362 3.64407 15.1517 3.65467L21.0081 7.674L24.9711 5.53716C24.9753 5.53493 24.9794 5.53271 24.9835 5.53054C27.1709 4.38111 29.5347 4.49063 31.6395 5.83938C32.4797 6.37774 32.9533 7.26742 32.9065 8.21927C32.8593 9.17762 32.2954 10.0313 31.3981 10.5028L11.1229 21.157C10.0901 21.6998 8.94393 21.9771 7.78291 21.9771V21.9771Z" fill="white"/>
</g>
<defs>
<clipPath id="clip0_366_1110">
<rect width="32.9097" height="30" fill="white"/>
</clipPath>
</defs>
</svg>
