<svg width="77" height="15" viewBox="0 0 77 15" fill="none" xmlns="http://www.w3.org/2000/svg">
<path d="M64.4533 6.09469C62.9094 5.28827 61.6282 5.22726 61.0287 5.22726H58.9437L58.8323 5.03096H61.2834C61.4531 5.03096 63.4851 5.00178 64.6814 5.32276C66.1775 5.72331 67.2121 6.50851 67.4137 6.64114C67.6153 6.77112 70.3449 8.72615 70.3449 8.72615C70.3449 8.72615 69.886 9.19567 69.4377 9.19567C69.0133 9.19567 68.5543 8.86939 68.5543 8.86939C68.5543 8.86939 67.0927 7.81628 66.8699 7.65977C66.6471 7.50326 65.4932 6.64379 64.4506 6.09734L64.4533 6.09469Z" fill="#358E9D"/>
<path d="M64.3419 7.63576C65.3737 8.32015 65.9812 8.8215 66.1802 8.96475C66.3765 9.10799 67.2943 9.7632 67.2943 9.7632C67.2943 9.7632 67.7161 10.0921 68.2333 10.0921C68.6259 10.0921 69.1087 9.63588 69.1087 9.63588C69.1087 9.63588 66.9176 8.08937 66.7186 7.95143C66.5197 7.81083 65.8167 7.25642 64.5063 6.91158C63.4108 6.62243 61.8536 6.63039 61.7502 6.63039H59.7554L59.8721 6.832C59.8721 6.832 61.3762 6.83465 61.4902 6.83465C61.7316 6.83465 63.2543 6.90892 64.3419 7.63045V7.63576Z" fill="#358E9D"/>
<path d="M64.6788 4.47908C66.0077 5.19265 67.3235 6.17945 67.5675 6.35718C67.8142 6.53491 69.8117 7.9647 69.8117 7.9647C69.8117 7.9647 70.2786 8.28037 70.7056 8.28037C71.1221 8.28037 71.5943 7.8188 71.5943 7.8188C71.5943 7.8188 68.4058 5.52424 68.1193 5.32263C67.8328 5.12103 66.6842 4.17933 64.8406 3.74163C63.3975 3.37556 60.9889 3.41801 60.8218 3.41801H57.9038L58.0205 3.61961H60.5671C61.095 3.61961 63.1296 3.64614 64.6761 4.47908H64.6788Z" fill="#358E9D"/>
<path d="M76.2334 4.44717C75.8409 4.3782 75.3236 4.34637 75.3236 4.34637L74.618 4.54798L74.2148 4.21109C74.2148 4.21109 75.0557 4.2774 75.2891 4.31189C75.4907 4.31189 75.4244 4.21109 75.3209 4.00683C75.2201 3.80523 74.9867 3.80523 74.9867 3.80523H72.8672C72.8672 3.80523 72.4879 3.80788 72.0528 3.70708C71.6151 3.60628 71.4427 3.27734 71.4427 3.27734C71.2729 3.66729 71.9467 4.12089 71.9467 4.12089L74.045 5.62496C74.3156 5.79473 74.549 5.65945 74.549 5.65945C74.549 5.65945 75.0875 5.38887 75.3899 5.32256C75.6605 5.25624 76.4987 5.22176 76.5995 5.25624C76.8356 5.29072 77.1035 5.52681 77.1035 5.52681C77.2388 4.58246 76.6313 4.52145 76.2308 4.44717H76.2334Z" fill="#202D5C"/>
<path d="M65.0921 1.33038C66.5537 1.97233 68.644 3.53475 68.9491 3.75758C69.2568 3.9804 72.2676 6.13703 72.2676 6.13703C72.2676 6.13703 72.7397 6.47392 73.1774 6.47392C73.6151 6.47392 74.0475 6.03358 74.0475 6.03358C74.0475 6.03358 69.7926 2.97504 69.4849 2.75487C69.1772 2.5347 67.766 1.3463 65.1425 0.653946C63.3466 0.179117 60.2589 0.200338 59.9008 0.200338H56.0491L56.1684 0.404594H59.6992C60.5905 0.404594 63.1609 0.478869 65.0947 1.33038H65.0921Z" fill="#202D5C"/>
<path d="M64.8695 2.90119C63.2912 2.11069 61.3441 2.01254 60.2114 2.01254H57.0945L56.9778 1.81094H60.3653C60.7313 1.81094 63.2965 1.78441 64.9942 2.16905C66.9519 2.6147 68.6363 3.89859 68.8114 4.02062C68.9785 4.13733 72.8435 6.90938 72.8435 6.90938C72.8435 6.90938 72.4031 7.36299 71.9283 7.36299C71.4932 7.36299 71.0211 7.0261 71.0211 7.0261C71.0211 7.0261 68.5063 5.22228 68.2623 5.04986C68.0209 4.87743 66.3391 3.63333 64.8695 2.89853V2.90119Z" fill="#202D5C"/>
<path d="M8.29847 11.8589C8.29847 11.8589 8.06238 11.8058 7.77589 11.8058C7.13925 11.8058 6.66707 12.087 6.53709 12.5114C6.50791 12.591 6.49995 12.7687 6.49995 12.8589C6.49995 13.3974 6.87663 13.6998 7.3382 13.6998C7.42574 13.6998 7.57163 13.6786 7.69631 13.6309C8.0279 13.5088 8.29847 13.286 8.29847 12.9465V11.8589ZM8.73616 14.2675C8.69372 14.2675 8.50803 14.2781 8.4311 14.1906C8.35683 14.1216 8.35683 14.0182 8.35683 13.9333V13.6627C8.0783 14.0739 7.60877 14.3524 6.90316 14.3365C5.79434 14.3047 5.55029 13.4346 5.55029 12.9544C5.55029 12.7847 5.56621 12.461 5.81821 12.1162C6.21081 11.5644 7.02518 11.3841 7.75202 11.3841C8.06238 11.3841 8.29847 11.4291 8.29847 11.4291V10.9437C8.29847 10.7713 8.29847 10.4768 8.12604 10.2699C7.97749 10.0975 7.70427 9.96752 7.21883 9.96752C6.46281 9.96752 5.96676 10.3946 5.96676 10.3946L6.05695 9.82162C6.05695 9.82162 6.56892 9.47412 7.39125 9.47412C8.0783 9.47412 8.55313 9.66246 8.83166 9.94365C9.15263 10.2779 9.23221 10.5856 9.23221 11.201V14.2675H8.73616Z" fill="#474343"/>
<path d="M11.7921 10.1161C10.9963 10.2673 10.9087 10.896 10.9087 11.339V14.2676H9.97498V10.0816C9.97498 9.67843 9.70972 9.59354 9.70972 9.59354H10.6328C10.8371 9.59354 10.9087 9.70761 10.9087 9.83494V10.0896C10.9379 10.0047 11.2721 9.55906 11.8902 9.53784C12.0918 9.52988 12.3226 9.54845 12.4473 9.62272L12.5693 10.2116C12.4314 10.1347 12.1714 10.0418 11.7894 10.1135L11.7921 10.1161Z" fill="#474343"/>
<path d="M16.2727 14.2671C16.2409 14.2671 16.0472 14.2777 15.9597 14.1902C15.8907 14.1212 15.8907 13.9939 15.8907 13.9329V13.6623C15.6387 14.0735 15.1851 14.3334 14.5617 14.3334C14.0736 14.3334 13.7421 14.222 13.4529 13.909C13.1479 13.5695 13.0709 13.1477 13.0709 12.5774V10.0122C13.0709 9.68065 12.7844 9.59311 12.7924 9.59576H13.6625C13.8773 9.59576 14.0073 9.70452 14.0073 9.86633V12.6835C14.0073 13.5164 14.254 13.7525 14.8376 13.7525C15.3177 13.7525 15.8403 13.4289 15.8403 12.9328V9.59841H16.7661V14.2698H16.2754L16.2727 14.2671Z" fill="#474343"/>
<path d="M29.0558 14.2678C28.8622 14.2678 28.7455 14.1855 28.7455 13.9494V8.43717C28.7455 8.08967 28.4775 7.95703 28.4775 7.95703H29.3794C29.6474 7.95703 29.7667 8.08701 29.7667 8.28066V14.2704H29.0505L29.0558 14.2678Z" fill="#474343"/>
<path d="M41.778 9.98374C40.8363 9.97313 40.6718 10.944 40.6718 11.9786C40.6718 13.2651 40.9954 13.8805 41.778 13.8805C42.4677 13.8805 42.7913 13.0847 42.7913 11.9786C42.7913 11.0766 42.7064 9.99435 41.778 9.98374ZM41.7594 14.3368C40.2315 14.3288 39.6824 13.3818 39.6824 11.9573C39.6824 10.6575 40.2315 9.48769 41.7594 9.49565C43.3059 9.50626 43.7781 10.6734 43.7781 11.9573C43.7781 13.2704 43.0354 14.3474 41.7594 14.3368Z" fill="#474343"/>
<path d="M55.7179 13.9277C55.3863 14.2089 54.9486 14.3468 54.4605 14.3521H54.4101C53.678 14.3521 53.2774 14.1558 53.1024 14.055L52.9697 13.5006C52.9697 13.5006 53.609 13.9198 54.2748 13.9198C54.9168 13.9198 55.2829 13.5749 55.2404 13.0046C55.1741 12.0947 53.0679 12.3122 53.0679 10.8055C53.0679 9.97788 53.7417 9.54284 54.5693 9.53223H54.6223C55.4765 9.53223 55.7922 9.83198 55.7922 9.83198L55.9222 10.3493C55.9222 10.3493 55.5561 9.98849 54.8239 9.98849C54.0361 9.98849 53.9592 10.6198 53.9751 10.7949C54.0255 11.2485 54.3703 11.3573 54.9884 11.6278C55.633 11.9037 56.1423 12.2592 56.1423 12.9436C56.1423 13.3786 55.9752 13.7129 55.7232 13.9277H55.7179Z" fill="#474343"/>
<path d="M56.9806 14.2671C56.8082 14.2671 56.7154 14.1769 56.7154 14.023V10.0148C56.7154 9.70712 56.4236 9.5957 56.4236 9.5957H57.3759C57.5669 9.5957 57.6412 9.6965 57.6412 9.87423V14.2671H56.9806Z" fill="#474343"/>
<path d="M31.3582 9.59631C31.5359 9.59631 31.6261 9.6812 31.6261 9.83771V10.2038C31.8808 9.78996 32.3344 9.52734 32.9551 9.52734C33.4432 9.52734 33.7748 9.63876 34.0639 9.95443C34.369 10.2966 34.4459 10.7157 34.4459 11.2887V14.2703H33.8889C33.6501 14.2703 33.5122 14.1085 33.5122 13.8857V11.1879C33.5122 10.355 33.2628 10.1189 32.6846 10.1189C32.2044 10.1189 31.6792 10.4425 31.6792 10.9412V14.273H30.7534V10.0048C30.7534 9.67589 30.4961 9.60162 30.4961 9.60162H31.3609L31.3582 9.59631Z" fill="#474343"/>
<path d="M60.9967 11.8589C60.9967 11.8589 60.7607 11.8058 60.4715 11.8058C59.8349 11.8058 59.3627 12.087 59.2327 12.5114C59.2035 12.591 59.1982 12.7687 59.1982 12.8589C59.1982 13.3974 59.5723 13.6998 60.0365 13.6998C60.124 13.6998 60.2726 13.6786 60.3946 13.6309C60.7262 13.5088 60.9967 13.286 60.9967 12.9465V11.8589ZM61.4344 14.2675C61.3893 14.2675 61.209 14.2781 61.1267 14.1906C61.0604 14.1216 61.0604 14.0182 61.0604 13.9333V13.6627C60.7792 14.0739 60.307 14.3524 59.6014 14.3365C58.4926 14.3047 58.2512 13.4346 58.2512 12.9544C58.2512 12.7847 58.2645 12.461 58.5218 12.1162C58.9117 11.5644 59.7261 11.3841 60.4503 11.3841C60.766 11.3841 61.002 11.4291 61.002 11.4291V10.9437C61.002 10.7713 61.0286 10.4981 60.8349 10.2673C60.6943 10.0895 60.3972 9.96221 59.8932 9.96752C59.0285 9.98344 58.6703 10.3946 58.6703 10.3946L58.7632 9.82162C58.7632 9.82162 59.2725 9.47412 60.0948 9.47412C60.7819 9.47412 61.2541 9.66246 61.5326 9.94365C61.8562 10.2779 61.9331 10.5856 61.9331 11.201V14.2675H61.4371H61.4344Z" fill="#474343"/>
<path d="M20.3765 11.1691C20.3765 10.9038 20.342 10.5165 20.1298 10.2937C19.9812 10.1372 19.7478 10.0284 19.4135 10.0284C18.5063 10.0284 18.4029 11.2354 18.4029 11.8853V11.9543C18.4108 12.8748 18.6734 13.7873 19.4321 13.7873C19.8433 13.7873 20.1298 13.6281 20.3765 13.3178V11.1664V11.1691ZM20.6656 14.2674C20.4826 14.2674 20.4189 14.2064 20.4189 14.0366V13.8059C20.0687 14.1189 19.7292 14.3258 19.2172 14.3337H19.1987C17.8644 14.3337 17.4001 13.2064 17.4001 11.9543C17.4001 11.0152 17.7609 9.4926 19.2438 9.4926C20.1324 9.4926 20.3791 10.0284 20.3791 10.0284V8.43684C20.3791 8.1026 20.1032 7.93018 20.1032 7.93018H20.8274C21.1059 7.93018 21.3128 8.12382 21.3128 8.33338V14.2674H20.6682H20.6656Z" fill="#474343"/>
<path d="M24.7374 11.8589C24.7374 11.8589 24.504 11.8058 24.2148 11.8058C23.5782 11.8058 23.106 12.087 22.976 12.5114C22.9495 12.591 22.9389 12.7687 22.9389 12.8589C22.9389 13.3974 23.3129 13.6998 23.7771 13.6998C23.8647 13.6998 24.0132 13.6786 24.1352 13.6309C24.4668 13.5088 24.7374 13.286 24.7374 12.9465V11.8589ZM25.1724 14.2675C25.13 14.2675 24.9443 14.2781 24.8674 14.1906C24.7958 14.1216 24.7958 14.0182 24.7958 13.9333V13.6627C24.5172 14.0739 24.0477 14.3524 23.3394 14.3365C22.2333 14.3047 21.9866 13.4346 21.9866 12.9544C21.9866 12.7847 22.0025 12.461 22.2571 12.1162C22.6497 11.5644 23.4615 11.3841 24.1883 11.3841C24.504 11.3841 24.7374 11.4291 24.7374 11.4291V10.9437C24.7374 10.7713 24.7374 10.4768 24.565 10.2699C24.4191 10.0975 24.1432 9.96752 23.6604 9.96752C22.9044 9.96752 22.4057 10.3946 22.4057 10.3946L22.4985 9.82162C22.4985 9.82162 23.0105 9.47412 23.8302 9.47412C24.5199 9.47412 24.9921 9.66246 25.2706 9.94365C25.5916 10.2779 25.6711 10.5856 25.6711 11.201V14.2675H25.1724Z" fill="#474343"/>
<path d="M38.0986 11.1691C38.0986 10.9038 38.0641 10.5165 37.8546 10.2937C37.7087 10.1372 37.4726 10.0284 37.1384 10.0284C36.2311 10.0284 36.125 11.2354 36.125 11.8853V11.9543C36.1356 12.8748 36.3956 13.7873 37.1569 13.7873C37.5707 13.7873 37.8519 13.6281 38.0986 13.3178V11.1664V11.1691ZM38.3904 14.2674C38.2074 14.2674 38.1411 14.2064 38.1411 14.0366V13.8059C37.7936 14.1189 37.4514 14.3258 36.9367 14.3337H36.9129C35.5865 14.3337 35.1223 13.2064 35.1223 11.9543C35.1223 11.0152 35.4804 9.4926 36.9633 9.4926C37.8519 9.4926 38.096 10.0284 38.096 10.0284V8.43684C38.096 8.1026 37.8227 7.93018 37.8227 7.93018H38.5496C38.8281 7.93018 39.0324 8.12382 39.0324 8.33338V14.2674H38.3904Z" fill="#474343"/>
<path d="M45.0408 9.59631C45.2212 9.59631 45.3114 9.6812 45.3114 9.83771V10.2038C45.5634 9.78996 46.017 9.52734 46.6404 9.52734C47.1285 9.52734 47.4574 9.63876 47.7466 9.95443C48.0516 10.2966 48.1312 10.7157 48.1312 11.2887V14.2703H47.5715C47.3354 14.2703 47.1975 14.1085 47.1975 13.8857V11.1879C47.1975 10.355 46.9481 10.1189 46.3672 10.1189C45.887 10.1189 45.3645 10.4425 45.3645 10.9412V14.273H44.436V10.0048C44.436 9.67589 44.1787 9.60162 44.1787 9.60162H45.0382L45.0408 9.59631Z" fill="#474343"/>
<path d="M4.05694 14.2991C3.68026 14.3495 3.45479 14.3681 3.08872 14.3681C2.12845 14.3681 1.51833 14.0789 1.05411 13.6253C0.375028 12.9515 0.199951 11.8321 0.199951 11.1318C0.199951 10.5668 0.295448 9.45795 1.20266 8.60379C1.62179 8.21119 2.27435 7.87695 3.25318 7.87695C4.12591 7.87695 4.54504 8.1263 4.54504 8.1263L4.70685 8.70459C4.67237 8.68867 4.22141 8.42871 3.4707 8.42871C1.9295 8.42871 1.28224 9.48713 1.28224 11.1344C1.28224 13.6253 2.49452 13.8216 3.18156 13.8216C3.66965 13.8216 3.86595 13.7447 3.86595 13.7447V11.2697H3.33011C2.96935 11.2697 2.81549 11.3254 2.81549 11.3254L2.89242 10.8241H4.87132V14.1214C4.54769 14.2062 4.37527 14.2566 4.05164 14.2991H4.05694Z" fill="#474343"/>
<path d="M49.7597 11.9331C49.7597 11.9331 49.9958 11.9835 50.2849 11.9835C51.3221 11.9835 51.5582 11.4742 51.606 10.8853C51.6458 10.3601 51.5052 9.83748 50.6934 9.93829C49.956 10.0311 49.7597 10.5113 49.7597 11.1108C49.7597 11.6068 49.7624 11.9331 49.7624 11.9331M51.1577 9.47672C52.2638 9.5563 52.5105 10.3813 52.5105 10.8588C52.5105 11.0312 52.4946 11.3548 52.24 11.697C51.8474 12.2514 51.0356 12.4292 50.3115 12.4292C49.9958 12.4292 49.7624 12.3867 49.7624 12.3867V12.8191C49.7624 13.6361 50.1974 13.8563 50.9163 13.8457C51.72 13.8351 52.3567 13.339 52.3567 13.339L52.2665 13.912C52.2665 13.912 51.537 14.3364 50.7147 14.3364C50.025 14.3364 49.505 14.1534 49.2292 13.8669C48.887 13.5114 48.8286 13.034 48.8286 12.4185V11.3973C48.8286 10.5272 49.1867 9.33613 51.1577 9.47672Z" fill="#474343"/>
</svg>
