<svg width="23" height="24" viewBox="0 0 23 24" fill="none" xmlns="http://www.w3.org/2000/svg">
<path d="M9.24232 9.6C6.53148 9.55804 4.46068 7.37884 4.44234 4.8C4.48712 2.11334 6.68306 0.01884 9.24232 0C11.9556 0.1026 14.023 2.1794 14.0423 4.8C13.989 7.48878 11.8042 9.5818 9.24232 9.6ZM13.1232 10.5958C16.535 10.6356 18.2651 13.6284 18.2808 16.6211V24H14.9361L14.9361 17.5149C14.8547 17.0666 14.551 16.9146 14.2728 16.9585C14.0124 16.9997 13.7742 17.2125 13.7616 17.5149V24H4.46822V17.5149C4.39708 17.0882 4.12566 16.9242 3.8616 16.9407C3.57884 16.9585 3.30454 17.1834 3.29374 17.5149V24H0.000141525V16.6211C-0.0194585 13.4316 1.99816 10.6194 5.18288 10.5958H13.1232Z" fill="#19A7CE" fill-opacity="0.7"/>
<path d="M16.0781 12.6C14.002 12.5668 12.4161 10.8416 12.4021 8.8C12.4364 6.67306 14.1181 5.01491 16.0781 5C18.1559 5.08123 19.7393 6.72536 19.7541 8.8C19.7132 10.9286 18.04 12.5856 16.0781 12.6ZM19.0501 13.3883C21.663 13.4198 22.9879 15.7891 23 18.1584V24H20.4385L20.4385 18.866C20.3762 18.5111 20.1436 18.3907 19.9306 18.4255C19.7311 18.4581 19.5487 18.6266 19.5391 18.866V24H12.4219V18.866C12.3674 18.5282 12.1596 18.3983 11.9573 18.4114C11.7408 18.4255 11.5307 18.6036 11.5224 18.866V24H9.00011V18.1584C8.9851 15.6334 10.5303 13.407 12.9692 13.3883H19.0501Z" fill="#19A7CE"/>
</svg>
