<svg width="25" height="26" viewBox="0 0 25 26" fill="none" xmlns="http://www.w3.org/2000/svg">
<path fill-rule="evenodd" clip-rule="evenodd" d="M17.1164 2.70143H23.1007C23.9933 2.70143 24.734 3.39529 24.9591 4.33472C25.0199 4.58856 25.0285 4.80187 24.8753 5.02794C24.7302 5.2422 24.4899 5.38498 24.2099 5.38498H24.1384V25.0464H0.880975V5.38498H0.791524C0.505073 5.38498 0.260146 5.23548 0.116165 5.01288C-0.0366268 4.77667 -0.0158471 4.54809 0.04888 4.2864C0.275147 3.3716 1.00569 2.70143 1.88283 2.70143H7.86714C8.77954 1.09131 10.5149 0 12.4918 0C14.4687 0 16.204 1.09131 17.1164 2.70143ZM7.14258 24.7065C7.14258 24.4024 7.39349 24.1519 7.69807 24.1519H8.03709V5.38498H7.14258V24.7065ZM17.3213 24.1519H16.9822V5.38498H17.8768V24.7065C17.8768 24.4024 17.6258 24.1519 17.3213 24.1519ZM12.5007 0.894515H12.5051C12.4433 0.894577 12.3818 0.895803 12.3206 0.898173C12.3803 0.89574 12.4403 0.894515 12.5007 0.894515ZM3.56452 17.2694V19.4016C3.56452 19.5539 3.43929 19.6793 3.27827 19.6793H2.05279C1.90072 19.6793 1.77549 19.5539 1.77549 19.4016V17.2694C1.77549 17.1171 1.90072 16.9917 2.05279 16.9917H3.28722C3.43929 16.9917 3.56452 17.1171 3.56452 17.2694ZM6.24806 17.2694V19.4016C6.24806 19.5539 6.12283 19.6793 5.96182 19.6793H4.73633C4.58427 19.6793 4.45903 19.5539 4.45903 19.4016V17.2694C4.45903 17.1171 4.58427 16.9917 4.73633 16.9917H5.97076C6.12283 16.9917 6.24806 17.1171 6.24806 17.2694ZM3.56452 12.7899V14.9221C3.56452 15.0745 3.43929 15.1999 3.27827 15.1999H2.05279C1.90072 15.1999 1.77549 15.0745 1.77549 14.9221V12.7899C1.77549 12.6376 1.90072 12.5122 2.05279 12.5122H3.28722C3.43929 12.5122 3.56452 12.6376 3.56452 12.7899ZM6.24806 12.7899V14.9221C6.24806 15.0745 6.12283 15.1999 5.96182 15.1999H4.73633C4.58427 15.1999 4.45903 15.0745 4.45903 14.9221V12.7899C4.45903 12.6376 4.58427 12.5122 4.73633 12.5122H5.97076C6.12283 12.5122 6.24806 12.6376 6.24806 12.7899ZM3.56452 8.32838V10.4605C3.56452 10.6129 3.43929 10.7383 3.27827 10.7383H2.05279C1.90072 10.7383 1.77549 10.6129 1.77549 10.4605V8.32838C1.77549 8.17604 1.90072 8.05063 2.05279 8.05063H3.28722C3.43929 8.05063 3.56452 8.17604 3.56452 8.32838ZM6.24806 8.32838V10.4605C6.24806 10.6129 6.12283 10.7383 5.96182 10.7383H4.73633C4.58427 10.7383 4.45903 10.6129 4.45903 10.4605V8.32838C4.45903 8.17604 4.58427 8.05063 4.73633 8.05063H5.97076C6.12283 8.05063 6.24806 8.17604 6.24806 8.32838ZM20.5549 17.2694V19.4016C20.5549 19.5539 20.4294 19.6793 20.2771 19.6793H19.0491C18.8968 19.6793 18.7713 19.5539 18.7713 19.4016V17.2694C18.7713 17.1171 18.8968 16.9917 19.0491 16.9917H20.2771C20.4294 16.9917 20.5549 17.1171 20.5549 17.2694ZM23.2438 17.2694V19.4016C23.2438 19.5539 23.1183 19.6793 22.966 19.6793H21.738C21.5857 19.6793 21.4602 19.5539 21.4602 19.4016V17.2694C21.4602 17.1171 21.5857 16.9917 21.738 16.9917H22.966C23.1183 16.9917 23.2438 17.1171 23.2438 17.2694ZM20.5549 12.7899V14.9221C20.5549 15.0745 20.4294 15.1999 20.2771 15.1999H19.0491C18.8968 15.1999 18.7713 15.0745 18.7713 14.9221V12.7899C18.7713 12.6376 18.8968 12.5122 19.0491 12.5122H20.2771C20.4294 12.5122 20.5549 12.6376 20.5549 12.7899ZM23.2438 12.7899V14.9221C23.2438 15.0745 23.1183 15.1999 22.966 15.1999H21.738C21.5857 15.1999 21.4602 15.0745 21.4602 14.9221V12.7899C21.4602 12.6376 21.5857 12.5122 21.738 12.5122H22.966C23.1183 12.5122 23.2438 12.6376 23.2438 12.7899ZM20.5549 8.32838V10.4605C20.5549 10.6129 20.4294 10.7383 20.2771 10.7383H19.0491C18.8968 10.7383 18.7713 10.6129 18.7713 10.4605V8.32838C18.7713 8.17604 18.8968 8.05063 19.0491 8.05063H20.2771C20.4294 8.05063 20.5549 8.17604 20.5549 8.32838ZM23.2438 8.32838V10.4605C23.2438 10.6129 23.1183 10.7383 22.966 10.7383H21.738C21.5857 10.7383 21.4602 10.6129 21.4602 10.4605V8.32838C21.4602 8.17604 21.5857 8.05063 21.738 8.05063H22.966C23.1183 8.05063 23.2438 8.17604 23.2438 8.32838ZM11.6152 10.117V12.2459C11.6152 12.398 11.4893 12.5232 11.3364 12.5232H10.1049C9.95198 12.5232 9.82612 12.398 9.82612 12.2459V10.117C9.82612 9.96489 9.95198 9.83966 10.1049 9.83966H11.3364C11.4893 9.83966 11.6152 9.96489 11.6152 10.117ZM11.738 22.3629H10.1507C9.97524 22.3629 9.82612 22.2199 9.82612 22.0323V17.8923H12.0624V22.0323C12.0624 22.2199 11.9133 22.3629 11.738 22.3629ZM12.9569 16.9977V16.9958H12.0624V16.9977H9.82612V16.9958H8.89046C8.66486 16.9958 8.48435 16.8169 8.48435 16.5932C8.48435 16.5217 8.51145 16.4591 8.53847 16.4054C8.54375 16.4002 8.54589 16.3981 8.54688 16.3954L8.54732 16.3934L8.5475 16.3913V16.3875C9.35078 15.0368 10.8219 14.1244 12.5187 14.1244C14.2155 14.1244 15.6866 15.0368 16.4899 16.3875C16.4944 16.392 16.4944 16.3987 16.4944 16.4054C16.4944 16.4121 16.4944 16.4188 16.4988 16.4233C16.5259 16.468 16.535 16.5306 16.535 16.5932C16.535 16.8169 16.3545 16.9958 16.1289 16.9958H15.1932V16.9977H12.9569ZM12.9569 17.8923V22.0323C12.9569 22.2199 13.106 22.3629 13.2814 22.3629H14.8688C15.0441 22.3629 15.1932 22.2199 15.1932 22.0323V17.8923H12.9569ZM15.1932 12.2459V10.117C15.1932 9.96489 15.0674 9.83966 14.9145 9.83966H13.6829C13.53 9.83966 13.4042 9.96489 13.4042 10.117V12.2459C13.4042 12.398 13.53 12.5232 13.6829 12.5232H14.9145C15.0674 12.5232 15.1932 12.398 15.1932 12.2459ZM13.8615 3.57806H13.8437C13.6027 3.57806 13.4064 3.77485 13.4064 4.01637V5.36709H11.6129V4.01637C11.6129 3.77485 11.4167 3.57806 11.1757 3.57806H11.1579C10.917 3.57806 10.7206 3.77485 10.7206 4.01637V7.61232C10.7206 7.85384 10.917 8.05063 11.1579 8.05063H11.1757C11.4167 8.05063 11.6129 7.85384 11.6129 7.61232V6.27055H13.4064V7.61232C13.4064 7.85384 13.6027 8.05063 13.8437 8.05063H13.8615C14.1024 8.05063 14.2987 7.85384 14.2987 7.61232V4.01637C14.2987 3.77485 14.1024 3.57806 13.8615 3.57806Z" fill="white"/>
</svg>
