<svg width="15" height="17" viewBox="0 0 15 17" fill="none" xmlns="http://www.w3.org/2000/svg">
<path fill-rule="evenodd" clip-rule="evenodd" d="M7.06684 0.126745C7.33089 -0.0422482 7.66911 -0.0422482 7.93316 0.126745L14.6295 4.4124C15.0033 4.65163 15.1124 5.14859 14.8732 5.52238C14.6339 5.89618 14.137 6.00526 13.7632 5.76604L13.1249 5.35755V11.7856C13.1249 12.969 12.1655 13.9284 10.9821 13.9284H4.0179C2.83445 13.9284 1.87507 12.969 1.87507 11.7856V5.35755L1.23682 5.76604C0.863027 6.00526 0.366073 5.89618 0.126844 5.52238C-0.112385 5.14859 -0.00329751 4.65163 0.370498 4.4124L7.06684 0.126745Z" fill="#146C94"/>
<line x1="0.806641" y1="15.5499" x2="14.0066" y2="15.5499" stroke="#146C94" stroke-width="0.7"/>
<path d="M13.5978 16.0369L13.862 15.8089C13.9267 15.865 13.9863 15.9281 14.0395 15.9974L13.367 16.7502L13.2129 16.9227C13.206 16.9304 13.1987 16.9375 13.1909 16.9441L13.0411 16.8106L13.0156 16.7879L13.0181 16.7847L13.0344 16.7637L13.0345 16.7634L13.0368 16.7605L13.5978 16.0369ZM13.8085 15.7651C13.8115 15.7673 13.8144 15.7696 13.8172 15.7719L13.7124 15.6974C13.7452 15.7182 13.7773 15.7408 13.8085 15.7651Z" fill="#146C94" stroke="#146C94" stroke-width="3"/>
<path d="M1.31526 14.9631L1.05111 15.1911C0.986402 15.135 0.926752 15.0719 0.873554 15.0026L1.54609 14.2498L1.70023 14.0773C1.70704 14.0696 1.71436 14.0625 1.72214 14.0559L1.87195 14.1894L1.89749 14.2121L1.89502 14.2153L1.87873 14.2363L1.87854 14.2366L1.87626 14.2395L1.31526 14.9631ZM1.10454 15.2349C1.10163 15.2327 1.09873 15.2304 1.09584 15.2281L1.20072 15.3026C1.16793 15.2818 1.13583 15.2592 1.10454 15.2349Z" fill="#146C94" stroke="#146C94" stroke-width="3"/>
</svg>
