<svg width="78" height="15" viewBox="0 0 78 15" fill="none" xmlns="http://www.w3.org/2000/svg">
<path d="M65.3699 0.306641L64.1133 3.44819L69.9861 0.319464L65.3699 0.306641Z" fill="#00A7E1"/>
<path d="M17.5412 8.96172H22.4395L23.4653 6.29461H18.5414L19.58 3.66597H24.4783L25.5939 0.819336H16.3487L11.3479 14.219H20.9649L22.0805 11.3467H16.5924L17.5412 8.96172Z" fill="#F15A22"/>
<path d="M23.5809 11.3467L22.4397 14.2318C24.9786 14.5011 27.1456 14.2062 27.1456 14.2062C28.6459 14.0651 31.1719 13.5779 32.5311 10.3081L36.3266 0.819336H31.9926L28.6715 9.02583C28.6715 9.02583 28.1458 10.8082 26.248 11.2826C25.5684 11.4621 24.3374 11.3852 23.5809 11.3467Z" fill="#F15A22"/>
<path d="M1.67979 11.3467L0.538574 14.2318C3.07746 14.5011 5.23166 14.2062 5.23166 14.2062C6.73191 14.0651 9.25798 13.5779 10.6172 10.3081L14.4127 0.819336H10.0658L6.74474 9.02583C6.74474 9.02583 6.21901 10.8082 4.32126 11.2826C3.6673 11.4621 2.4235 11.3852 1.67979 11.3467Z" fill="#F15A22"/>
<path d="M45.5974 0.819336L42.4173 9.41051C41.6608 11.3339 40.9684 11.4365 39.9169 11.4365C38.6859 11.4365 38.9937 10.4235 39.1604 9.83366L42.5584 0.819336H38.2628L34.7622 10.244C33.5441 13.6035 36.3266 14.3088 37.6986 14.3088H39.9426C41.1735 14.3088 45.046 13.9754 46.2257 10.8082L49.9186 0.832159H45.5974V0.819336Z" fill="#F15A22"/>
<path d="M60.01 14.347H63.9081L67.8703 3.69141H63.985L60.01 14.347Z" fill="#F15A22"/>
<path d="M76.6408 3.69141C74.5507 3.69141 73.3325 4.89674 72.6914 5.66609L73.4736 3.69141H69.5883L65.6133 14.347H69.5114L71.4091 9.2949C72.3836 7.02529 74.4609 6.88425 74.8199 6.88425H76.2945L77.4614 3.69141H76.6408Z" fill="#F15A22"/>
<path d="M55.945 10.5135C55.945 10.5135 55.432 12.0907 53.2265 12.0907C52.8932 12.0907 52.4315 11.8984 52.5085 11.2957C52.5854 10.6289 53.0214 10.3725 53.5728 10.2571L56.227 9.75697L55.945 10.5135ZM53.0086 8.33366C50.5338 8.60293 48.5463 9.73133 48.2898 11.8471C48.1616 12.8985 48.6745 14.3475 51.457 14.3475C51.457 14.3475 53.5471 14.4244 54.8422 13.5397L54.5345 14.3603H58.3428L60.9586 7.20527L61.0997 6.83341C61.4587 5.85889 61.4459 3.70468 56.8554 3.6021C54.9191 3.56363 51.7519 3.93549 49.8798 7.20527H53.6753C53.6753 7.20527 54.2139 5.8076 55.9578 5.8076C55.9578 5.8076 57.0477 5.75631 57.1375 6.47437C57.1375 6.47437 57.2657 7.52583 55.6629 7.92333C54.7268 8.14132 53.0086 8.33366 53.0086 8.33366Z" fill="#F15A22"/>
</svg>
