<svg width="78" height="22" viewBox="0 0 78 22" fill="none" xmlns="http://www.w3.org/2000/svg">
<path d="M25.4942 11.1287H23.5955V15.215C23.5955 15.9561 24.0299 16.1185 24.6982 16.1185C24.9523 16.1185 25.2233 16.0826 25.4942 16.0826V18.344C24.9334 18.3619 24.3725 18.4336 23.8127 18.4336C21.1897 18.4336 20.5202 17.6746 20.5202 15.1243V11.1287H18.9652V9.06447H20.5202V6.1168H23.5955V9.06447H25.4942V11.1287ZM40.9736 11.1287H39.0739V15.215C39.0739 15.9561 39.5082 16.1185 40.1777 16.1185C40.4307 16.1185 40.7027 16.0826 40.9736 16.0826V18.344C40.4128 18.3619 39.8519 18.4336 39.291 18.4336C36.668 18.4336 35.9996 17.6746 35.9996 15.1243V11.1287H34.4436V9.06447H35.9996V6.1168H39.0739V9.06447H40.9736V11.1287ZM9.11491 14.4386C9.11491 17.1829 7.70752 18.5713 4.82622 18.5713C1.5844 18.5713 0.538574 16.7021 0.538574 13.9748V13.4434H3.54003V14.5757C3.54003 15.3822 3.98599 15.8281 4.77459 15.8281C5.51253 15.8281 5.92371 15.4159 5.92371 14.232V6.06787H9.11491V14.4386ZM16.2804 12.6912C16.2266 11.6517 15.4918 10.7904 14.4692 10.7904C13.3928 10.7904 12.6759 11.5621 12.4967 12.6912H16.2804ZM12.4967 14.3938C12.5504 15.6674 13.2852 16.5097 14.5767 16.5097C15.3115 16.5097 16.0295 16.1702 16.3173 15.4881H19.1669C18.6113 17.6399 16.6209 18.5718 14.5409 18.5718C11.5109 18.5718 9.44776 16.7438 9.44776 13.6231C9.44776 10.7725 11.726 8.72829 14.4692 8.72829C17.8048 8.72829 19.4716 11.2395 19.3293 14.3938H12.4967ZM28.4916 15.2458C28.4916 15.7107 28.6877 16.0512 28.9924 16.2831C29.2781 16.4982 29.6903 16.6047 30.1193 16.6047C30.7097 16.6047 31.5499 16.3548 31.5499 15.6211C31.5499 14.9052 30.6022 14.7629 30.0656 14.6385C28.1511 14.1546 25.7548 14.1019 25.7548 11.597C25.7548 9.36196 28.1711 8.75368 29.9939 8.75368C32.0328 8.75368 34.1613 9.34404 34.2689 11.7583H31.4614C31.4614 11.3651 31.317 11.1142 31.0671 10.9528C30.8173 10.7926 30.4778 10.7209 30.1014 10.7209C29.6007 10.7209 28.7963 10.7747 28.7963 11.4189C28.7963 12.2949 30.8341 12.4552 32.23 12.7598C34.1087 13.1352 34.5905 14.4941 34.5905 15.2637C34.5905 17.7496 32.23 18.5719 30.1373 18.5719C27.937 18.5719 25.6831 17.8392 25.5945 15.2458H28.4916ZM45.455 16.6988C46.9004 16.6988 47.3812 15.8786 47.3095 13.9703C46.8815 14.237 46.0961 14.2908 45.4361 14.469C44.7582 14.6303 44.1878 14.915 44.1878 15.6466C44.1878 16.3962 44.7772 16.6988 45.455 16.6988ZM41.5301 11.9008C41.5838 10.6874 42.1542 9.90196 42.9744 9.42123C43.7957 8.95631 44.8647 8.77814 45.9179 8.77814C48.1128 8.77814 50.234 9.25992 50.234 11.8829V15.9334C50.234 16.7167 50.234 17.5738 50.5924 18.3054H47.5414C47.4349 18.0197 47.3981 17.734 47.3632 17.4315C46.5778 18.2517 45.4182 18.5711 44.3122 18.5711C42.5464 18.5711 41.1558 17.6803 41.1558 15.772C41.1558 12.7558 44.4377 12.9888 46.543 12.5608C47.0596 12.4533 47.3454 12.2751 47.3454 11.7047C47.3454 11.0079 46.5072 10.7401 45.882 10.7401C45.0439 10.7401 44.5094 11.1154 44.366 11.9008H41.5301ZM54.9068 9.3353C54.4429 9.63895 54.0823 10.0828 53.8631 10.6605H53.8283V9.0327H50.8763V18.3154H53.9168V13.7189C53.9168 12.5571 54.7023 11.5187 56.2056 11.5187C56.5546 11.5187 56.8666 11.5724 57.1924 11.6536L54.9068 9.3353Z" fill="#100E0C"/>
<path fill-rule="evenodd" clip-rule="evenodd" d="M68.2738 0.770508L68.6702 7.13505H77.4616L69.0413 12.7068L70.8988 21.8956L63.7415 15.6798L54.1067 20.6822L59.8524 12.8069L54.404 7.13505H63.2218L68.2738 0.770508Z" fill="#FE5815"/>
</svg>
