<svg width="78" height="21" viewBox="0 0 78 21" fill="none" xmlns="http://www.w3.org/2000/svg">
<path fill-rule="evenodd" clip-rule="evenodd" d="M2.91216 5.99495C2.19422 8.03495 1.47919 10.0749 0.761255 12.1149C0.71456 12.2871 0.664946 12.4622 0.629924 12.6286C0.591984 12.7949 0.565718 12.9584 0.551126 13.1247C0.536534 13.294 0.533615 13.4691 0.545289 13.6325C0.556963 13.796 0.586148 13.9448 0.644517 14.1228C0.702886 14.3009 0.787521 14.5081 0.895504 14.689C1.00641 14.87 1.14357 15.0246 1.30409 15.1501C1.4646 15.2786 1.64847 15.3778 1.86735 15.4566C2.08623 15.5354 2.34306 15.5879 2.55902 15.6171C2.77499 15.6434 2.94718 15.6434 3.11937 15.6434H8.06615C8.10701 15.6404 8.14786 15.6375 8.18872 15.6258C8.22666 15.6142 8.2646 15.5908 8.30546 15.5646C8.34632 15.5383 8.38718 15.5062 8.4222 15.4653C8.46014 15.4245 8.49224 15.3719 8.51851 15.3194C8.54477 15.2669 8.56812 15.2114 8.58855 15.156C8.76658 14.6131 8.94168 14.0703 9.0701 13.6676C9.19851 13.2648 9.28022 13.0051 9.32692 12.8533C9.37361 12.7016 9.38237 12.6607 9.38529 12.6228C9.38821 12.5848 9.38821 12.5527 9.38237 12.5206C9.37653 12.4885 9.36194 12.4564 9.34443 12.4301C9.324 12.4039 9.29773 12.3805 9.27147 12.3659C9.2452 12.3513 9.21894 12.3426 9.18683 12.3368C9.15765 12.3309 9.12263 12.3309 9.09052 12.328H5.48331C5.42786 12.328 5.36949 12.328 5.31988 12.3163C5.26735 12.3046 5.22065 12.2784 5.17979 12.2521C5.13602 12.2258 5.101 12.1967 5.06889 12.1616C5.03679 12.1266 5.01344 12.0828 4.99301 12.0274C4.9755 11.9719 4.96091 11.9077 4.95799 11.8377C4.95507 11.7706 4.96091 11.7005 4.97842 11.6188C4.99593 11.5342 5.02512 11.4379 5.05138 11.3416C5.65258 9.57589 6.25379 7.81023 6.85207 6.04164C6.86083 6.00954 6.86666 5.97744 6.86666 5.9395C6.86374 5.90156 6.85499 5.85778 6.83748 5.82276C6.81997 5.78774 6.79662 5.76147 6.77327 5.74104C6.74992 5.72061 6.72366 5.71186 6.69447 5.70602C6.66529 5.70018 6.63027 5.70018 6.59525 5.69727H3.33241C3.30615 5.70018 3.27988 5.70018 3.2507 5.70602C3.22443 5.71186 3.19525 5.72061 3.16898 5.72937C3.14271 5.74104 3.11645 5.75563 3.09018 5.77023C3.06683 5.78482 3.04349 5.80233 3.02014 5.82568C2.99679 5.84611 2.97344 5.87237 2.95593 5.90156C2.93842 5.93074 2.92675 5.96285 2.91216 5.99495Z" fill="#FB0102"/>
<path fill-rule="evenodd" clip-rule="evenodd" d="M12.0675 8.47559C12.0383 8.4785 12.012 8.4785 11.9799 8.48726C11.9508 8.49602 11.9187 8.50769 11.8924 8.52228C11.8661 8.53687 11.8457 8.54855 11.8282 8.56606C11.8078 8.58065 11.7902 8.60108 11.7756 8.62151C11.7611 8.64194 11.7494 8.66529 11.7377 8.68863L9.69771 15.2989C9.69187 15.3223 9.68895 15.3456 9.68604 15.3661C9.68604 15.3894 9.68895 15.4098 9.69479 15.4303C9.70063 15.4507 9.7123 15.4711 9.72981 15.4886C9.74732 15.5061 9.77067 15.5237 9.7911 15.5353C9.81153 15.547 9.83196 15.5528 9.84947 15.5558L9.902 15.5645H13.0218C13.051 15.5645 13.0802 15.5645 13.1123 15.5558C13.1415 15.547 13.1707 15.5324 13.1969 15.5178C13.2232 15.5032 13.2436 15.4886 13.2611 15.4594C13.2816 15.4303 13.2991 15.3836 13.3166 15.3369C14.0141 13.1334 14.7116 10.93 15.4091 8.72365C15.415 8.70323 15.4179 8.6828 15.4208 8.66237C15.4237 8.64194 15.4237 8.61859 15.4208 8.59816C15.4179 8.57773 15.412 8.56314 15.4004 8.54855C15.3916 8.53396 15.377 8.51936 15.3624 8.50769C15.3478 8.49602 15.3303 8.49018 15.3157 8.48434C15.3011 8.48142 15.2836 8.4785 15.269 8.4785H12.0675V8.47559Z" fill="#FB0102"/>
<path fill-rule="evenodd" clip-rule="evenodd" d="M21.4099 12.0914C20.7854 13.4106 17.8611 13.5711 18.4885 11.8142C18.6782 11.283 19.3903 10.7986 20.1316 10.7373C20.9546 10.6672 21.8389 11.1896 21.4128 12.0943L21.4099 12.0914ZM24.6581 11.7908C25.5541 8.68268 21.0597 6.63392 16.9388 9.58448C14.9572 11.0028 14.2684 13.79 16.3347 15.0507C17.3824 15.6899 18.436 15.8387 19.8836 15.6082C21.7251 15.3163 24.0569 13.8746 24.6581 11.7879V11.7908Z" fill="#FB0102"/>
<path d="M14.2357 7.75909C15.3966 7.57522 16.2993 6.80504 16.2519 6.03885C16.2045 5.27266 15.225 4.80059 14.0641 4.98446C12.9033 5.16833 12.0006 5.93851 12.0479 6.7047C12.0953 7.47089 13.0748 7.94296 14.2357 7.75909Z" fill="#FB0102"/>
<path fill-rule="evenodd" clip-rule="evenodd" d="M26.6425 8.43741C25.9333 10.6992 25.2241 12.9639 24.5149 15.2257C24.5062 15.2695 24.4974 15.3104 24.5003 15.3483C24.5003 15.3863 24.512 15.4213 24.5266 15.4505C24.5412 15.4796 24.5616 15.5001 24.585 15.5176C24.6083 15.5351 24.6317 15.5468 24.655 15.5526C24.6754 15.5584 24.6929 15.5584 24.7105 15.5584H27.8069C27.8361 15.5584 27.8682 15.5584 27.9003 15.5526C27.9324 15.5468 27.9704 15.5351 27.9996 15.5234C28.0287 15.5117 28.0492 15.5001 28.0696 15.4826C28.09 15.4651 28.1075 15.4417 28.1221 15.4184C28.1367 15.395 28.1455 15.3717 28.1572 15.3483C28.5482 14.0233 28.9364 12.6984 29.3275 11.3734C29.3537 11.3033 29.38 11.2362 29.4267 11.1895C29.4734 11.1457 29.5434 11.1282 29.6426 11.1078C29.7419 11.0903 29.8703 11.0728 30.0396 11.0611C30.2088 11.0494 30.419 11.0407 30.5795 11.0378C30.74 11.0319 30.8538 11.0319 30.9384 11.0436C31.0231 11.0553 31.0785 11.0815 31.1165 11.1078C31.1573 11.1341 31.1807 11.1603 31.2069 11.2012C31.2303 11.2391 31.2536 11.2917 31.2653 11.3705C31.277 11.4493 31.277 11.5514 31.2653 11.6419C31.2536 11.7294 31.2274 11.8053 31.1894 11.9162C31.1515 12.0271 31.1048 12.1789 30.9268 12.7421C30.7487 13.3054 30.4394 14.2831 30.1329 15.2608C30.1271 15.2812 30.1242 15.3016 30.1213 15.325C30.1184 15.3483 30.1184 15.3746 30.1213 15.3979C30.1242 15.4213 30.1329 15.4446 30.1475 15.468C30.1621 15.4913 30.1796 15.5117 30.203 15.5263C30.2263 15.5409 30.2526 15.5497 30.276 15.5526C30.2993 15.5555 30.3168 15.5584 30.3343 15.5584H33.5096C33.5475 15.5584 33.5855 15.5584 33.6147 15.5497C33.6468 15.5409 33.673 15.5263 33.6964 15.5088C33.7197 15.4913 33.7402 15.4709 33.7577 15.4505C33.7723 15.43 33.7839 15.4125 33.7927 15.395C34.1575 14.1926 34.5252 12.9902 34.89 11.7878C34.9134 11.7032 34.9396 11.6185 34.9659 11.4814C34.9922 11.3442 35.0155 11.1516 35.0301 10.9969C35.0418 10.8422 35.0418 10.7226 35.0301 10.5737C35.0184 10.4249 34.9951 10.2469 34.9688 10.1068C34.9426 9.96668 34.9163 9.86746 34.8784 9.77699C34.8404 9.68943 34.7908 9.61063 34.7266 9.51141C34.6653 9.40926 34.5894 9.28377 34.5019 9.17287C34.4143 9.05905 34.3122 8.95982 34.1838 8.85767C34.0553 8.75844 33.9036 8.6563 33.7664 8.58042C33.6293 8.50454 33.5038 8.45493 33.3783 8.40531C33.2528 8.3557 33.1244 8.30608 32.9697 8.26814C32.815 8.2302 32.6311 8.20394 32.351 8.19226C32.0708 8.18059 31.6972 8.18059 31.385 8.18935C31.0727 8.20102 30.8275 8.22145 30.6057 8.25063C30.3869 8.27982 30.1913 8.31776 30.0133 8.35862C29.8323 8.39948 29.6689 8.44325 29.4967 8.48995C29.3275 8.53664 29.1523 8.58334 28.9714 8.6096C28.7905 8.63295 28.6008 8.63295 28.4636 8.62128C28.3293 8.6096 28.2476 8.58917 28.1513 8.56291C28.055 8.53956 27.9412 8.51329 27.842 8.49287C27.7398 8.46952 27.6523 8.45201 27.5384 8.44033C27.4275 8.42866 27.2933 8.42282 27.1386 8.42282C26.9839 8.42282 26.8088 8.43158 26.6366 8.44033L26.6425 8.43741Z" fill="#FB0102"/>
<path fill-rule="evenodd" clip-rule="evenodd" d="M66.9547 8.31199C66.9343 8.31199 66.9167 8.31491 66.8963 8.31783C66.8759 8.32366 66.8584 8.3295 66.8409 8.34117C66.8234 8.35285 66.8088 8.36744 66.7942 8.38203C66.7825 8.39662 66.7708 8.41122 66.7621 8.42873C66.7533 8.44624 66.7446 8.46667 66.7387 8.48418C66.0383 10.7635 65.3408 13.0428 64.6403 15.3221C64.6374 15.3425 64.6316 15.363 64.6316 15.3863C64.6316 15.4097 64.6374 15.4301 64.6462 15.4505C64.6549 15.471 64.6695 15.4885 64.687 15.5001C64.7046 15.5147 64.7308 15.5235 64.7512 15.5293C64.7746 15.5352 64.795 15.5352 64.8155 15.5352H68.0754C68.1046 15.5322 68.1337 15.5322 68.16 15.5235C68.1863 15.5147 68.2067 15.5001 68.2271 15.4826C68.2446 15.4651 68.2592 15.4418 68.2709 15.4213C68.2797 15.4009 68.2855 15.3834 68.2913 15.3659L70.4276 8.48418C70.4306 8.46959 70.4335 8.45499 70.4335 8.4404C70.4335 8.42581 70.4335 8.41122 70.4276 8.39371C70.4218 8.37911 70.416 8.3616 70.4043 8.34993C70.3926 8.33826 70.378 8.32658 70.3605 8.32074C70.343 8.31491 70.3255 8.31199 70.3051 8.30907C70.2876 8.30615 70.2671 8.30615 70.2496 8.30615H66.9488L66.9547 8.31199Z" fill="#FB0102"/>
<path d="M69.1942 7.64483C70.3551 7.46096 71.2578 6.69079 71.2104 5.92459C71.163 5.1584 70.1835 4.68633 69.0226 4.8702C67.8617 5.05407 66.9591 5.82425 67.0064 6.59044C67.0538 7.35664 68.0333 7.8287 69.1942 7.64483Z" fill="#FB0102"/>
<path fill-rule="evenodd" clip-rule="evenodd" d="M60.9923 11.5221C60.753 12.3247 60.2831 13.854 59.8162 15.3862C59.8133 15.3979 59.8133 15.4095 59.8133 15.427C59.8162 15.4446 59.822 15.465 59.8337 15.4825C59.8454 15.5 59.8658 15.5146 59.8833 15.5233C59.9008 15.5321 59.9183 15.535 59.93 15.535C59.9417 15.5379 59.9533 15.5379 59.9621 15.5379H63.2191C63.2366 15.535 63.257 15.535 63.2745 15.5321C63.292 15.5292 63.3066 15.5233 63.3242 15.5175C63.3417 15.5117 63.3592 15.5029 63.3796 15.4912C63.3971 15.4796 63.4175 15.4621 63.4321 15.4446C63.4467 15.4241 63.4613 15.4037 63.473 15.3803C64.1939 13.0748 64.9118 10.7721 65.6326 8.46653C65.6414 8.43734 65.6472 8.40816 65.6443 8.38189C65.6385 8.35562 65.6239 8.33228 65.6064 8.3206C65.5889 8.30893 65.5714 8.30893 65.5538 8.30893C65.1569 8.30893 64.76 8.30893 64.4945 8.29725C64.2318 8.28558 64.1005 8.26515 63.9779 8.23889C63.8553 8.21262 63.7444 8.18635 63.6277 8.14841C63.5109 8.11047 63.3884 8.06378 63.2804 8.02584C63.1724 7.9879 63.0819 7.96163 62.936 7.92369C62.7901 7.88575 62.5916 7.83614 62.4223 7.7982C62.2531 7.76026 62.113 7.73399 61.9175 7.70773C61.7219 7.68146 61.4739 7.65811 61.2404 7.64352C61.0069 7.63185 60.7909 7.63185 60.5633 7.64352C60.3357 7.65519 60.0934 7.68146 59.9066 7.71065C59.7199 7.73691 59.5856 7.7661 59.4543 7.80404C59.323 7.84198 59.1916 7.88575 59.0632 7.93537C58.9348 7.98498 58.8064 8.03459 58.6751 8.09588C58.5437 8.15717 58.4066 8.22721 58.2577 8.30893C58.1089 8.39065 57.9484 8.48404 57.7849 8.60077C57.6215 8.71751 57.4522 8.86052 57.283 9.00936C57.1137 9.1582 56.9444 9.3158 56.7839 9.48507C56.6205 9.65434 56.4629 9.8382 56.314 10.0571C56.1652 10.276 56.0222 10.527 55.8996 10.7575C55.777 10.9881 55.6749 11.1953 55.5903 11.385C55.5056 11.5776 55.4356 11.7527 55.3655 11.9949C55.2955 12.2401 55.2284 12.5524 55.1963 12.815C55.1642 13.0777 55.1642 13.2936 55.1758 13.4629C55.1875 13.6322 55.2138 13.7577 55.24 13.8715C55.2663 13.9853 55.2897 14.0846 55.3159 14.1721C55.3422 14.2597 55.3655 14.3385 55.3976 14.4114C55.4268 14.4873 55.4648 14.5603 55.5085 14.6332C55.5523 14.7091 55.6019 14.785 55.6574 14.8609C55.7157 14.9367 55.78 15.0126 55.8383 15.0739C55.8967 15.1381 55.9463 15.1877 56.0105 15.2373C56.0747 15.287 56.1506 15.3366 56.2381 15.3862C56.3257 15.4358 56.4278 15.4854 56.5446 15.5233C56.6613 15.5613 56.7927 15.5876 56.9269 15.6021C57.0582 15.6167 57.1925 15.6167 57.318 15.6167C57.4435 15.6167 57.5602 15.6167 57.6653 15.6051C57.7703 15.5934 57.8637 15.5671 57.9746 15.5292C58.0855 15.4912 58.211 15.4416 58.3219 15.392C58.4357 15.3424 58.535 15.2899 58.6488 15.2257C58.7597 15.1615 58.8852 15.0856 58.999 15.0097C59.1128 14.9338 59.2121 14.8579 59.3113 14.7704C59.4105 14.6828 59.5097 14.5836 59.5827 14.499C59.6586 14.4114 59.7082 14.3385 59.7607 14.2626C59.8103 14.1867 59.8629 14.1079 59.9125 14.0203C59.9621 13.9328 60.0146 13.8365 60.0526 13.7373C60.0905 13.638 60.1139 13.5359 60.1401 13.4367C60.0905 13.4629 60.0409 13.4892 59.9738 13.5155C59.9066 13.5417 59.8249 13.5651 59.7024 13.603C59.5798 13.6409 59.4193 13.6906 59.2733 13.7139C59.1274 13.7373 59.0019 13.7373 58.8998 13.7256C58.7976 13.7139 58.7218 13.6906 58.643 13.6526C58.5642 13.6147 58.4824 13.568 58.4153 13.5038C58.3453 13.4396 58.2898 13.3637 58.2519 13.2849C58.2139 13.2061 58.1964 13.1244 58.1877 13.0018C58.1789 12.8792 58.1789 12.7187 58.1935 12.5815C58.2052 12.4444 58.2315 12.3335 58.2548 12.2167C58.2811 12.1 58.3073 11.9803 58.3453 11.8578C58.3832 11.7323 58.4328 11.6039 58.4941 11.4638C58.5554 11.3237 58.6313 11.1719 58.7188 11.0231C58.8064 10.8713 58.9056 10.7196 59.0457 10.5561C59.1829 10.3927 59.3609 10.2176 59.5185 10.0921C59.6761 9.96661 59.8103 9.89073 59.9417 9.84112C60.073 9.7915 60.1985 9.76524 60.3181 9.75065C60.4378 9.73897 60.5516 9.73897 60.6625 9.75356C60.7705 9.76816 60.8727 9.79442 60.9485 9.83236C61.0244 9.8703 61.0711 9.917 61.1149 9.96661C61.1557 10.0162 61.1908 10.0658 61.2141 10.13C61.2404 10.1943 61.2579 10.2701 61.2637 10.346C61.2725 10.4219 61.2696 10.4978 61.2637 10.5736C61.255 10.6495 61.2433 10.7254 61.0011 11.528L60.9923 11.5221Z" fill="#FB0102"/>
<path fill-rule="evenodd" clip-rule="evenodd" d="M71.5895 8.31203C70.8657 10.6351 70.1449 12.9582 69.4211 15.2842C69.4153 15.3105 69.4094 15.3397 69.4094 15.3689C69.4094 15.398 69.4182 15.4301 69.4357 15.4564C69.4503 15.4827 69.4736 15.5002 69.5028 15.5119C69.532 15.5235 69.5699 15.5323 69.5962 15.5352C69.6225 15.5381 69.64 15.5381 69.6575 15.5381H72.6898C72.716 15.5381 72.7394 15.5381 72.7773 15.5294C72.8123 15.5206 72.862 15.506 72.9057 15.4827C72.9495 15.4593 72.9933 15.4243 73.0225 15.3834C73.0517 15.3426 73.0692 15.2959 73.0867 15.2463C73.4077 14.1343 73.7287 13.0195 74.0498 11.9076C74.0819 11.8142 74.114 11.7208 74.1519 11.642C74.1898 11.5632 74.2365 11.5019 74.2862 11.4464C74.3358 11.3939 74.3883 11.3472 74.4379 11.3093C74.4875 11.2684 74.5401 11.2334 74.5926 11.2042C74.648 11.1721 74.7064 11.1458 74.7735 11.1225C74.8407 11.0992 74.9195 11.0758 74.9983 11.0612C75.0741 11.0466 75.15 11.0349 75.223 11.0349C75.2959 11.0349 75.3631 11.0408 75.4214 11.0495C75.4798 11.0612 75.5236 11.0729 75.582 11.0933C75.6374 11.1137 75.7074 11.1371 75.7746 11.1604C76.3378 10.4775 76.8982 9.7946 77.4614 9.1146C77.4352 9.04164 77.4118 8.9716 77.3739 8.89864C77.3359 8.82568 77.2863 8.75563 77.2192 8.68267C77.1521 8.60971 77.0674 8.53967 76.977 8.47838C76.8865 8.42001 76.7931 8.3704 76.6968 8.33538C76.6005 8.29744 76.5042 8.26825 76.3816 8.24199C76.2619 8.21572 76.116 8.18945 75.9147 8.1807C75.7133 8.17194 75.4506 8.17778 75.2171 8.19821C74.9837 8.21864 74.7735 8.25366 74.5692 8.28284C74.365 8.31203 74.1665 8.33829 73.971 8.3558C73.7754 8.37332 73.577 8.38791 73.3814 8.39083C73.1859 8.39374 72.9904 8.39083 72.8386 8.37623C72.6868 8.36164 72.5818 8.33829 72.3833 8.32662C72.182 8.31495 71.8872 8.31495 71.5924 8.31495L71.5895 8.31203Z" fill="#FB0102"/>
<path fill-rule="evenodd" clip-rule="evenodd" d="M52.7506 5.30893C52.7068 5.50155 52.5317 5.75546 52.4442 5.92181C52.3887 5.88095 52.2983 5.76129 52.2311 5.69125C52.1436 5.60078 52.094 5.51906 52.0356 5.41108C52.1874 5.41108 52.307 5.40232 52.415 5.3819C52.5697 5.35563 52.6193 5.31769 52.7506 5.30893ZM48.2737 17.6715C48.2562 17.5519 48.2329 17.403 48.2124 17.2513L48.5977 17.225H48.6093C48.8195 17.2104 49.1726 17.1579 49.7621 16.8485C50.1211 16.6588 50.6202 16.1539 50.8507 15.827C51.2184 15.3017 51.414 14.6451 51.414 13.9709V13.9388C51.414 13.7637 51.3965 13.5915 51.3702 13.4252C51.3673 13.4135 51.3673 13.3989 51.3644 13.3872L51.3614 13.3785C51.3089 13.072 51.2126 12.7685 51.0696 12.4767C50.6581 11.6274 49.8672 11.032 48.9712 10.7927C48.7874 10.7431 48.5977 10.7081 48.405 10.6906L48.3729 10.6876L48.3438 10.6847C47.8068 10.6439 47.2552 10.7314 46.7415 10.9649C46.6919 10.9882 46.6452 11.0087 46.6014 11.032C46.2074 11.2305 45.8602 11.5077 45.5771 11.8375L45.5712 11.8463L45.5158 11.82C44.4943 11.3297 42.9884 8.48713 42.6323 7.19426C42.1917 5.59494 41.9115 2.87494 42.2705 1.21726C42.3259 0.960436 42.3959 0.598548 42.4222 0.473055C41.3862 -0.183598 39.959 0.709449 39.7985 2.73778C39.5388 6.00644 41.5438 9.42396 43.8814 11.4552C44.22 11.75 44.4797 11.9397 44.6665 12.0856L45.1685 12.4504C45.0955 12.5905 45.0313 12.7393 44.9788 12.8911C44.6198 12.678 44.3017 12.4767 43.9106 12.1819C43.5692 11.928 43.2569 11.6887 42.9388 11.4202C42.2354 10.819 41.8677 10.4046 41.2286 9.66327C40.4377 8.74687 39.0806 6.45881 39.0105 4.87408C37.4754 4.66979 36.5211 7.57074 39.3958 10.2178C41.2577 11.9338 42.4806 12.4504 44.8416 13.4397C44.8212 13.5594 44.8095 13.6791 44.8037 13.8016L44.8008 13.8337C44.4214 13.8658 43.0059 13.4135 42.6032 13.2676C38.9055 11.9251 38.0445 10.3199 37.6155 9.86756C37.0114 10.2966 36.9122 11.534 37.4462 12.249C38.351 13.4602 40.3151 14.1577 41.8473 14.3299C42.7987 14.4379 43.5312 14.4846 44.4856 14.4437L44.8358 14.4116C44.8591 14.575 44.8941 14.7355 44.9379 14.8902L44.8854 14.9019L44.8212 14.9165H44.8183C42.8074 15.328 41.214 15.2404 39.2907 14.6246C38.742 14.4495 38.0329 14.0293 37.9424 13.9797C37.7702 14.1227 37.4433 16.5713 40.7791 16.5975C41.6167 16.6034 42.4572 16.4399 43.1781 16.2094C43.8581 15.9905 44.4768 15.7249 45.1656 15.4593C45.2327 15.5877 45.3056 15.7103 45.3903 15.83L45.294 15.9175C45.2735 15.9409 45.2473 15.9613 45.221 15.9846C44.7599 16.3786 43.6246 16.8602 43.038 17.0499C41.7247 17.4731 41.1468 17.4059 39.8423 17.2542C39.9999 18.9877 41.9436 18.7776 43.0468 18.3428C44.1645 17.9021 44.9058 17.0674 45.7288 16.2444C45.8222 16.3407 45.9214 16.4312 46.0265 16.5158C45.9565 16.6734 45.8777 16.8047 45.7872 16.939C45.3086 17.6365 44.1208 18.5412 43.4174 18.8622C42.6936 19.192 42.2792 19.2125 42.1712 19.2329C42.2383 19.6852 42.7111 19.9304 43.2656 19.9275C44.9292 19.9129 46.009 17.7853 46.3125 17.1725L46.4847 16.8281C46.5956 16.8923 46.7123 16.9477 46.832 16.9973L46.7065 17.4118C46.7007 17.4293 46.6948 17.4497 46.689 17.4701V17.4731C46.616 17.7007 46.4789 18.0013 46.2512 18.3836C45.4049 19.8078 44.6373 20.0238 44.5498 20.0676C44.7424 20.4061 45.3319 20.4966 45.7755 20.3156C46.8583 19.8779 47.0217 18.2785 47.2114 17.3797L47.2581 17.1374C47.3748 17.1695 47.4916 17.1929 47.6141 17.2104L47.6171 17.225C47.8155 19.0957 46.9779 19.9975 46.9254 20.0851C47.5003 20.1843 47.9994 20.0792 48.265 19.6415C48.5218 19.2183 48.3992 18.5033 48.335 17.9867C48.9187 17.9663 49.5987 17.7678 50.0423 17.6219C51.4519 17.152 52.3858 15.9525 52.774 14.5517C52.8119 14.4174 52.8703 14.2803 52.9024 14.1373C53.1271 14.1373 53.3781 14.1139 53.3781 13.8308C53.3781 13.7695 53.3226 13.5857 53.2935 13.539C53.2059 13.3989 52.8323 13.1625 52.8323 12.7743C52.8323 12.6897 52.882 12.5496 52.8995 12.4679C53.0833 12.4533 53.3431 12.2636 53.3431 12.0593C53.3431 11.7529 52.8236 11.5924 52.6339 11.4056C52.4471 11.2188 52.2165 10.7489 52.2165 10.46C52.2165 10.2849 52.129 9.84713 52.3858 9.84713C52.6572 9.84713 53.7487 10.4046 53.7487 8.72353C53.3226 8.92782 53.0133 9.06499 52.5843 8.72936C52.0823 8.33829 52.4996 6.98705 53.4423 6.98705C53.6466 6.98705 53.7925 7.03082 53.8947 7.14756C53.9851 7.24971 54.0493 7.45984 54.0552 7.63494C54.2449 7.50945 54.382 7.3431 54.5221 7.15048C54.6068 7.03374 54.7702 6.59014 54.7702 6.40919C54.7702 6.2837 54.706 6.23992 54.7147 6.14069C54.7293 5.98018 54.9511 5.76713 54.671 5.58911C54.4492 5.44902 54.0114 5.70876 53.2614 5.33228C53.1621 5.28267 53.0541 5.20679 52.9666 5.18344C52.9695 4.99374 53.0337 4.96456 53.0337 4.77486C53.0337 4.47717 52.1056 4.10361 51.7875 3.90808C51.5657 3.77091 51.3614 3.63082 51.1863 3.45572C50.9412 3.20765 50.8215 3.00627 50.7894 2.87494C50.7398 2.8516 50.6931 2.83408 50.6172 2.83408C50.3371 2.83408 50.1269 3.04713 50.0715 3.27769C50.0102 3.21348 49.9635 3.16679 49.8759 3.10842C49.7884 3.04713 49.6921 2.99752 49.6045 2.95958C48.9771 2.69108 48.5597 2.67649 47.8914 2.32335C47.6433 2.48971 47.4361 2.7582 47.5178 3.1055C47.2026 2.93915 46.9195 2.96833 46.581 3.01795C46.3767 3.04713 45.7259 3.1376 45.5595 3.12593C45.3961 3.12593 45.1685 3.09675 45.0342 3.07048C45.0196 3.26018 44.9321 3.41486 44.9321 3.64833C44.9321 3.87889 45.0021 4.02481 45.0342 4.09194C44.649 4.09194 44.4564 4.09486 44.147 4.15614C43.826 4.22035 43.5896 4.23786 43.2656 4.22619C43.1693 4.63477 43.1547 4.83906 43.3736 5.24181C43.4524 5.38773 43.6305 5.65039 43.7063 5.72627C43.5371 5.78464 43.2306 5.84301 43.0584 5.86344C43.0584 6.34499 43.2656 7.02499 43.3911 7.47151C43.7618 8.79649 44.4155 9.90258 45.2385 10.9707C45.3202 11.0758 45.3961 11.1634 45.4778 11.2422C45.5625 11.1604 45.6238 11.1079 45.7171 11.0379C46.4876 10.4396 47.2202 10.1857 48.2708 10.1857C48.7698 10.1857 49.3827 10.3637 49.7242 10.5359C50.1853 10.7694 50.4538 10.9532 50.7982 11.3005C51.2885 11.7908 51.592 12.3774 51.7642 13.0604C52.1173 14.4466 51.6241 16.0955 50.4626 16.9331C50.2583 17.0791 50.0715 17.187 49.8409 17.3038C49.4732 17.4876 48.8107 17.6598 48.2883 17.6773L48.2737 17.6715ZM48.9362 4.86533C48.9362 4.99374 49.0559 5.2243 49.0033 5.23889C48.729 5.21554 48.5947 4.95288 48.5947 4.66104C48.5947 4.10653 49.6191 3.91391 49.7855 4.62602C49.6629 4.56473 49.4177 4.48885 49.2747 4.48885C49.1113 4.48885 48.9333 4.7019 48.9333 4.86241L48.9362 4.86533Z" fill="#FB0102"/>
</svg>
