<svg width="15" height="22" viewBox="0 0 15 22" fill="none" xmlns="http://www.w3.org/2000/svg">
<path fill-rule="evenodd" clip-rule="evenodd" d="M3.7839 1.00369C6.12484 -0.356494 9.00223 -0.33272 11.3212 1.06596C13.6174 2.49314 15.0129 5.04022 14.9999 7.78016C14.9465 10.5021 13.45 13.0608 11.5795 15.0388C10.4999 16.1855 9.29214 17.1996 7.98095 18.0601C7.84591 18.1382 7.69799 18.1905 7.54449 18.2144C7.39676 18.2081 7.25288 18.1644 7.12585 18.0874C5.12406 16.7943 3.36788 15.1437 1.9418 13.215C0.748492 11.6051 0.0705386 9.66006 1.24472e-06 7.64407C-0.00154788 4.89886 1.44297 2.36387 3.7839 1.00369ZM5.13698 8.78029C5.53076 9.75107 6.46023 10.3843 7.4914 10.3843C8.16694 10.3892 8.81632 10.1186 9.29484 9.63283C9.77337 9.14709 10.0413 8.48657 10.0389 7.79843C10.0425 6.74806 9.42411 5.79906 8.47247 5.39455C7.52083 4.99004 6.42365 5.20981 5.69322 5.95124C4.9628 6.69267 4.74321 7.80951 5.13698 8.78029Z" fill="#146C94"/>
<ellipse opacity="0.4" cx="7.49975" cy="20.3571" rx="5.35717" ry="1.07143" fill="#146C94"/>
</svg>
