<svg width="30" height="32" viewBox="0 0 30 32" fill="none" xmlns="http://www.w3.org/2000/svg">
<path d="M9.64265 11.1429C9.64265 10.9156 9.72731 10.6976 9.87801 10.5368C10.0287 10.3761 10.2331 10.2858 10.4462 10.2858H19.5534C19.7665 10.2858 19.9709 10.3761 20.1216 10.5368C20.2723 10.6976 20.3569 10.9156 20.3569 11.1429C20.3569 11.3703 20.2723 11.5883 20.1216 11.749C19.9709 11.9098 19.7665 12.0001 19.5534 12.0001H10.4462C10.2331 12.0001 10.0287 11.9098 9.87801 11.749C9.72731 11.5883 9.64265 11.3703 9.64265 11.1429ZM10.4462 1.71436C10.2331 1.71436 10.0287 1.80466 9.87801 1.96541C9.72731 2.12615 9.64265 2.34417 9.64265 2.5715C9.64265 2.79883 9.72731 3.01684 9.87801 3.17759C10.0287 3.33834 10.2331 3.42864 10.4462 3.42864H10.7141V4.5715H9.10693C8.11237 4.5715 7.15855 4.99293 6.45528 5.74307C5.75202 6.49322 5.35693 7.51063 5.35693 8.5715V24.0001C5.3567 24.9621 5.68153 25.892 6.27189 26.6193C6.86224 27.3466 7.67856 27.8226 8.57122 27.9601V28.8572C8.57122 29.0845 8.65588 29.3026 8.80658 29.4633C8.95728 29.6241 9.16167 29.7144 9.37479 29.7144C9.58791 29.7144 9.7923 29.6241 9.943 29.4633C10.0937 29.3026 10.1784 29.0845 10.1784 28.8572V28.0001H19.8212V28.8572C19.8212 29.0845 19.9059 29.3026 20.0566 29.4633C20.2073 29.6241 20.4117 29.7144 20.6248 29.7144C20.8379 29.7144 21.0423 29.6241 21.193 29.4633C21.3437 29.3026 21.4284 29.0845 21.4284 28.8572V27.9601C22.3209 27.8224 23.1371 27.3463 23.7274 26.6191C24.3177 25.8918 24.6427 24.962 24.6426 24.0001V8.5715C24.6426 7.51063 24.2476 6.49322 23.5443 5.74307C22.841 4.99293 21.8872 4.5715 20.8926 4.5715H19.2855V3.42864H19.5534C19.7665 3.42864 19.9709 3.33834 20.1216 3.17759C20.2723 3.01684 20.3569 2.79883 20.3569 2.5715C20.3569 2.34417 20.2723 2.12615 20.1216 1.96541C19.9709 1.80466 19.7665 1.71436 19.5534 1.71436H10.4462ZM17.6784 3.42864V4.5715H12.3212V3.42864H17.6784ZM9.10693 6.28578H20.8926C21.461 6.28578 22.006 6.5266 22.4079 6.95525C22.8097 7.38391 23.0355 7.96529 23.0355 8.5715V24.0001C23.0355 24.6063 22.8097 25.1877 22.4079 25.6163C22.006 26.045 21.461 26.2858 20.8926 26.2858H9.10693C8.53861 26.2858 7.99357 26.045 7.5917 25.6163C7.18984 25.1877 6.96408 24.6063 6.96408 24.0001V8.5715C6.96408 7.96529 7.18984 7.38391 7.5917 6.95525C7.99357 6.5266 8.53861 6.28578 9.10693 6.28578Z" fill="#146C94"/>
</svg>
