<svg width="29" height="28" viewBox="0 0 29 28" fill="none" xmlns="http://www.w3.org/2000/svg">
<path d="M19.3334 14.2776C19.3339 14.541 19.2356 14.7962 19.0555 14.9989L13.0138 21.7613C12.8087 21.9915 12.514 22.1362 12.1945 22.1637C11.8749 22.1912 11.5568 22.0991 11.31 21.9078C11.0633 21.7165 10.9081 21.4416 10.8786 21.1436C10.8492 20.8456 10.9479 20.5488 11.153 20.3187L16.5663 14.2776L11.3463 8.23659C11.2459 8.1213 11.171 7.98865 11.1257 7.84626C11.0805 7.70387 11.0659 7.55454 11.0827 7.40687C11.0996 7.25919 11.1476 7.11607 11.2239 6.98574C11.3002 6.85541 11.4034 6.74044 11.5275 6.64743C11.6518 6.54422 11.7975 6.46605 11.9557 6.41782C12.1138 6.36959 12.2809 6.35234 12.4466 6.36715C12.6122 6.38196 12.7727 6.42852 12.9182 6.5039C13.0636 6.57928 13.1908 6.68187 13.2917 6.80522L19.128 13.5676C19.2796 13.7762 19.352 14.0262 19.3334 14.2776Z" fill="white"/>
</svg>
