<svg width="27" height="24" viewBox="0 0 27 24" fill="none" xmlns="http://www.w3.org/2000/svg">
<path fill-rule="evenodd" clip-rule="evenodd" d="M13.2912 4C8.44438 4 4.51527 7.58172 4.51527 12C4.51527 16.4183 8.44438 20 13.2912 20C18.138 20 22.0671 16.4183 22.0671 12C22.0671 7.58172 18.138 4 13.2912 4ZM2.32129 12C2.32129 6.47715 7.23268 2 13.2912 2C19.3497 2 24.2611 6.47715 24.2611 12C24.2611 17.5228 19.3497 22 13.2912 22C7.23268 22 2.32129 17.5228 2.32129 12ZM12.5155 9.70711C12.0871 9.31658 12.0871 8.68342 12.5155 8.29289C12.9439 7.90237 13.6385 7.90237 14.0669 8.29289L17.3578 11.2929C17.7863 11.6834 17.7863 12.3166 17.3578 12.7071L14.0669 15.7071C13.6385 16.0976 12.9439 16.0976 12.5155 15.7071C12.0871 15.3166 12.0871 14.6834 12.5155 14.2929L13.9338 13H10.0002C9.39437 13 8.90323 12.5523 8.90323 12C8.90323 11.4477 9.39437 11 10.0002 11H13.9338L12.5155 9.70711Z" fill="white"/>
</svg>
