<svg width="21" height="15" viewBox="0 0 21 15" fill="none" xmlns="http://www.w3.org/2000/svg">
<path d="M18.75 6.27917C18.2772 6.09467 17.7664 5.9996 17.25 6H3.75C3.23368 5.99956 2.72288 6.09448 2.25 6.27875C1.58166 6.53855 1.01294 6.96579 0.613357 7.50826C0.213775 8.05073 0.000638647 8.68493 0 9.33333V14C0 14.1768 0.0790176 14.3464 0.21967 14.4714C0.360322 14.5964 0.551088 14.6667 0.75 14.6667C0.948912 14.6667 1.13968 14.5964 1.28033 14.4714C1.42098 14.3464 1.5 14.1768 1.5 14V13.6667C1.50122 13.5786 1.54112 13.4944 1.61118 13.4322C1.68124 13.3699 1.77592 13.3344 1.875 13.3333H19.125C19.2241 13.3344 19.3188 13.3699 19.3888 13.4322C19.4589 13.4944 19.4988 13.5786 19.5 13.6667V14C19.5 14.1768 19.579 14.3464 19.7197 14.4714C19.8603 14.5964 20.0511 14.6667 20.25 14.6667C20.4489 14.6667 20.6397 14.5964 20.7803 14.4714C20.921 14.3464 21 14.1768 21 14V9.33333C20.9993 8.685 20.7861 8.05089 20.3865 7.50851C19.9869 6.96612 19.4183 6.53894 18.75 6.27917ZM16.125 0H4.875C4.17881 0 3.51113 0.245833 3.01884 0.683418C2.52656 1.121 2.25 1.71449 2.25 2.33333V5.33333C2.25002 5.35916 2.25679 5.38463 2.26979 5.40773C2.28278 5.43083 2.30163 5.45094 2.32486 5.46645C2.34809 5.48197 2.37505 5.49247 2.40363 5.49714C2.43221 5.5018 2.46162 5.5005 2.48953 5.49333C2.89896 5.38689 3.32341 5.33301 3.75 5.33333H3.94828C3.99456 5.33359 4.03932 5.31863 4.07393 5.29132C4.10855 5.26402 4.13058 5.22629 4.13578 5.18542C4.17669 4.85966 4.35115 4.55872 4.62586 4.34005C4.90056 4.12139 5.25625 4.00033 5.625 4H8.25C8.61899 4.00003 8.97503 4.12094 9.25002 4.33964C9.52502 4.55833 9.69969 4.85945 9.74063 5.18542C9.74583 5.22629 9.76786 5.26402 9.80247 5.29132C9.83709 5.31863 9.88184 5.33359 9.92813 5.33333H11.0747C11.121 5.33359 11.1657 5.31863 11.2003 5.29132C11.235 5.26402 11.257 5.22629 11.2622 5.18542C11.3031 4.85988 11.4773 4.5591 11.7517 4.34047C12.0261 4.12184 12.3815 4.00064 12.75 4H15.375C15.744 4.00003 16.1 4.12094 16.375 4.33964C16.65 4.55833 16.8247 4.85945 16.8656 5.18542C16.8708 5.22629 16.8929 5.26402 16.9275 5.29132C16.9621 5.31863 17.0068 5.33359 17.0531 5.33333H17.25C17.6766 5.33315 18.1011 5.38717 18.5105 5.49375C18.5384 5.50093 18.5679 5.50222 18.5965 5.49754C18.6251 5.49285 18.6521 5.48231 18.6753 5.46674C18.6986 5.45118 18.7174 5.43102 18.7304 5.40787C18.7433 5.38471 18.7501 5.3592 18.75 5.33333V2.33333C18.75 1.71449 18.4734 1.121 17.9812 0.683418C17.4889 0.245833 16.8212 0 16.125 0Z" fill="#146C94"/>
</svg>
