<svg width="66" height="66" viewBox="0 0 66 66" fill="none" xmlns="http://www.w3.org/2000/svg">
<path d="M0 28.8721C0 31.1538 1.84336 32.9971 4.125 32.9971C6.40664 32.9971 8.25 31.1538 8.25 28.8721C8.25 22.0401 13.793 16.4971 20.625 16.4971H41.25V20.6221C41.25 22.285 42.2555 23.7932 43.8023 24.4378C45.3492 25.0823 47.1152 24.7214 48.3012 23.5483L56.5512 15.2983C58.1625 13.687 58.1625 11.0702 56.5512 9.45885L48.3012 1.20885C47.1152 0.0229168 45.3492 -0.32513 43.8023 0.319401C42.2555 0.963932 41.25 2.45925 41.25 4.12214V8.24714H20.625C9.22969 8.24714 0 17.4768 0 28.8721ZM66 37.1221C66 34.8405 64.1566 32.9971 61.875 32.9971C59.5934 32.9971 57.75 34.8405 57.75 37.1221C57.75 43.9542 52.207 49.4971 45.375 49.4971H24.75V45.3721C24.75 43.7092 23.7445 42.201 22.1977 41.5565C20.6508 40.912 18.8848 41.2729 17.6988 42.446L9.44883 50.696C7.8375 52.3073 7.8375 54.9241 9.44883 56.5354L17.6988 64.7854C18.8848 65.9714 20.6508 66.3194 22.1977 65.6749C23.7445 65.0303 24.75 63.535 24.75 61.8592V57.7471H45.375C56.7703 57.7471 66 48.5174 66 37.1221Z" fill="white"/>
</svg>
