<svg width="38" height="36" viewBox="0 0 38 36" fill="none" xmlns="http://www.w3.org/2000/svg">
<mask id="mask0_43_1802" style="mask-type:alpha" maskUnits="userSpaceOnUse" x="7" y="2" width="23" height="31">
<path fill-rule="evenodd" clip-rule="evenodd" d="M23.5037 2.93457H13.8541V3.22384V10.6598C13.8541 11.3915 14.257 11.7233 15.1333 11.7233H22.2345C23.131 11.7233 23.5238 11.4 23.5238 10.6428V3.24086C23.5238 3.13876 23.5138 3.03667 23.5037 2.93457ZM15.9391 10.0047C15.9291 9.74096 16.1909 9.51125 16.5032 9.51125C16.8054 9.51125 17.0773 9.73246 17.0975 9.9877C17.0975 10.2429 16.8356 10.4812 16.5233 10.4812C16.2111 10.4897 15.9391 10.2685 15.9391 10.0047ZM20.8949 9.51125C21.2071 9.51976 21.459 9.74947 21.4489 10.0132C21.4388 10.277 21.1668 10.4982 20.8647 10.4897C20.5524 10.4812 20.2905 10.2429 20.3006 9.9877C20.3107 9.72395 20.5927 9.50274 20.8949 9.51125ZM18.699 9.51976C19.0012 9.51976 19.2732 9.74947 19.2631 10.0132C19.2631 10.2685 18.9911 10.4897 18.6789 10.4897C18.3666 10.4897 18.1048 10.26 18.1148 9.9962C18.1148 9.73246 18.3868 9.51125 18.699 9.51976ZM24.4304 2.99413C25.5787 3.0707 26.5356 4.02359 26.5457 5.10411C26.5524 6.43104 26.5501 7.75419 26.5479 9.0786C26.5468 9.74128 26.5457 10.4043 26.5457 11.0682V13.9354V14.2672L26.4648 14.2701L26.404 14.272C26.2438 14.277 26.1026 14.2814 25.9614 14.3013C24.9945 14.4289 24.2994 15.101 24.2894 15.9348C24.2827 16.5514 24.2849 17.1642 24.2871 17.7832V17.7836C24.2882 18.0955 24.2894 18.409 24.2894 18.7254H13.1087V16.2411C13.1087 16.2056 13.1091 16.1699 13.1095 16.1339V16.1338V16.1337V16.1336V16.1336C13.1111 15.9883 13.1128 15.8397 13.0886 15.6966C12.9475 14.8883 12.1619 14.3098 11.1949 14.2757H10.8726L10.8685 14.2316C10.86 14.1397 10.8524 14.0588 10.8524 13.9779V5.13814C10.8524 4.11718 11.5777 3.2834 12.6857 3.00263C12.7562 2.98562 12.8267 2.97711 12.9677 2.96009V3.34295V10.6513C12.9677 11.8169 13.7634 12.489 15.1434 12.489H22.2849C23.6447 12.489 24.4505 11.8169 24.4505 10.6683V3.33445C24.4304 3.22384 24.4304 3.10473 24.4304 2.99413ZM18.699 28.952H9.10986C8.20332 28.952 7.82056 28.6287 7.82056 27.8715V16.1049C7.82056 15.3903 8.22346 15.05 9.05949 15.0414H11.0237C11.769 15.05 12.1921 15.3988 12.1921 16.0284V21.482C12.1921 21.9499 12.313 22.0605 12.8871 22.0605H24.521C25.065 22.0605 25.1959 21.9499 25.1959 21.499V16.1049C25.1959 15.3733 25.5887 15.0414 26.4651 15.0329H28.389C29.1545 15.0414 29.5675 15.3903 29.5775 16.0454V27.914C29.5775 28.6032 29.1645 28.9435 28.3386 28.9435C25.1161 28.952 21.9137 28.952 18.7012 28.952H18.699ZM18.6588 27.1228H21.5597C21.8719 27.1228 22.1137 27.0547 22.154 26.757C22.1842 26.5102 21.9525 26.3571 21.5597 26.3571H15.8283C15.4355 26.3571 15.2139 26.5017 15.2139 26.7399C15.2139 26.9867 15.4254 27.1143 15.8283 27.1228H18.6588ZM13.0986 31.5044V29.7347H24.2692V31.5044H24.6923H28.2782C28.3078 31.5044 28.3404 31.5026 28.3736 31.5007H28.3736C28.4642 31.4956 28.5589 31.4903 28.6105 31.5214C28.7516 31.615 28.9429 31.7597 28.9429 31.8873C28.9429 32.0149 28.7616 32.1595 28.6105 32.2446C28.5435 32.2887 28.4268 32.2815 28.3176 32.2748C28.2792 32.2724 28.2417 32.2701 28.2076 32.2701H9.18037H9.10986C8.64651 32.2701 8.42491 32.1425 8.43499 31.8788C8.44506 31.6235 8.64651 31.5044 9.09978 31.5044H12.6454H13.0986ZM24.2592 21.2778V19.5337H13.1289V21.2778H24.2592Z" fill="black"/>
</mask>
<g mask="url(#mask0_43_1802)">
<rect x="0.050293" width="37.2977" height="35.2143" fill="white"/>
</g>
</svg>
