<svg width="52" height="59" viewBox="0 0 52 59" fill="none" xmlns="http://www.w3.org/2000/svg">
<path d="M31.6466 12.4837C32.1867 13.0184 32.919 13.3187 33.6824 13.3187C34.4459 13.3187 35.1781 13.0184 35.7182 12.4837L38.4839 9.74283V48.5339C38.4839 49.2911 38.7874 50.0173 39.3277 50.5527C39.868 51.0882 40.6008 51.389 41.3648 51.389C42.1289 51.389 42.8617 51.0882 43.4019 50.5527C43.9422 50.0173 44.2457 49.2911 44.2457 48.5339V9.74283L47.0114 12.4837C47.2751 12.7642 47.5932 12.9892 47.9466 13.1453C48.3 13.3013 48.6815 13.3852 49.0683 13.392C49.4551 13.3987 49.8393 13.3282 50.198 13.1846C50.5568 13.041 50.8826 12.8273 51.1562 12.5562C51.4298 12.2851 51.6454 11.9621 51.7903 11.6066C51.9352 11.2511 52.0064 10.8703 51.9996 10.487C51.9927 10.1036 51.9081 9.72556 51.7506 9.37533C51.5931 9.02511 51.3661 8.70991 51.0831 8.44853L43.4007 0.834978C42.8605 0.300314 42.1283 0 41.3648 0C40.6014 0 39.8692 0.300314 39.329 0.834978L31.6466 8.44853C31.1071 8.98386 30.804 9.70952 30.804 10.4661C30.804 11.2227 31.1071 11.9484 31.6466 12.4837ZM13.5161 49.2572L16.2818 46.5163C16.5455 46.2358 16.8635 46.0108 17.2169 45.8547C17.5703 45.6987 17.9518 45.6148 18.3386 45.608C18.7255 45.6013 19.1097 45.6718 19.4684 45.8154C19.8271 45.959 20.153 46.1727 20.4266 46.4438C20.7001 46.7149 20.9158 47.0379 21.0607 47.3934C21.2056 47.7489 21.2767 48.1297 21.2699 48.513C21.2631 48.8964 21.1784 49.2744 21.021 49.6247C20.8635 49.9749 20.6365 50.2901 20.3534 50.5515L12.671 58.165C12.1308 58.6997 11.3986 59 10.6352 59C9.87174 59 9.13951 58.6997 8.59934 58.165L0.916926 50.5515C0.63388 50.2901 0.406857 49.9749 0.249398 49.6247C0.0919394 49.2744 0.00727335 48.8964 0.000448355 48.513C-0.00637664 48.1297 0.0647794 47.7489 0.209674 47.3934C0.354568 47.0379 0.570231 46.7149 0.843797 46.4438C1.11736 46.1727 1.44323 45.959 1.80195 45.8154C2.16067 45.6718 2.54491 45.6013 2.93173 45.608C3.31855 45.6148 3.70003 45.6987 4.05342 45.8547C4.40681 46.0108 4.72486 46.2358 4.98861 46.5163L7.75427 49.2572V10.4661C7.75427 9.70891 8.0578 8.9827 8.59807 8.44727C9.13834 7.91184 9.87111 7.61104 10.6352 7.61104C11.3992 7.61104 12.132 7.91184 12.6723 8.44727C13.2126 8.9827 13.5161 9.70891 13.5161 10.4661V49.2572Z" fill="#0064D2"/>
</svg>
