<svg width="45" height="51" viewBox="0 0 45 51" fill="none" xmlns="http://www.w3.org/2000/svg">
<path d="M27.2162 11.1589C27.6674 11.6095 28.279 11.8626 28.9166 11.8626C29.5543 11.8626 30.1659 11.6095 30.617 11.1589L32.927 8.84891V41.5418C32.927 42.18 33.1806 42.792 33.6318 43.2433C34.0831 43.6946 34.6951 43.9481 35.3333 43.9481C35.9715 43.9481 36.5835 43.6946 37.0348 43.2433C37.486 42.792 37.7395 42.18 37.7395 41.5418V8.84891L40.0495 11.1589C40.2698 11.3953 40.5355 11.5849 40.8307 11.7165C41.1258 11.848 41.4444 11.9187 41.7675 11.9244C42.0906 11.9301 42.4115 11.8707 42.7112 11.7496C43.0108 11.6286 43.283 11.4485 43.5115 11.22C43.74 10.9915 43.9201 10.7193 44.0411 10.4197C44.1621 10.1201 44.2216 9.79916 44.2159 9.47607C44.2102 9.15298 44.1394 8.83435 44.0079 8.53918C43.8764 8.24402 43.6868 7.97837 43.4504 7.75808L37.0337 1.34141C36.5825 0.890799 35.971 0.637695 35.3333 0.637695C34.6956 0.637695 34.0841 0.890799 33.6329 1.34141L27.2162 7.75808C26.7656 8.20925 26.5125 8.82084 26.5125 9.45849C26.5125 10.0962 26.7656 10.7077 27.2162 11.1589ZM12.0729 42.1514L14.3829 39.8414C14.6032 39.605 14.8688 39.4154 15.164 39.2839C15.4592 39.1523 15.7778 39.0816 16.1009 39.0759C16.424 39.0702 16.7449 39.1297 17.0445 39.2507C17.3441 39.3717 17.6163 39.5518 17.8448 39.7803C18.0733 40.0088 18.2534 40.281 18.3744 40.5806C18.4955 40.8802 18.5549 41.2012 18.5492 41.5243C18.5435 41.8473 18.4728 42.166 18.3413 42.4611C18.2097 42.7563 18.0201 43.022 17.7837 43.2422L11.367 49.6589C10.9159 50.1095 10.3043 50.3626 9.66663 50.3626C9.02897 50.3626 8.41739 50.1095 7.96621 49.6589L1.54955 43.2422C1.31313 43.022 1.12351 42.7563 0.991999 42.4611C0.860483 42.166 0.789766 41.8473 0.784066 41.5243C0.778365 41.2012 0.837798 40.8802 0.958819 40.5806C1.07984 40.281 1.25997 40.0088 1.48847 39.7803C1.71696 39.5518 1.98913 39.3717 2.28875 39.2507C2.58837 39.1297 2.9093 39.0702 3.23239 39.0759C3.55548 39.0816 3.87411 39.1523 4.16927 39.2839C4.46444 39.4154 4.73009 39.605 4.95038 39.8414L7.26038 42.1514V9.45849C7.26038 8.82032 7.51389 8.20828 7.96515 7.75702C8.41641 7.30576 9.02845 7.05224 9.66663 7.05224C10.3048 7.05224 10.9168 7.30576 11.3681 7.75702C11.8194 8.20828 12.0729 8.82032 12.0729 9.45849V42.1514Z" fill="#0064D2"/>
</svg>
