<svg width="24" height="24" viewBox="0 0 24 24" fill="none" xmlns="http://www.w3.org/2000/svg">
<path d="M8.74755 0.000410445C8.05246 0.000410445 7.50165 0.360392 7.50165 0.806082V3.97734C7.50165 4.08873 7.43394 4.19555 7.31343 4.27431C7.19291 4.35307 7.02946 4.39732 6.85902 4.39732C6.68859 4.39732 6.52513 4.35307 6.40462 4.27431C6.2841 4.19555 6.2164 4.08873 6.2164 3.97734V0.840366C6.2164 0.394675 5.69181 0.00898142 5.02296 0.000410445C4.85779 -0.00303642 4.69324 0.0152552 4.5391 0.0541979C4.38496 0.0931406 4.24437 0.151939 4.1257 0.227099C4.00703 0.302259 3.91268 0.392245 3.84828 0.491708C3.78388 0.591171 3.75074 0.698081 3.75083 0.806082V3.97734C3.75083 4.08873 3.68312 4.19555 3.56261 4.27431C3.44209 4.35307 3.27864 4.39732 3.1082 4.39732C2.93777 4.39732 2.77432 4.35307 2.6538 4.27431C2.53329 4.19555 2.46558 4.08873 2.46558 3.97734V0.840366C2.46558 0.394675 1.94099 0.00898142 1.27214 0.000410445C1.10697 -0.00303642 0.94242 0.0152552 0.788281 0.0541979C0.634141 0.0931406 0.493555 0.151939 0.37488 0.227099C0.256205 0.302259 0.161864 0.392245 0.0974654 0.491708C0.0330663 0.591171 -7.61564e-05 0.698081 8.02754e-06 0.806082V6.22294C-0.00137476 6.72647 0.175905 7.22336 0.517921 7.67456C0.859937 8.12577 1.35737 8.519 1.97116 8.82337C3.08197 9.35477 3.08197 11.0664 3.08197 11.0664V22.8943C3.08197 23.5029 3.84263 24 4.77378 24H5.19345C6.1246 24 6.88525 23.5029 6.88525 22.8943V11.057C6.88525 11.057 6.88525 9.31106 7.97902 8.82252C8.59736 8.51861 9.09893 8.12479 9.44402 7.67224C9.78911 7.21969 9.96824 6.72085 9.96722 6.21523V0.806082C9.97002 0.700498 9.94048 0.595614 9.88035 0.497601C9.82021 0.399587 9.73068 0.310423 9.61704 0.235355C9.5034 0.160286 9.36793 0.100829 9.21861 0.060481C9.06929 0.0201329 8.90913 -0.000291141 8.74755 0.000410445ZM21.0623 0.000410445C22.6885 0.000410445 24 0.857508 24 1.92031V13.6197L23.9869 13.6171V22.8858C23.9869 23.4943 23.2262 23.9914 22.2951 23.9914H21.8754C20.9443 23.9914 20.1836 23.4943 20.1836 22.8858V12.7172C19.1853 12.4205 18.339 11.9421 17.7459 11.3393C17.1528 10.7364 16.838 10.0346 16.8393 9.31792V2.76026C16.8262 1.23463 18.7279 0.000410445 21.0623 0.000410445Z" fill="#146C94"/>
</svg>
