<svg width="78" height="29" viewBox="0 0 78 29" fill="none" xmlns="http://www.w3.org/2000/svg">
<path fill-rule="evenodd" clip-rule="evenodd" d="M0.538574 26.7925H53.7911L52.7344 28.4408H0.538574V26.7925Z" fill="#FCB130"/>
<path fill-rule="evenodd" clip-rule="evenodd" d="M63.4901 26.0455H61.5318L65.4846 19.8068C65.4846 19.8068 66.0764 18.5134 65.3022 17.1475L59.792 8.02175C59.792 8.02175 59.3096 7.1745 59.792 6.36395L61.4224 3.92285L67.8888 14.4879C67.8888 14.4879 69.5556 16.7011 67.743 19.4424L63.4901 26.0455Z" fill="#FCB130"/>
<path fill-rule="evenodd" clip-rule="evenodd" d="M68.2169 24.1328L70.6215 20.4715C70.6215 20.4715 71.3226 18.9594 73.1351 18.9594H75.6852L77.4613 21.7649C77.4613 21.7649 76.0584 21.6192 75.4301 22.6211L72.8074 26.5737C72.8074 26.5737 71.9512 28.4227 69.6652 28.4227H57.3153L62.0149 21.2093C62.0149 21.2093 62.6793 20.3625 61.7505 18.9598L57.5701 12.2383C57.5701 12.2383 56.5411 11.2458 57.6063 9.54268L58.8272 7.69345L64.6378 17.1106C64.6378 17.1106 65.6668 18.404 64.6378 19.9524L60.2751 26.7556H69.4738C69.4738 26.7556 70.512 26.9469 71.4046 25.6172L73.6905 22.1018C73.6905 22.1018 74.2096 20.9176 75.3573 20.435H73.5085C73.5085 20.435 72.543 20.4715 71.8055 21.6189L69.7747 24.7611C69.7747 24.7611 69.0367 26.0908 67.4063 26.0908H64.1914L68.0712 20.0706C68.0712 20.0706 70.1844 17.293 68.6997 14.7427L62.2696 4.10532C62.2696 4.10532 61.7872 3.1851 62.3426 2.32905L63.7448 0.225098L71.0674 12.0196C71.0674 12.0196 72.1424 13.7866 72.1424 15.1526C72.1424 16.5187 71.2863 18.0671 70.8123 18.8504L67.5883 23.8778C67.5883 23.8778 67.2241 24.3605 67.4793 24.5427C67.7433 24.7247 67.9984 24.3967 68.2169 24.1326" fill="#FCB130"/>
<path fill-rule="evenodd" clip-rule="evenodd" d="M27.3514 19.0143H28.4899V23.5227H31.2677V24.4882H27.3512V19.0143M32.1419 24.4882H33.2712V19.0143H32.1419V24.4882ZM18.2802 24.4882H19.4004V19.0143H18.2802V24.4882ZM41.3494 19.0143H45.6395V19.9161H42.4879V21.255H45.1657V22.2477H42.4879V23.5774H45.6395V24.4882H41.3494V19.0143ZM47.3879 11.6556H51.6778V12.5572H48.5268V13.8868H51.2134V14.8796H48.5268V16.2093H51.6778V17.1108H47.3879V11.6556ZM21.14 24.4882V19.0143H24.3914C24.3914 19.0143 25.9578 19.0416 25.9578 20.6082C25.9578 20.6082 26.1035 21.9106 24.774 22.4387L26.4224 24.4879H25.0197L22.7428 21.6462H23.927C23.927 21.6462 24.774 21.6282 24.774 20.7721C24.774 19.9613 24.091 19.8976 23.8815 19.8976H22.2784V24.4879H21.14M41.1492 17.111V11.6554H44.4006C44.4006 11.6554 45.9672 11.6824 45.9672 13.2495C45.9672 13.2495 46.1037 14.5422 44.7833 15.0706L46.4316 17.1106H45.0292L42.7523 14.2875H43.9362C43.9362 14.2875 44.7833 14.2693 44.7833 13.413C44.7833 12.5932 44.1004 12.5385 43.891 12.5385H42.2879V17.111H41.1492ZM18.3622 16.1638H19.9011V13.6594H20.994V17.1108H18.1252C17.6971 17.1108 15.6299 16.6282 15.6116 14.4515C15.5934 12.2932 17.4786 11.6556 18.2072 11.6556H21.0215V12.6209H18.4806C18.4806 12.6209 16.7773 12.6209 16.7773 14.415C16.7773 15.8084 18.189 16.1635 18.3619 16.1635M34.7558 19.0143H35.9035V19.8616L36.623 19.0145H37.98C37.98 19.0145 39.8378 18.9143 39.8378 20.8998V24.4882H38.6813V20.7264C38.6813 20.7264 38.6448 19.9796 37.8615 19.9796H35.9035V24.4879H34.7558V19.0143ZM9.49139 11.6556H10.6299V12.4932L11.3492 11.6556H12.7063C12.7063 11.6556 14.5734 11.5554 14.5734 13.5407V17.1108H13.4164V13.3682C13.4164 13.3682 13.3712 12.6213 12.5879 12.6213H10.6296V17.111H9.49139V11.6556ZM6.79556 17.111H7.91578V11.6552H6.79556V17.111ZM46.8872 24.4791V23.5501H50.0564C50.0564 23.5501 50.685 23.6684 50.685 22.9033C50.685 22.1385 50.2114 22.2205 50.0386 22.2205H48.2079C48.2079 22.2205 46.7962 22.3205 46.7962 20.6631C46.7962 19.0145 48.1896 19.0145 48.1896 19.0145H51.6685V19.9798H48.6173C48.6173 19.9798 47.9525 19.9798 47.9525 20.6084C47.9525 21.2369 48.3989 21.355 48.8178 21.355H50.4483C50.4483 21.355 51.8235 21.2093 51.8235 22.8486C51.8235 24.4882 50.4118 24.4791 50.4118 24.4791H46.8872ZM0.657102 17.111V16.182H3.82633C3.82633 16.182 4.4549 16.3005 4.4549 15.5354C4.4549 14.7704 3.98106 14.8523 3.80809 14.8523H1.97732C1.97732 14.8523 0.565674 14.9523 0.565674 13.304C0.565674 11.6464 1.9593 11.6556 1.9593 11.6556H5.43842V12.6209H2.38721C2.38721 12.6209 1.72238 12.6209 1.72238 13.2495C1.72238 13.8774 2.17798 13.9961 2.58765 13.9961H4.21798C4.21798 13.9961 5.59315 13.8504 5.59315 15.4805C5.59315 17.1196 4.1815 17.1106 4.1815 17.1106H0.656883" fill="#1D4886"/>
<path d="M37.2559 11.3189C35.6146 11.3189 34.2732 12.6567 34.2732 14.3044C34.2732 15.9584 35.6146 17.2846 37.2557 17.2846C37.6476 17.2863 38.0361 17.2104 38.3986 17.0613C38.7611 16.9122 39.0905 16.6928 39.3678 16.4157C39.6451 16.1387 39.8648 15.8095 40.0143 15.4471C40.1637 15.0847 40.2399 14.6963 40.2385 14.3044C40.2398 13.9122 40.1636 13.5236 40.0142 13.161C39.8648 12.7984 39.6452 12.4688 39.368 12.1914C39.0908 11.9139 38.7615 11.694 38.3991 11.5443C38.0366 11.3945 37.6481 11.3179 37.2559 11.3189ZM37.2559 16.1863C36.226 16.1863 35.3935 15.3468 35.3935 14.3044C35.3935 13.276 36.2271 12.4202 37.2559 12.4202C38.2932 12.4202 39.1431 13.276 39.1431 14.3044C39.1431 15.3468 38.2932 16.1863 37.2559 16.1863ZM25.524 11.6556H24.3196L21.7227 17.1114H23.0029L23.6937 15.5426H26.1675L26.8497 17.1114H28.1256M24.0108 14.7391L24.9229 12.5054L25.8245 14.7336L24.0108 14.7391ZM14.8592 19.0151H13.6548L11.0579 24.4885H12.3379L13.0286 22.9147H15.5023L16.1845 24.4885H17.4603M13.346 22.1085L14.2581 19.8676L15.1596 22.1033L13.346 22.1085ZM31.8664 11.6556H28.8357V17.1114H29.9983V14.4619L30.6702 15.3863H31.8664C32.9148 15.3863 33.6172 14.5149 33.6172 13.5211C33.6172 12.5305 32.9148 11.6556 31.8664 11.6556ZM31.8253 14.3753H29.9972V12.6593H31.8253C32.2357 12.6593 32.5161 13.1129 32.5161 13.523C32.5172 13.9454 32.237 14.3753 31.8253 14.3753Z" fill="#1D4886"/>
</svg>
