<svg width="17" height="17" viewBox="0 0 17 17" fill="none" xmlns="http://www.w3.org/2000/svg">
<path d="M9.79574 2.06697L11.1156 4.68879C11.2956 5.05377 11.7755 5.40383 12.1805 5.47087L14.5727 5.86563C16.1025 6.11887 16.4625 7.22122 15.3601 8.30867L13.5003 10.1559C13.1854 10.4687 13.0129 11.072 13.1104 11.504L13.6428 13.7907C14.0628 15.6006 13.0954 16.3007 11.483 15.3548L9.2408 14.0364C8.83584 13.7981 8.16842 13.7981 7.75597 14.0364L5.51369 15.3548C3.90887 16.3007 2.93398 15.5932 3.35394 13.7907L3.88638 11.504C3.98387 11.072 3.81138 10.4687 3.49642 10.1559L1.63663 8.30867C0.541751 7.22122 0.894211 6.11887 2.42404 5.86563L4.81627 5.47087C5.21373 5.40383 5.69367 5.05377 5.87365 4.68879L7.19353 2.06697C7.91345 0.644342 9.08332 0.644342 9.79574 2.06697Z" fill="#FCB130" stroke="#FCB130" stroke-width="0.5" stroke-linecap="round" stroke-linejoin="round"/>
</svg>
