<svg width="200" height="200" viewBox="0 0 200 200" fill="none" xmlns="http://www.w3.org/2000/svg">
<circle cx="100" cy="100" r="100" fill="#68E49B" fill-opacity="0.1"/>
<circle cx="100" cy="100" r="85" fill="#68E49B" fill-opacity="0.1"/>
<circle cx="100" cy="100" r="70" fill="#68E49B"/>
<path d="M126.931 87.5474L91.5695 121.58C89.2621 123.8 88.7766 126.933 90.4852 128.578C92.1937 130.222 95.4493 129.755 97.7567 127.534L133.118 93.502C135.426 91.2814 135.911 88.1482 134.202 86.5039C132.494 84.8596 129.238 85.3268 126.931 87.5474Z" fill="white"/>
<path d="M72.7364 111.563L89.81 127.995C91.8539 129.962 94.8958 130.223 96.6043 128.579C98.3129 126.935 98.0411 124.007 95.9972 122.04L78.9236 105.608C76.8797 103.641 73.8378 103.38 72.1292 105.024C70.4207 106.668 70.6925 109.596 72.7364 111.563Z" fill="white"/>
</svg>
