<svg width="45" height="45" viewBox="0 0 45 45" fill="none" xmlns="http://www.w3.org/2000/svg">
<circle cx="22.5" cy="22.5" r="22.5" fill="white"/>
<path d="M22.2244 25.8463C22.1871 25.8463 22.1313 25.8463 22.0941 25.8463C22.0383 25.8463 21.9639 25.8463 21.9081 25.8463C17.6848 25.7161 14.522 22.4231 14.522 18.3673C14.522 14.2371 17.8894 10.8696 22.0197 10.8696C26.1499 10.8696 29.5174 14.2371 29.5174 18.3673C29.4988 22.4417 26.3174 25.7161 22.2802 25.8463C22.243 25.8463 22.243 25.8463 22.2244 25.8463ZM22.0011 13.6417C19.3964 13.6417 17.2941 15.7626 17.2941 18.3487C17.2941 20.8975 19.2848 22.9626 21.8151 23.0557C21.8709 23.0371 22.0569 23.0371 22.243 23.0557C24.736 22.9254 26.6895 20.8789 26.7081 18.3487C26.7081 15.7626 24.6057 13.6417 22.0011 13.6417Z" fill="#19A7CE"/>
<path d="M22.0015 43.0001C16.9968 43.0001 12.2155 41.1397 8.51313 37.7536C8.17824 37.456 8.02941 37.0095 8.06662 36.5816C8.30848 34.3676 9.68522 32.3025 11.9736 30.7769C17.5178 27.0932 26.5038 27.0932 32.0294 30.7769C34.3178 32.3211 35.6945 34.3676 35.9364 36.5816C35.9922 37.0281 35.8247 37.456 35.4899 37.7536C31.7875 41.1397 27.0061 43.0001 22.0015 43.0001ZM10.9875 36.2095C14.0759 38.7955 17.9643 40.2095 22.0015 40.2095C26.0387 40.2095 29.9271 38.7955 33.0154 36.2095C32.6805 35.0746 31.7875 33.9769 30.4666 33.0839C25.8899 30.0328 18.1317 30.0328 13.5178 33.0839C12.1968 33.9769 11.3224 35.0746 10.9875 36.2095Z" fill="#19A7CE"/>
<path d="M22 42.9998C10.9674 42.9998 2 34.0324 2 22.9999C2 11.9674 10.9674 3 22 3C33.0326 3 42 11.9674 42 22.9999C42 34.0324 33.0326 42.9998 22 42.9998ZM22 5.79068C12.5116 5.79068 4.7907 13.5116 4.7907 22.9999C4.7907 32.4882 12.5116 40.2091 22 40.2091C31.4884 40.2091 39.2093 32.4882 39.2093 22.9999C39.2093 13.5116 31.4884 5.79068 22 5.79068Z" fill="#19A7CE"/>
</svg>
