<svg width="25" height="21" viewBox="0 0 25 21" fill="none" xmlns="http://www.w3.org/2000/svg">
<path d="M12.4997 20.8331L16.6663 15.2776C15.5089 14.4095 14.0622 13.8887 12.4997 13.8887C10.9372 13.8887 9.49042 14.4095 8.33301 15.2776L12.4997 20.8331Z" fill="#146C94"/>
<path d="M12.4993 6.94434C9.37435 6.94434 6.4924 7.97443 4.16602 9.72211L6.24935 12.4999C7.98546 11.192 10.1498 10.4166 12.4993 10.4166C14.8489 10.4166 17.0132 11.192 18.7493 12.4999L20.8327 9.72211C18.5063 7.97443 15.6243 6.94434 12.4993 6.94434Z" fill="#146C94"/>
<path d="M12.5 0C7.8125 0 3.4838 1.55093 0 4.16667L2.08333 6.94444C4.97685 4.76852 8.58796 3.47222 12.5 3.47222C16.412 3.47222 20.0231 4.76852 22.9167 6.94444L25 4.16667C21.5162 1.55093 17.1875 0 12.5 0Z" fill="#146C94"/>
</svg>
