<svg width="30" height="30" viewBox="0 0 30 30" fill="none" xmlns="http://www.w3.org/2000/svg">
<g clip-path="url(#clip0_1115_1165)">
<path fill-rule="evenodd" clip-rule="evenodd" d="M15 2.5C21.9037 2.5 27.5 8.09625 27.5 15C27.5 21.9037 21.9037 27.5 15 27.5C8.09625 27.5 2.5 21.9037 2.5 15C2.5 8.09625 8.09625 2.5 15 2.5ZM15 5C12.3478 5 9.8043 6.05357 7.92893 7.92893C6.05357 9.8043 5 12.3478 5 15C5 17.6522 6.05357 20.1957 7.92893 22.0711C9.8043 23.9464 12.3478 25 15 25C17.6522 25 20.1957 23.9464 22.0711 22.0711C23.9464 20.1957 25 17.6522 25 15C25 12.3478 23.9464 9.8043 22.0711 7.92893C20.1957 6.05357 17.6522 5 15 5ZM16.875 8.75C18.0156 8.74835 19.1118 9.19223 19.9299 9.98705C20.748 10.7819 21.2234 11.8648 21.2547 13.005C21.286 14.1452 20.8707 15.2525 20.0974 16.091C19.3242 16.9295 18.254 17.4328 17.115 17.4937L16.875 17.5H13.75V20C13.7496 20.3186 13.6277 20.625 13.4089 20.8567C13.1902 21.0884 12.8913 21.2278 12.5733 21.2465C12.2552 21.2651 11.942 21.1617 11.6977 20.9572C11.4534 20.7527 11.2964 20.4626 11.2587 20.1463L11.25 20V11.25C11.2498 10.6193 11.488 10.0118 11.9169 9.54931C12.3457 9.08684 12.9336 8.80355 13.5625 8.75625L13.75 8.75H16.875ZM16.875 11.25H13.75V15H16.875C17.3565 14.9998 17.8195 14.8143 18.168 14.482C18.5165 14.1497 18.7238 13.6961 18.7469 13.2151C18.77 12.7341 18.6073 12.2627 18.2923 11.8985C17.9773 11.5343 17.5343 11.3052 17.055 11.2587L16.875 11.25Z" fill="#19A7CE"/>
</g>
<defs>
<clipPath id="clip0_1115_1165">
<rect width="30" height="30" fill="white"/>
</clipPath>
</defs>
</svg>
