<svg width="30" height="30" viewBox="0 0 30 30" fill="none" xmlns="http://www.w3.org/2000/svg">
<g clip-path="url(#clip0_1115_1171)">
<path d="M6.25 16.875H23.75M15 16.875V30M8.125 13.75V8.125H6.66C5.82754 8.12501 5.01875 8.40201 4.36107 8.91235C3.7034 9.4227 3.23423 10.1374 3.0275 10.9438L0.625 20.3125V20.625H9.375V22.5C9.375 24.375 9.375 25.625 10.3125 27.5C10.3125 27.5 11.25 29.375 12.5 29.375M21.875 13.75V8.125H23.34C24.1725 8.12501 24.9813 8.40201 25.6389 8.91235C26.2966 9.4227 26.7658 10.1374 26.9725 10.9438L29.375 20.3125V20.625H20.625V22.5C20.625 24.375 20.625 25.625 19.6875 27.5C19.6875 27.5 18.75 29.375 17.5 29.375M7.9375 5.625C7.9375 5.625 5.9375 4.375 5.9375 2.8125C5.9375 2.233 6.1677 1.67724 6.57747 1.26747C6.98724 0.857705 7.543 0.6275 8.1225 0.6275C8.702 0.6275 9.25776 0.857705 9.66753 1.26747C10.0773 1.67724 10.3075 2.233 10.3075 2.8125C10.3075 4.375 8.3125 5.625 8.3125 5.625H7.9375ZM22.0625 5.625C22.0625 5.625 24.0625 4.375 24.0625 2.8125C24.0625 2.23234 23.832 1.67594 23.4218 1.2657C23.0116 0.855468 22.4552 0.625 21.875 0.625C20.6675 0.625 19.6925 1.605 19.6925 2.8125C19.6925 4.375 21.6875 5.625 21.6875 5.625H22.0625Z" stroke="#19A7CE" stroke-width="2"/>
</g>
<defs>
<clipPath id="clip0_1115_1171">
<rect width="30" height="30" fill="white"/>
</clipPath>
</defs>
</svg>
