<svg width="30" height="30" viewBox="0 0 30 30" fill="none" xmlns="http://www.w3.org/2000/svg">
<path d="M27.5 3.75H2.5C1.1375 3.8 0.05 4.8875 0 6.25V23.75C0.05 25.1125 1.1375 26.2 2.5 26.25H27.5C28.8625 26.2 29.95 25.1125 30 23.75V6.25C29.977 5.59428 29.7062 4.97168 29.2423 4.50773C28.7783 4.04378 28.1557 3.77301 27.5 3.75ZM27.5 23.75H2.5V6.25H27.5V23.75ZM17.5 21.25V19.6875C17.5 17.6125 13.325 16.5625 11.25 16.5625C9.175 16.5625 5 17.6125 5 19.6875V21.25H17.5ZM11.25 8.75C10.4212 8.75 9.62634 9.07924 9.04029 9.66529C8.45424 10.2513 8.125 11.0462 8.125 11.875C8.125 12.2854 8.20583 12.6917 8.36288 13.0709C8.51992 13.45 8.75011 13.7945 9.04029 14.0847C9.62634 14.6708 10.4212 15 11.25 15C11.6604 15 12.0667 14.9192 12.4459 14.7621C12.825 14.6051 13.1695 14.3749 13.4597 14.0847C13.7499 13.7945 13.9801 13.45 14.1371 13.0709C14.2942 12.6917 14.375 12.2854 14.375 11.875C14.375 11.4646 14.2942 11.0583 14.1371 10.6791C13.9801 10.3 13.7499 9.95547 13.4597 9.66529C13.1695 9.37511 12.825 9.14492 12.4459 8.98788C12.0667 8.83083 11.6604 8.75 11.25 8.75ZM17.5 8.75V10H25V8.75H17.5ZM17.5 11.25V12.5H25V11.25H17.5ZM17.5 13.75V15H22.5V13.75H17.5Z" fill="#19A7CE"/>
</svg>
