<svg width="32" height="32" viewBox="0 0 32 32" fill="none" xmlns="http://www.w3.org/2000/svg">
<path d="M22.6032 9.81705L22.2612 10.873C22.1788 11.1278 22.1483 11.3966 22.1717 11.6633C22.195 11.9301 22.2717 12.1895 22.3972 12.426L22.8012 13.189C22.9543 13.4777 23.0343 13.7994 23.0342 14.126V15.259C23.0342 15.499 23.3372 15.601 23.4832 15.411L24.1852 14.489C24.4417 14.1523 24.5847 13.7429 24.5937 13.3197C24.6027 12.8965 24.4772 12.4814 24.2352 12.134L23.5502 11.15C23.413 10.953 23.3124 10.7328 23.2532 10.5L23.0832 9.83305C23.0222 9.59005 22.6812 9.57905 22.6032 9.81705ZM23.0002 16.25C23.0002 16.1837 23.0266 16.1202 23.0735 16.0733C23.1203 16.0264 23.1839 16 23.2502 16H23.7502C23.8165 16 23.8801 16.0264 23.927 16.0733C23.9739 16.1202 24.0002 16.1837 24.0002 16.25V18.75C24.0002 18.8164 23.9739 18.8799 23.927 18.9268C23.8801 18.9737 23.8165 19 23.7502 19H23.2502C23.1839 19 23.1203 18.9737 23.0735 18.9268C23.0266 18.8799 23.0002 18.8164 23.0002 18.75V16.25Z" fill="#19A7CE"/>
<path d="M30 16C30 23.732 23.732 30 16 30C8.268 30 2 23.732 2 16C2 8.268 8.268 2 16 2C23.732 2 30 8.268 30 16ZM24.767 22.645C26.2193 20.7345 27.0038 18.3998 27 16C27 9.925 22.075 5 16 5C13.503 5 11.2 5.832 9.355 7.233L18.12 16H21.749C21.8153 16 21.8789 16.0263 21.9258 16.0732C21.9727 16.1201 21.999 16.1837 21.999 16.25V18.75C21.999 18.8163 21.9727 18.8799 21.9258 18.9268C21.8789 18.9737 21.8153 19 21.749 19H21.12L24.767 22.645ZM22.645 24.767L16.88 19H8C7.73478 19 7.48043 18.8946 7.29289 18.7071C7.10536 18.5196 7 18.2652 7 18V17C7 16.7348 7.10536 16.4804 7.29289 16.2929C7.48043 16.1054 7.73478 16 8 16H13.879L7.233 9.355C5.78074 11.2655 4.9962 13.6002 5 16C5 22.075 9.925 27 16 27C18.497 27 20.8 26.168 22.645 24.767Z" fill="#19A7CE"/>
</svg>
