<svg width="35" height="35" viewBox="0 0 35 35" fill="none" xmlns="http://www.w3.org/2000/svg">
<path d="M7.29199 13.8535C7.29199 13.8535 3.54189 15.3118 2.91699 20.416M27.7087 13.8535C27.7087 13.8535 31.4588 15.3118 32.0837 20.416M13.1253 13.8535C13.1253 13.8535 16.6253 14.7045 17.5003 18.9577C18.3753 14.7045 21.8753 13.8535 21.8753 13.8535M14.5837 24.791C14.5837 24.791 11.5212 25.3379 10.2087 29.166M20.417 24.791C20.417 24.791 23.4795 25.3379 24.792 29.166" stroke="#19A7CE" stroke-width="3" stroke-linecap="round"/>
<path d="M17.5003 26.2497C19.5139 26.2497 21.1462 24.6174 21.1462 22.6038C21.1462 20.5903 19.5139 18.958 17.5003 18.958C15.4868 18.958 13.8545 20.5903 13.8545 22.6038C13.8545 24.6174 15.4868 26.2497 17.5003 26.2497Z" stroke="#19A7CE" stroke-width="3" stroke-linecap="round" stroke-linejoin="round"/>
<path d="M24.792 14.583C27.2082 14.583 29.167 12.6243 29.167 10.208C29.167 7.79176 27.2082 5.83301 24.792 5.83301C22.3757 5.83301 20.417 7.79176 20.417 10.208C20.417 12.6243 22.3757 14.583 24.792 14.583Z" stroke="#19A7CE" stroke-width="3" stroke-linecap="round" stroke-linejoin="round"/>
<path d="M10.209 14.583C12.6252 14.583 14.584 12.6243 14.584 10.208C14.584 7.79176 12.6252 5.83301 10.209 5.83301C7.79274 5.83301 5.83398 7.79176 5.83398 10.208C5.83398 12.6243 7.79274 14.583 10.209 14.583Z" stroke="#19A7CE" stroke-width="3" stroke-linecap="round" stroke-linejoin="round"/>
</svg>
