<svg width="30" height="30" viewBox="0 0 30 30" fill="none" xmlns="http://www.w3.org/2000/svg">
<path fill-rule="evenodd" clip-rule="evenodd" d="M9.64286 3.21387C8.58214 3.21387 7.75071 3.85887 7.23643 4.63244C6.71571 5.41244 6.42857 6.4303 6.42857 7.49958C6.42857 8.57101 6.71571 9.58672 7.23643 10.3667C7.75071 11.1382 8.58214 11.7853 9.64286 11.7853C10.7036 11.7853 11.535 11.1403 12.0493 10.3667C12.57 9.58672 12.8571 8.56887 12.8571 7.49958C12.8571 6.42815 12.57 5.41244 12.0493 4.63244C11.535 3.86101 10.7036 3.21387 9.64286 3.21387ZM20.3571 3.21387C19.2964 3.21387 18.465 3.85887 17.9507 4.63244C17.43 5.41244 17.1429 6.4303 17.1429 7.49958C17.1429 8.57101 17.43 9.58672 17.9507 10.3667C18.465 11.1382 19.2964 11.7853 20.3571 11.7853C21.4179 11.7853 22.2493 11.1403 22.7636 10.3667C23.2843 9.58672 23.5714 8.56887 23.5714 7.49958C23.5714 6.42815 23.2843 5.41244 22.7636 4.63244C22.2493 3.86101 21.4179 3.21387 20.3571 3.21387ZM3.21429 12.8567C2.15357 12.8567 1.32214 13.5017 0.807857 14.2753C0.287143 15.0553 0 16.0732 0 17.1424C0 18.2139 0.287143 19.2296 0.807857 20.0096C1.32214 20.781 2.15357 21.4282 3.21429 21.4282C4.275 21.4282 5.10643 20.7832 5.62071 20.0096C6.14143 19.2296 6.42857 18.2117 6.42857 17.1424C6.42857 16.071 6.14143 15.0553 5.62071 14.2753C5.10643 13.5039 4.275 12.8567 3.21429 12.8567ZM15 12.8567C12.4286 12.8567 10.5236 14.2367 9.30643 15.9489C8.10429 17.6353 7.5 19.7289 7.5 21.4282C7.5 23.4082 8.68929 24.7839 10.1486 25.611C11.5843 26.4253 13.3843 26.7853 15 26.7853C16.6136 26.7853 18.4157 26.4274 19.8514 25.611C21.3086 24.7839 22.5 23.4082 22.5 21.4282C22.5 19.7289 21.8957 17.6353 20.6936 15.9489C19.4786 14.2346 17.5736 12.8567 15 12.8567ZM26.7857 12.8567C25.725 12.8567 24.8936 13.5017 24.3793 14.2753C23.8586 15.0553 23.5714 16.0732 23.5714 17.1424C23.5714 18.2139 23.8586 19.2296 24.3793 20.0096C24.8936 20.781 25.725 21.4282 26.7857 21.4282C27.8464 21.4282 28.6779 20.7832 29.1921 20.0096C29.7129 19.2296 30 18.2117 30 17.1424C30 16.071 29.7129 15.0553 29.1921 14.2753C28.6779 13.5039 27.8464 12.8567 26.7857 12.8567Z" fill="#19A7CE"/>
</svg>
