<svg width="25" height="21" viewBox="0 0 25 21" fill="none" xmlns="http://www.w3.org/2000/svg">
<path d="M7.25 14.75C7.25 15.7446 6.85491 16.6984 6.15165 17.4017C5.44839 18.1049 4.49456 18.5 3.5 18.5M17.25 14.75C17.25 15.7446 17.6451 16.6984 18.3483 17.4017C19.0516 18.1049 20.0054 18.5 21 18.5M12.25 14.75V19.75M1 3.5C1 2.83696 1.26339 2.20107 1.73223 1.73223C2.20107 1.26339 2.83696 1 3.5 1H21C21.663 1 22.2989 1.26339 22.7678 1.73223C23.2366 2.20107 23.5 2.83696 23.5 3.5V8.5C23.5 9.16304 23.2366 9.79893 22.7678 10.2678C22.2989 10.7366 21.663 11 21 11H3.5C2.83696 11 2.20107 10.7366 1.73223 10.2678C1.26339 9.79893 1 9.16304 1 8.5V3.5Z" stroke="#19A7CE" stroke-width="2" stroke-linecap="round" stroke-linejoin="round"/>
<path d="M6 11V7.25C6 6.91848 6.1317 6.60054 6.36612 6.36612C6.60054 6.1317 6.91848 6 7.25 6H17.25C17.5815 6 17.8995 6.1317 18.1339 6.36612C18.3683 6.60054 18.5 6.91848 18.5 7.25V11" stroke="#19A7CE" stroke-width="2" stroke-linecap="round" stroke-linejoin="round"/>
</svg>
