<svg width="30" height="30" viewBox="0 0 30 30" fill="none" xmlns="http://www.w3.org/2000/svg">
<path d="M26.25 4.5V25.5C26.25 25.6989 26.171 25.8897 26.0303 26.0303C25.8897 26.171 25.6989 26.25 25.5 26.25H4.5C4.30109 26.25 4.11032 26.171 3.96967 26.0303C3.82902 25.8897 3.75 25.6989 3.75 25.5V4.5C3.75 4.30109 3.82902 4.11032 3.96967 3.96967C4.11032 3.82902 4.30109 3.75 4.5 3.75H25.5C25.6989 3.75 25.8897 3.82902 26.0303 3.96967C26.171 4.11032 26.25 4.30109 26.25 4.5Z" stroke="#19A7CE" stroke-width="2" stroke-linecap="round" stroke-linejoin="round"/>
<path d="M10.0002 7.5C10.0002 7.5 6.87522 11.25 10.0002 15C13.1252 18.75 10.0002 22.5 10.0002 22.5M15.0002 7.5C15.0002 7.5 11.8752 11.25 15.0002 15C18.1252 18.75 15.0002 22.5 15.0002 22.5M20.0002 7.5C20.0002 7.5 16.8752 11.25 20.0002 15C23.1252 18.75 20.0002 22.5 20.0002 22.5" stroke="#19A7CE" stroke-width="2" stroke-linecap="round" stroke-linejoin="round"/>
</svg>
