<svg width="30" height="30" viewBox="0 0 30 30" fill="none" xmlns="http://www.w3.org/2000/svg">
<path d="M26 15.9998C26 22.6198 21.62 27.9998 15 27.9998C8.38 27.9998 4 22.6198 4 15.9998C6.20956 16.0184 8.35874 16.7232 10.1502 18.0167C11.9417 19.3101 13.287 21.1283 14 23.2198V13.9998H9C8.20435 13.9998 7.44129 13.6837 6.87868 13.1211C6.31607 12.5585 6 11.7954 6 10.9998V4.9998C6 4.78991 6.06604 4.58535 6.18876 4.41509C6.31148 4.24482 6.48466 4.11748 6.68377 4.05111C6.88288 3.98474 7.09783 3.9827 7.29817 4.04528C7.4985 4.10786 7.67407 4.23189 7.8 4.3998L10.86 8.3998L14.16 2.3998C14.2507 2.25945 14.375 2.14405 14.5218 2.06415C14.6685 1.98425 14.8329 1.94238 15 1.94238C15.1671 1.94238 15.3315 1.98425 15.4782 2.06415C15.625 2.14405 15.7493 2.25945 15.84 2.3998L19.14 8.3998L22.2 4.3998C22.3259 4.23189 22.5015 4.10786 22.7018 4.04528C22.9022 3.9827 23.1171 3.98474 23.3162 4.05111C23.5153 4.11748 23.6885 4.24482 23.8112 4.41509C23.934 4.58535 24 4.78991 24 4.9998V10.9998C24 11.7954 23.6839 12.5585 23.1213 13.1211C22.5587 13.6837 21.7956 13.9998 21 13.9998H16V23.2198C16.713 21.1283 18.0583 19.3101 19.8498 18.0167C21.6413 16.7232 23.7904 16.0184 26 15.9998Z" fill="#19A7CE"/>
</svg>
