<svg width="30" height="31" viewBox="0 0 30 31" fill="none" xmlns="http://www.w3.org/2000/svg">
<path d="M4.99548 4.99477C4.99548 4.5532 5.17089 4.12972 5.48313 3.81749C5.79536 3.50525 6.21884 3.32984 6.6604 3.32984C7.10197 3.32984 7.52545 3.50525 7.83768 3.81749C8.14991 4.12972 8.32533 4.5532 8.32533 4.99477V15.0276C9.37756 15.1275 10.4897 15.3472 11.6552 15.7185V13.3194H21.6447V19.1216C22.7793 19.1063 23.9039 18.9067 24.9745 18.5306V4.99477C24.9745 3.67007 24.4483 2.39963 23.5116 1.46293C22.5749 0.526233 21.3045 0 19.9798 0C18.6551 0 17.3846 0.526233 16.4479 1.46293C15.5112 2.39963 14.985 3.67007 14.985 4.99477C14.985 5.43633 15.1604 5.85981 15.4727 6.17204C15.7849 6.48428 16.2084 6.65969 16.6499 6.65969C17.0915 6.65969 17.515 6.48428 17.8272 6.17204C18.1394 5.85981 18.3149 5.43633 18.3149 4.99477C18.3149 4.5532 18.4903 4.12972 18.8025 3.81749C19.1147 3.50525 19.5382 3.32984 19.9798 3.32984C20.4213 3.32984 20.8448 3.50525 21.1571 3.81749C21.4693 4.12972 21.6447 4.5532 21.6447 4.99477V9.98953H11.6552V4.99477C11.6552 3.67007 11.1289 2.39963 10.1922 1.46293C9.25554 0.526233 7.9851 0 6.6604 0C5.33571 0 4.06527 0.526233 3.12857 1.46293C2.19187 2.39963 1.66564 3.67007 1.66564 4.99477C1.66564 5.43633 1.84105 5.85981 2.15328 6.17204C2.46552 6.48428 2.88899 6.65969 3.33056 6.65969C3.77212 6.65969 4.1956 6.48428 4.50784 6.17204C4.82007 5.85981 4.99548 5.43633 4.99548 4.99477ZM5.98112 20.0207C4.27624 20.2305 3.15075 20.9314 2.67458 21.296C2.32309 21.5636 1.87971 21.6806 1.44195 21.6213C1.0042 21.562 0.607948 21.3312 0.34036 20.9797C0.0727717 20.6282 -0.0442299 20.1848 0.0150945 19.7471C0.0744188 19.3093 0.30521 18.913 0.656695 18.6455C1.47584 18.0228 3.14242 17.0155 5.57321 16.7141C8.02897 16.4128 11.1274 16.8473 14.7519 18.9069C21.0586 22.4931 26.1333 19.994 27.4553 19.2115C27.8346 18.9954 28.2836 18.9369 28.7056 19.0486C29.1277 19.1603 29.4889 19.4333 29.7116 19.8088C29.9343 20.1843 30.0006 20.6323 29.8962 21.0562C29.7918 21.4801 29.5251 21.846 29.1535 22.0752C27.3604 23.1374 20.9138 26.2408 13.1053 21.8021C10.0485 20.064 7.66435 19.8126 5.98112 20.0207ZM2.67458 27.954C3.15241 27.5894 4.27624 26.8885 5.98112 26.6787C7.66269 26.4706 10.0485 26.722 13.107 28.4602C20.9155 32.8989 27.3587 29.7954 29.1518 28.7349C29.345 28.6262 29.5145 28.48 29.6503 28.3049C29.7862 28.1298 29.8858 27.9293 29.9432 27.7152C30.0006 27.5011 30.0147 27.2778 29.9846 27.0582C29.9545 26.8386 29.8809 26.6272 29.7681 26.4364C29.6552 26.2457 29.5054 26.0793 29.3275 25.9472C29.1495 25.8151 28.947 25.7199 28.7317 25.6671C28.5164 25.6143 28.2928 25.605 28.0739 25.6398C27.855 25.6745 27.6452 25.7527 27.4569 25.8696C26.1333 26.6521 21.0586 29.1511 14.7519 25.5649C11.1274 23.5054 8.02897 23.0708 5.57321 23.3738C3.14242 23.6735 1.4775 24.6808 0.656695 25.3051C0.31903 25.5774 0.100922 25.9706 0.0487839 26.4012C-0.00335392 26.8318 0.114595 27.2657 0.377531 27.6106C0.640466 27.9556 1.02763 28.1843 1.45664 28.2481C1.88564 28.3119 2.32262 28.2058 2.67458 27.9524V27.954Z" fill="#19A7CE"/>
</svg>
