<svg width="30" height="30" viewBox="0 0 30 30" fill="none" xmlns="http://www.w3.org/2000/svg">
<path d="M2 15.25V25.25C2 25.5815 2.13863 25.8995 2.38539 26.1339C2.63214 26.3683 2.96682 26.5 3.31579 26.5H25.6842C26.0332 26.5 26.3679 26.3683 26.6146 26.1339C26.8614 25.8995 27 25.5815 27 25.25V15.25M27 19.625H2" stroke="#19A7CE" stroke-width="3" stroke-linecap="round" stroke-linejoin="round"/>
<path d="M19.7636 14.625C19.7636 13.2989 19.2091 12.0271 18.2221 11.0895C17.235 10.1518 15.8963 9.625 14.5005 9.625C13.1046 9.625 11.7659 10.1518 10.7788 11.0895C9.79181 12.0271 9.2373 13.2989 9.2373 14.625" stroke="#19A7CE" stroke-width="3" stroke-linecap="round"/>
<path d="M14.5002 4V5.25M22.0094 6.5L21.0792 7.38375M6.60547 6.5L7.53573 7.38375" stroke="#19A7CE" stroke-width="3" stroke-linecap="round" stroke-linejoin="round"/>
</svg>
