<svg width="30" height="30" viewBox="0 0 30 30" fill="none" xmlns="http://www.w3.org/2000/svg">
<g clip-path="url(#clip0_1115_1214)">
<path fill-rule="evenodd" clip-rule="evenodd" d="M6.25 11.25C6.25 8.92936 7.17187 6.70376 8.81282 5.06282C10.4538 3.42187 12.6794 2.5 15 2.5C17.3206 2.5 19.5462 3.42187 21.1872 5.06282C22.8281 6.70376 23.75 8.92936 23.75 11.25V12.5437C25.87 12.8475 27.5 14.6712 27.5 16.875V17.1875C27.4998 17.7295 27.3912 18.266 27.1805 18.7654C26.9698 19.2648 26.6613 19.717 26.2732 20.0953C25.8851 20.4737 25.4252 20.7705 24.9206 20.9684C24.416 21.1663 23.8768 21.2612 23.335 21.2475C22.41 23.8975 20.0575 25.6838 17.5188 26.1363C16.9313 26.3513 16.2362 26.25 15.625 26.25C15.1277 26.25 14.6508 26.0525 14.2992 25.7008C13.9475 25.3492 13.75 24.8723 13.75 24.375C13.75 23.8777 13.9475 23.4008 14.2992 23.0492C14.6508 22.6975 15.1277 22.5 15.625 22.5H16.875C17.1685 22.4999 17.458 22.5688 17.72 22.701C17.9821 22.8332 18.2094 23.0251 18.3837 23.2612C20.0037 22.49 21.25 20.8613 21.25 18.75V11.25C21.25 9.5924 20.5915 8.00269 19.4194 6.83058C18.2473 5.65848 16.6576 5 15 5C13.3424 5 11.7527 5.65848 10.5806 6.83058C9.40848 8.00269 8.75 9.5924 8.75 11.25V19.0625C8.75 19.6427 8.51953 20.1991 8.1093 20.6093C7.69906 21.0195 7.14266 21.25 6.5625 21.25C5.48506 21.25 4.45175 20.822 3.68988 20.0601C2.92801 19.2983 2.5 18.2649 2.5 17.1875V16.875C2.49973 15.8228 2.8787 14.8057 3.56744 14.0102C4.25619 13.2147 5.20856 12.6941 6.25 12.5437V11.25ZM6.25 15.1063C5.88428 15.2356 5.56766 15.4751 5.34379 15.7919C5.11991 16.1087 4.9998 16.4871 5 16.875V17.1875C5 17.9438 5.5375 18.575 6.25 18.7188V15.1063ZM23.75 15.1063V18.7188C24.4625 18.5738 25 17.9438 25 17.1875V16.875C25.0002 16.4871 24.8801 16.1087 24.6562 15.7919C24.4323 15.4751 24.1157 15.2356 23.75 15.1063Z" fill="#19A7CE"/>
</g>
<defs>
<clipPath id="clip0_1115_1214">
<rect width="30" height="30" fill="white"/>
</clipPath>
</defs>
</svg>
