<svg width="34" height="34" viewBox="0 0 34 34" fill="none" xmlns="http://www.w3.org/2000/svg">
<path d="M11.1055 13.7384L16.2676 2.00387C16.3608 1.79183 16.4972 1.60131 16.6682 1.44432C16.8392 1.28733 17.041 1.16728 17.261 1.09174C17.4809 1.0162 17.7142 0.986812 17.9462 1.00543C18.1781 1.02405 18.4037 1.09026 18.6086 1.1999L27.9476 6.20122" stroke="#19A7CE" stroke-width="2" stroke-linecap="round" stroke-linejoin="round"/>
<path d="M19.5264 22.1129V6.20117H33.0001V30.4876H19.5264V27.1377" stroke="#19A7CE" stroke-width="2" stroke-linecap="round" stroke-linejoin="round"/>
<path d="M1 32.9996C8.57895 32.9996 9.22737 28.5468 11.3832 28.2369C13.9288 27.8701 16.5217 27.6817 18.7709 27.1374C20.855 26.6311 22.8985 25.9719 24.8846 25.1651C25.1933 25.0414 25.4483 24.8133 25.6046 24.5211C26.0787 23.6158 26.9284 21.6185 25.3545 21.3664C23.3099 21.0398 16.984 23.4383 13.7394 23.002C10.4947 22.5665 11.6349 20.3857 12.6573 19.7308C15.4337 17.9546 18.6842 18.7627 18.6842 18.7627V11.2256C18.6842 11.2256 6.33389 14.3661 1.84211 19.7308M24.5789 13.738H33" stroke="#19A7CE" stroke-width="2" stroke-linecap="round" stroke-linejoin="round"/>
</svg>
