<svg width="30" height="30" viewBox="0 0 30 30" fill="none" xmlns="http://www.w3.org/2000/svg">
<g clip-path="url(#clip0_1115_1222)">
<path d="M2.50004 15.0999C2.49254 14.0224 3.63754 13.4049 4.52254 13.8812L4.64129 13.9537L7.98879 16.2087C9.20379 17.0274 8.46004 18.8874 7.07129 18.7174L6.92504 18.6924L5.59629 18.3999C6.27166 20.2685 7.48822 21.8936 9.09084 23.068C10.6935 24.2424 12.6095 24.9129 14.5948 24.9941C16.58 25.0752 18.5444 24.5633 20.2375 23.5235C21.9306 22.4838 23.2757 20.9634 24.1013 19.1562C24.2432 18.862 24.4946 18.635 24.8018 18.5238C25.109 18.4127 25.4475 18.4262 25.7448 18.5614C26.0421 18.6967 26.2747 18.943 26.3927 19.2476C26.5107 19.5522 26.5048 19.8909 26.3763 20.1912C23.8925 25.6537 17.7563 28.6824 11.7675 27.0774C9.12532 26.3695 6.78814 24.8147 5.11421 22.6513C3.44029 20.4879 2.52198 17.8352 2.50004 15.0999ZM19.2788 9.27994C19.4109 9.37749 19.5225 9.50012 19.6072 9.64082C19.6919 9.78151 19.748 9.93752 19.7724 10.0999C19.7968 10.2623 19.7889 10.4279 19.7492 10.5873C19.7096 10.7467 19.6389 10.8966 19.5413 11.0287L17.53 13.7499H18.75C19.0816 13.7499 19.3995 13.8816 19.6339 14.1161C19.8683 14.3505 20 14.6684 20 14.9999C20 15.3315 19.8683 15.6494 19.6339 15.8838C19.3995 16.1182 19.0816 16.2499 18.75 16.2499H16.25V17.4999H18.75C19.0816 17.4999 19.3995 17.6316 19.6339 17.8661C19.8683 18.1005 20 18.4184 20 18.7499C20 19.0815 19.8683 19.3994 19.6339 19.6338C19.3995 19.8682 19.0816 19.9999 18.75 19.9999H16.25V21.2499C16.25 21.5815 16.1183 21.8994 15.8839 22.1338C15.6495 22.3682 15.3316 22.4999 15 22.4999C14.6685 22.4999 14.3506 22.3682 14.1162 22.1338C13.8817 21.8994 13.75 21.5815 13.75 21.2499V19.9999H11.25C10.9185 19.9999 10.6006 19.8682 10.3662 19.6338C10.1317 19.3994 10 19.0815 10 18.7499C10 18.4184 10.1317 18.1005 10.3662 17.8661C10.6006 17.6316 10.9185 17.4999 11.25 17.4999H13.75V16.2499H11.25C10.9185 16.2499 10.6006 16.1182 10.3662 15.8838C10.1317 15.6494 10 15.3315 10 14.9999C10 14.6684 10.1317 14.3505 10.3662 14.1161C10.6006 13.8816 10.9185 13.7499 11.25 13.7499H12.47L10.4588 11.0287C10.3612 10.8966 10.2906 10.7466 10.251 10.5873C10.2113 10.4279 10.2035 10.2623 10.2279 10.0999C10.2522 9.93756 10.3084 9.78156 10.393 9.64087C10.4777 9.50017 10.5892 9.37752 10.7213 9.27994C10.8533 9.18235 11.0033 9.11173 11.1627 9.0721C11.322 9.03248 11.4876 9.02463 11.65 9.04901C11.8124 9.07338 11.9684 9.1295 12.1091 9.21417C12.2498 9.29883 12.3724 9.41038 12.47 9.54244L15 12.9674L17.53 9.54244C17.6276 9.41033 17.7502 9.29875 17.8909 9.21405C18.0316 9.12936 18.1876 9.07322 18.35 9.04884C18.5124 9.02446 18.678 9.03233 18.8374 9.07198C18.9968 9.11163 19.1467 9.1823 19.2788 9.27994ZM3.62879 9.81494C6.11254 4.35244 12.2488 1.32494 18.2375 2.92869C20.8797 3.63634 23.2168 5.19091 24.8907 7.35411C26.5647 9.51732 27.483 12.1698 27.505 14.9049C27.5138 15.9837 26.3675 16.6024 25.4838 16.1249L25.3638 16.0524L22.0163 13.7974C20.8013 12.9787 21.545 11.1187 22.9338 11.2887L23.08 11.3137L24.4088 11.6062C23.7334 9.73762 22.5169 8.11253 20.9142 6.93812C19.3116 5.76371 17.3955 5.09319 15.4103 5.01206C13.4251 4.93093 11.4607 5.44286 9.7676 6.48259C8.07448 7.52231 6.72938 9.04271 5.90379 10.8499C5.83825 11.003 5.74279 11.1415 5.62302 11.2571C5.50324 11.3728 5.36156 11.4634 5.2063 11.5235C5.05103 11.5837 4.88531 11.6122 4.71886 11.6075C4.55242 11.6027 4.3886 11.5647 4.23704 11.4958C4.08547 11.4268 3.94921 11.3283 3.83625 11.2059C3.7233 11.0836 3.63592 10.9399 3.57926 10.7833C3.5226 10.6268 3.49779 10.4604 3.5063 10.2941C3.5148 10.1278 3.55645 9.96492 3.62879 9.81494Z" fill="#19A7CE"/>
</g>
<defs>
<clipPath id="clip0_1115_1222">
<rect width="30" height="30" fill="white"/>
</clipPath>
</defs>
</svg>
