<svg width="30" height="30" viewBox="0 0 30 30" fill="none" xmlns="http://www.w3.org/2000/svg">
<path d="M22.5 16.875L18.0197 10.8731C17.2789 9.90453 16.8767 8.71942 16.875 7.5C16.875 4.39875 19.3978 1.875 22.5 1.875C25.6022 1.875 28.125 4.39875 28.125 7.5C28.123 8.72141 27.7195 9.90829 26.9766 10.8778L22.5 16.875ZM22.5 3.75C20.4319 3.75 18.75 5.43187 18.75 7.5C18.75 8.30437 19.0162 9.08156 19.5187 9.74719L22.5 13.7409L25.4775 9.75188C25.9838 9.08156 26.25 8.30437 26.25 7.5C26.25 5.43187 24.5681 3.75 22.5 3.75Z" fill="#19A7CE"/>
<path d="M22.5 9.375C23.5355 9.375 24.375 8.53553 24.375 7.5C24.375 6.46447 23.5355 5.625 22.5 5.625C21.4645 5.625 20.625 6.46447 20.625 7.5C20.625 8.53553 21.4645 9.375 22.5 9.375Z" fill="#19A7CE"/>
<path d="M26.25 16.875V20.625H3.75V5.625H13.125V3.75H3.75C3.25272 3.75 2.77581 3.94754 2.42417 4.29917C2.07254 4.65081 1.875 5.12772 1.875 5.625V20.625C1.875 21.1223 2.07254 21.5992 2.42417 21.9508C2.77581 22.3025 3.25272 22.5 3.75 22.5H11.25V26.25H7.5V28.125H22.5V26.25H18.75V22.5H26.25C26.7473 22.5 27.2242 22.3025 27.5758 21.9508C27.9275 21.5992 28.125 21.1223 28.125 20.625V16.875H26.25ZM16.875 26.25H13.125V22.5H16.875V26.25Z" fill="#19A7CE"/>
</svg>
