<svg width="30" height="30" viewBox="0 0 30 30" fill="none" xmlns="http://www.w3.org/2000/svg">
<path d="M26.7188 12.7031C27.2479 12.5951 27.7236 12.3076 28.0652 11.8893C28.4069 11.471 28.5936 10.9475 28.5938 10.4074V7.5C28.5938 6.8784 28.3468 6.28226 27.9073 5.84272C27.4677 5.40318 26.8716 5.15625 26.25 5.15625H3.75C3.1284 5.15625 2.53226 5.40318 2.09272 5.84272C1.65318 6.28226 1.40625 6.8784 1.40625 7.5V10.4074C1.40641 10.9475 1.5931 11.471 1.93476 11.8893C2.27641 12.3076 2.75206 12.5951 3.28125 12.7031C3.81107 12.8107 4.28741 13.0982 4.62955 13.5168C4.97169 13.9354 5.1586 14.4594 5.1586 15C5.1586 15.5406 4.97169 16.0646 4.62955 16.4832C4.28741 16.9018 3.81107 17.1893 3.28125 17.2969C2.75206 17.4049 2.27641 17.6924 1.93476 18.1107C1.5931 18.529 1.40641 19.0525 1.40625 19.5926V22.5C1.40625 23.1216 1.65318 23.7177 2.09272 24.1573C2.53226 24.5968 3.1284 24.8438 3.75 24.8438H26.25C26.8716 24.8438 27.4677 24.5968 27.9073 24.1573C28.3468 23.7177 28.5938 23.1216 28.5938 22.5V19.5926C28.5936 19.0525 28.4069 18.529 28.0652 18.1107C27.7236 17.6924 27.2479 17.4049 26.7188 17.2969C26.1889 17.1893 25.7126 16.9018 25.3704 16.4832C25.0283 16.0646 24.8414 15.5406 24.8414 15C24.8414 14.4594 25.0283 13.9354 25.3704 13.5168C25.7126 13.0982 26.1889 12.8107 26.7188 12.7031ZM4.21875 19.9617C5.29931 19.6562 6.25059 19.0063 6.92803 18.1107C7.60548 17.2151 7.97205 16.1229 7.97205 15C7.97205 13.8771 7.60548 12.7849 6.92803 11.8893C6.25059 10.9937 5.29931 10.3438 4.21875 10.0383V7.96875H9.84375V22.0312H4.21875V19.9617ZM25.7812 19.9617V22.0312H12.6562V7.96875H25.7812V10.0383C24.7007 10.3438 23.7494 10.9937 23.072 11.8893C22.3945 12.7849 22.0279 13.8771 22.0279 15C22.0279 16.1229 22.3945 17.2151 23.072 18.1107C23.7494 19.0063 24.7007 19.6562 25.7812 19.9617Z" fill="#19A7CE"/>
</svg>
