<svg width="30" height="30" viewBox="0 0 30 30" fill="none" xmlns="http://www.w3.org/2000/svg">
<g clip-path="url(#clip0_1115_1232)">
<path d="M4.6875 1.875C4.43886 1.875 4.2004 1.97377 4.02459 2.14959C3.84877 2.3254 3.75 2.56386 3.75 2.8125V9.375H2.8125C2.06658 9.375 1.35121 9.67132 0.823763 10.1988C0.296316 10.7262 3.86694e-07 11.4416 3.86694e-07 12.1875V25.3125C-0.00030465 25.8944 0.179865 26.462 0.515678 26.9372C0.851491 27.4123 1.32642 27.7717 1.875 27.9656V28.5938C1.875 28.9667 2.02316 29.3244 2.28688 29.5881C2.5506 29.8518 2.90829 30 3.28125 30C3.65421 30 4.0119 29.8518 4.27562 29.5881C4.53934 29.3244 4.6875 28.9667 4.6875 28.5938V28.125H7.5V26.25H2.8125C2.56386 26.25 2.3254 26.1512 2.14959 25.9754C1.97377 25.7996 1.875 25.5611 1.875 25.3125V12.1875C1.875 11.9389 1.97377 11.7004 2.14959 11.5246C2.3254 11.3488 2.56386 11.25 2.8125 11.25H12.1875C12.4361 11.25 12.6746 11.3488 12.8504 11.5246C13.0262 11.7004 13.125 11.9389 13.125 12.1875V13.125H15V12.1875C15 11.4416 14.7037 10.7262 14.1762 10.1988C13.6488 9.67132 12.9334 9.375 12.1875 9.375H11.25V2.8125C11.25 2.56386 11.1512 2.3254 10.9754 2.14959C10.7996 1.97377 10.5611 1.875 10.3125 1.875H4.6875ZM9.375 9.375H5.625V3.75H9.375V9.375Z" fill="#19A7CE"/>
<path d="M5.625 14.0625C5.625 13.8139 5.52623 13.5754 5.35041 13.3996C5.1746 13.2238 4.93614 13.125 4.6875 13.125C4.43886 13.125 4.2004 13.2238 4.02459 13.3996C3.84877 13.5754 3.75 13.8139 3.75 14.0625V23.4375C3.75 23.6861 3.84877 23.9246 4.02459 24.1004C4.2004 24.2762 4.43886 24.375 4.6875 24.375C4.93614 24.375 5.1746 24.2762 5.35041 24.1004C5.52623 23.9246 5.625 23.6861 5.625 23.4375V14.0625ZM20.625 11.25C21.3709 11.25 22.0863 11.5463 22.6137 12.0738C23.1412 12.6012 23.4375 13.3166 23.4375 14.0625V15H27.1875C27.9334 15 28.6488 15.2963 29.1762 15.8238C29.7037 16.3512 30 17.0666 30 17.8125V27.1875C30 27.9334 29.7037 28.6488 29.1762 29.1762C28.6488 29.7037 27.9334 30 27.1875 30H12.1875C11.4416 30 10.7262 29.7037 10.1988 29.1762C9.67132 28.6488 9.375 27.9334 9.375 27.1875V17.8125C9.375 17.0666 9.67132 16.3512 10.1988 15.8238C10.7262 15.2963 11.4416 15 12.1875 15H15.9375V14.0625C15.9375 13.3166 16.2338 12.6012 16.7613 12.0738C17.2887 11.5463 18.0041 11.25 18.75 11.25H20.625ZM17.8125 14.0625V15H21.5625V14.0625C21.5625 13.8139 21.4637 13.5754 21.2879 13.3996C21.1121 13.2238 20.8736 13.125 20.625 13.125H18.75C18.5014 13.125 18.2629 13.2238 18.0871 13.3996C17.9113 13.5754 17.8125 13.8139 17.8125 14.0625ZM11.25 17.8125V27.1875C11.25 27.4361 11.3488 27.6746 11.5246 27.8504C11.7004 28.0262 11.9389 28.125 12.1875 28.125H13.125V16.875H12.1875C11.9389 16.875 11.7004 16.9738 11.5246 17.1496C11.3488 17.3254 11.25 17.5639 11.25 17.8125ZM24.375 28.125V16.875H15V28.125H24.375ZM27.1875 28.125C27.4361 28.125 27.6746 28.0262 27.8504 27.8504C28.0262 27.6746 28.125 27.4361 28.125 27.1875V17.8125C28.125 17.5639 28.0262 17.3254 27.8504 17.1496C27.6746 16.9738 27.4361 16.875 27.1875 16.875H26.25V28.125H27.1875Z" fill="#19A7CE"/>
</g>
<defs>
<clipPath id="clip0_1115_1232">
<rect width="30" height="30" fill="white"/>
</clipPath>
</defs>
</svg>
