<svg width="30" height="30" viewBox="0 0 30 30" fill="none" xmlns="http://www.w3.org/2000/svg">
<path d="M24.8429 13.1324L23.3675 6.97278C23.1089 5.89818 22.0199 5.22318 20.9393 5.48838C19.9889 5.72058 19.5269 6.37878 19.3397 6.84198C19.1183 7.38858 18.1301 9.86538 17.8991 10.3772C17.8181 10.5548 17.6471 10.6484 17.6123 10.664C17.4161 10.751 15.4523 11.5796 15.4523 11.5796V11.5832C15.2569 11.6733 15.0913 11.8173 14.975 11.9983C14.8587 12.1793 14.7966 12.3898 14.7959 12.605C14.7959 13.2308 15.3083 13.7384 15.9401 13.7384C16.0763 13.7384 16.2059 13.7102 16.3277 13.667V13.6712L18.9347 12.5876C19.2923 12.4208 19.4669 12.2096 19.6445 11.9018C19.7189 11.7722 19.9451 11.2298 20.1293 10.7846L21.7025 17.3636L21.7007 27.5576C21.6977 28.5704 22.3973 29.396 23.4197 29.3996C24.4433 29.4032 25.1831 28.5854 25.1897 27.5708L25.1999 15.539C25.1987 14.9732 24.9737 13.6286 24.8429 13.1324Z" fill="#19A7CE"/>
<path d="M19.1392 5.18361C20.4166 5.18361 21.4522 4.15745 21.4522 2.89161C21.4522 1.62577 20.4166 0.599609 19.1392 0.599609C17.8617 0.599609 16.8262 1.62577 16.8262 2.89161C16.8262 4.15745 17.8617 5.18361 19.1392 5.18361Z" fill="#19A7CE"/>
<path d="M10.2784 22.2614V24.8294C10.5946 24.7775 10.8822 24.6153 11.0902 24.3716C11.2978 24.1274 11.4016 23.8418 11.4016 23.513C11.4016 23.219 11.3146 22.9652 11.1406 22.7516C10.9642 22.5404 10.6768 22.3772 10.2784 22.2614ZM8.69201 18.2732C8.53601 18.4832 8.4574 18.716 8.4574 18.9704C8.4574 19.2044 8.5288 19.4192 8.6698 19.6184C8.8126 19.8188 9.028 19.9808 9.3142 20.1032V17.825C9.06446 17.9045 8.84653 18.0615 8.69201 18.2732ZM14.794 15.2228H14.7964L11.2114 8.03062L11.2108 8.03722C11.0769 7.76062 10.8676 7.52746 10.607 7.36453C10.3464 7.2016 10.0451 7.11553 9.7378 7.11622H6.4336C5.5318 7.11562 4.7998 7.84042 4.7998 8.73442V29.4002H14.9794V16.034C14.9785 15.7532 14.9152 15.4761 14.794 15.2228ZM12.3028 25.2842C11.8168 25.8284 11.1424 26.162 10.2802 26.2844V27.5162H9.31601V26.3174C8.54921 26.2256 7.9282 25.9418 7.4482 25.4684C6.9706 24.9938 6.6652 24.3248 6.5326 23.4602L8.2666 23.2748C8.32726 23.605 8.46386 23.9166 8.6656 24.185C8.8594 24.4394 9.0766 24.6236 9.3154 24.7376V21.9788C8.4478 21.7328 7.81 21.3602 7.4062 20.864C7 20.366 6.79721 19.7618 6.79721 19.0502C6.79721 18.3302 7.0258 17.7254 7.486 17.2352C7.9444 16.7462 8.55401 16.4636 9.31601 16.3898V15.7376H10.2802V16.3898C10.9834 16.4726 11.5444 16.7108 11.9608 17.1032C12.376 17.495 12.6418 18.0224 12.7576 18.6806L11.077 18.8978C10.9744 18.3806 10.7092 18.0284 10.2802 17.8442V20.4182C11.3428 20.7044 12.067 21.074 12.4528 21.5276C12.8374 21.9824 13.0306 22.565 13.0306 23.276C13.0306 24.0704 12.7882 24.7394 12.3028 25.2842Z" fill="#19A7CE"/>
</svg>
