<svg width="30" height="30" viewBox="0 0 30 30" fill="none" xmlns="http://www.w3.org/2000/svg">
<path d="M3.75 2.5H26.25C26.913 2.5 27.5489 2.76339 28.0178 3.23223C28.4866 3.70107 28.75 4.33696 28.75 5V25C28.75 25.663 28.4866 26.2989 28.0178 26.7678C27.5489 27.2366 26.913 27.5 26.25 27.5H3.75C3.08696 27.5 2.45107 27.2366 1.98223 26.7678C1.51339 26.2989 1.25 25.663 1.25 25V5C1.25 4.33696 1.51339 3.70107 1.98223 3.23223C2.45107 2.76339 3.08696 2.5 3.75 2.5ZM16.25 5V25H26.25V5H16.25ZM3.75 5V25H13.75V5H3.75ZM6.25 16.25H8.75V21.25H6.25V16.25ZM6.25 7.5H11.25V9.375H6.25V7.5ZM6.25 11.25H11.25V13.125H6.25V11.25ZM18.75 16.25H21.25V21.25H18.75V16.25ZM18.75 7.5H23.75V9.375H18.75V7.5ZM18.75 11.25H23.75V13.125H18.75V11.25Z" fill="#19A7CE"/>
</svg>
