<svg width="35" height="35" viewBox="0 0 35 35" fill="none" xmlns="http://www.w3.org/2000/svg">
<path d="M6.84681 17.7549H16.7708C16.9642 17.7549 17.1496 17.8317 17.2864 17.9685C17.4231 18.1052 17.4999 18.2907 17.4999 18.4841V22.1299H6.11035V18.4841C6.11035 18.3877 6.12945 18.2923 6.16655 18.2034C6.20364 18.1144 6.25801 18.0337 6.32649 17.9659C6.39497 17.8981 6.47622 17.8445 6.56553 17.8083C6.65484 17.7721 6.75044 17.754 6.84681 17.7549Z" stroke="#19A7CE" stroke-width="2" stroke-linecap="round" stroke-linejoin="round"/>
<path d="M6.11072 18.4914V11.1414C6.11072 10.8687 6.21904 10.6072 6.41185 10.4144C6.60466 10.2216 6.86617 10.1133 7.13885 10.1133H16.4722C16.7449 10.1133 17.0064 10.2216 17.1992 10.4144C17.392 10.6072 17.5003 10.8687 17.5003 11.1414M17.5003 11.1414V18.4914M17.5003 11.1414C17.5003 10.8687 17.6086 10.6072 17.8014 10.4144C17.9942 10.2216 18.2558 10.1133 18.5284 10.1133H27.8618C28.1344 10.1133 28.3959 10.2216 28.5888 10.4144C28.7816 10.6072 28.8899 10.8687 28.8899 11.1414V18.4914M3.90864 14.2695H5.48364C5.64995 14.2695 5.80945 14.3356 5.92705 14.4532C6.04466 14.5708 6.11072 14.7303 6.11072 14.8966V22.1883H4.06177C3.95744 22.1883 3.85417 22.1674 3.75805 22.1269C3.66194 22.0863 3.57494 22.0269 3.50219 21.9521C3.42945 21.8773 3.37245 21.7887 3.33455 21.6915C3.29665 21.5943 3.27863 21.4905 3.28156 21.3862V14.8966C3.28156 14.7303 3.34762 14.5708 3.46523 14.4532C3.58283 14.3356 3.74233 14.2695 3.90864 14.2695ZM30.9388 22.1737H28.8899V14.882C28.8899 14.7157 28.956 14.5562 29.0736 14.4386C29.1912 14.321 29.3507 14.2549 29.517 14.2549H31.092C31.2583 14.2549 31.4178 14.321 31.5354 14.4386C31.653 14.5562 31.7191 14.7157 31.7191 14.882V21.3716C31.7191 21.5785 31.6369 21.777 31.4905 21.9233C31.3442 22.0696 31.1458 22.1518 30.9388 22.1518V22.1737Z" stroke="#19A7CE" stroke-width="2" stroke-linecap="round" stroke-linejoin="round"/>
<path d="M18.2291 17.7549H28.1531C28.3464 17.7549 28.5319 17.8317 28.6687 17.9685C28.8054 18.1052 28.8822 18.2907 28.8822 18.484V22.1299H17.4999V18.484C17.4999 18.2907 17.5768 18.1052 17.7135 17.9685C17.8502 17.8317 18.0357 17.7549 18.2291 17.7549ZM6.11035 22.1736H8.34889V24.8934H6.11035V22.1736ZM26.651 22.1736H28.8895V24.8934H26.651V22.1736Z" stroke="#19A7CE" stroke-width="2" stroke-linecap="round" stroke-linejoin="round"/>
</svg>
