<svg width="30" height="30" viewBox="0 0 30 30" fill="none" xmlns="http://www.w3.org/2000/svg">
<path d="M15 17.8371L13.3 16.2496C11.3344 14.4261 8.88816 13.203 6.25 12.7246V21.4121C9.5125 21.8371 12.5 23.0871 15 24.9371C17.5 23.0871 20.4875 21.8371 23.75 21.4121V12.7246C21.05 13.2121 18.6375 14.4621 16.7 16.2496M23.75 10.1871C24.5625 10.0621 25.4 9.99962 26.25 9.99962V23.7496C21.875 23.7496 17.95 25.4371 15 28.1746C12.05 25.4371 8.125 23.7496 3.75 23.7496V9.99962C4.6 9.99962 5.4375 10.0621 6.25 10.1871C9.6125 10.6996 12.625 12.2246 15 14.4246C17.375 12.2246 20.3875 10.6996 23.75 10.1871ZM15 7.49962C15.3375 7.49962 15.625 7.37462 15.8875 7.13712C16.125 6.87462 16.25 6.58712 16.25 6.24962C16.25 5.91212 16.125 5.62462 15.8875 5.36212C15.625 5.13712 15.3375 4.99962 15 4.99962C14.6625 4.99962 14.375 5.13712 14.1125 5.36212C13.8875 5.62462 13.75 5.92462 13.75 6.24962C13.75 6.57462 13.8875 6.87462 14.1125 7.13712C14.375 7.37462 14.675 7.49962 15 7.49962ZM17.65 8.89962C16.9472 9.60244 15.9939 9.99728 15 9.99728C14.0061 9.99728 13.0528 9.60244 12.35 8.89962C11.6472 8.1968 11.2523 7.24356 11.2523 6.24962C11.2523 5.25568 11.6472 4.30244 12.35 3.59962C12.698 3.25162 13.1111 2.97557 13.5658 2.78723C14.0205 2.59889 14.5078 2.50195 15 2.50195C15.4922 2.50195 15.9795 2.59889 16.4342 2.78723C16.8889 2.97557 17.302 3.25162 17.65 3.59962C17.998 3.94762 18.2741 4.36076 18.4624 4.81545C18.6507 5.27014 18.7477 5.75747 18.7477 6.24962C18.7477 6.74177 18.6507 7.2291 18.4624 7.68379C18.2741 8.13848 17.998 8.55162 17.65 8.89962Z" fill="#19A7CE"/>
</svg>
