<svg width="30" height="30" viewBox="0 0 30 30" fill="none" xmlns="http://www.w3.org/2000/svg">
<path d="M25.3125 8.43718H21.2016C21.2473 8.39851 21.2941 8.36101 21.3387 8.32C21.6946 8.0038 21.9814 7.61756 22.1812 7.18545C22.3811 6.75333 22.4896 6.28463 22.5 5.80867C22.5154 5.28797 22.4242 4.76963 22.232 4.28545C22.0398 3.80127 21.7507 3.36148 21.3824 2.99308C21.0141 2.62468 20.5744 2.33544 20.0903 2.14311C19.6062 1.95079 19.0879 1.85944 18.5672 1.87468C18.091 1.88494 17.6221 1.99338 17.1898 2.19321C16.7574 2.39304 16.371 2.67996 16.0547 3.03601C15.617 3.54331 15.2611 4.11583 15 4.73289C14.7389 4.11583 14.383 3.54331 13.9453 3.03601C13.629 2.67996 13.2426 2.39304 12.8102 2.19321C12.3779 1.99338 11.909 1.88494 11.4328 1.87468C10.9121 1.85944 10.3938 1.95079 9.90967 2.14311C9.42555 2.33544 8.98585 2.62468 8.61756 2.99308C8.24926 3.36148 7.96015 3.80127 7.76798 4.28545C7.5758 4.76963 7.48461 5.28797 7.5 5.80867C7.51042 6.28463 7.61893 6.75333 7.81876 7.18545C8.01858 7.61756 8.30542 8.0038 8.66133 8.32C8.70586 8.35867 8.75273 8.39617 8.79844 8.43718H4.6875C4.19022 8.43718 3.71331 8.63473 3.36167 8.98636C3.01004 9.33799 2.8125 9.8149 2.8125 10.3122V14.0622C2.8125 14.5595 3.01004 15.0364 3.36167 15.388C3.71331 15.7396 4.19022 15.9372 4.6875 15.9372V23.4372C4.6875 23.9345 4.88504 24.4114 5.23667 24.763C5.58831 25.1146 6.06522 25.3122 6.5625 25.3122H23.4375C23.9348 25.3122 24.4117 25.1146 24.7633 24.763C25.115 24.4114 25.3125 23.9345 25.3125 23.4372V15.9372C25.8098 15.9372 26.2867 15.7396 26.6383 15.388C26.99 15.0364 27.1875 14.5595 27.1875 14.0622V10.3122C27.1875 9.8149 26.99 9.33799 26.6383 8.98636C26.2867 8.63473 25.8098 8.43718 25.3125 8.43718ZM17.4609 4.2782C17.6094 4.11428 17.7901 3.98282 17.9918 3.89207C18.1934 3.80132 18.4117 3.75324 18.6328 3.75085H18.6902C18.9494 3.75247 19.2057 3.80581 19.444 3.90774C19.6823 4.00966 19.8978 4.15812 20.078 4.34443C20.2582 4.53073 20.3994 4.75113 20.4933 4.9927C20.5873 5.23427 20.632 5.49215 20.625 5.75125C20.6226 5.97238 20.5745 6.19063 20.4838 6.39229C20.393 6.59396 20.2616 6.77468 20.0977 6.92312C18.9855 7.9075 17.1398 8.25437 15.9961 8.37625C16.1367 7.13523 16.5234 5.33171 17.4609 4.2782ZM9.95039 4.32039C10.3136 3.95721 10.8055 3.75211 11.3191 3.74968H11.3766C11.5977 3.75207 11.8159 3.80014 12.0176 3.89089C12.2193 3.98164 12.4 4.11311 12.5484 4.27703C13.5316 5.38796 13.8785 7.23015 14.0004 8.36921C12.8613 8.25203 11.0191 7.90046 9.9082 6.91726C9.74428 6.76882 9.61282 6.5881 9.52207 6.38643C9.43132 6.18477 9.38324 5.96652 9.38086 5.74539C9.37359 5.48199 9.41991 5.21986 9.51701 4.97491C9.6141 4.72995 9.75995 4.50727 9.9457 4.32039H9.95039ZM4.6875 10.3122H14.0625V14.0622H4.6875V10.3122ZM6.5625 15.9372H14.0625V23.4372H6.5625V15.9372ZM23.4375 23.4372H15.9375V15.9372H23.4375V23.4372ZM25.3125 14.0622H15.9375V10.3122H25.3125V14.0622Z" fill="#19A7CE"/>
</svg>
