<svg width="30" height="30" viewBox="0 0 30 30" fill="none" xmlns="http://www.w3.org/2000/svg">
<path d="M4.375 13.75V17.5C4.375 22.2137 4.375 24.5712 5.84 26.035C7.30375 27.5 9.66125 27.5 14.375 27.5H15.625C20.3387 27.5 22.6962 27.5 24.16 26.035C25.625 24.5712 25.625 22.2137 25.625 17.5V13.75" stroke="#19A7CE" stroke-width="2"/>
<path d="M11.8748 2.5H18.1248L18.9398 10.6463C18.9935 11.196 18.9315 11.7508 18.758 12.2752C18.5844 12.7995 18.303 13.2817 17.9319 13.6908C17.5608 14.0999 17.1083 14.4268 16.6033 14.6505C16.0983 14.8743 15.5521 14.9898 14.9998 14.9898C14.4474 14.9898 13.9012 14.8743 13.3962 14.6505C12.8913 14.4268 12.4387 14.0999 12.0676 13.6908C11.6965 13.2817 11.4151 12.7995 11.2416 12.2752C11.068 11.7508 11.0061 11.196 11.0598 10.6463L11.8748 2.5Z" stroke="#19A7CE" stroke-width="2"/>
<path d="M4.16253 6.68875C4.38503 5.57625 4.49628 5.02 4.72253 4.56875C4.95827 4.0988 5.29021 3.68367 5.69678 3.35031C6.10336 3.01696 6.57549 2.77282 7.08253 2.63375C7.57003 2.5 8.13753 2.5 9.27253 2.5H11.875L10.9688 11.5562C10.921 12.0745 10.7679 12.5776 10.5188 13.0347C10.2698 13.4917 9.93018 13.8932 9.52064 14.2144C9.11111 14.5356 8.64032 14.7699 8.1371 14.9029C7.63388 15.0358 7.10882 15.0647 6.59406 14.9877C6.0793 14.9107 5.58567 14.7294 5.14339 14.455C4.70111 14.1806 4.31949 13.8188 4.02189 13.3918C3.72429 12.9648 3.51697 12.4815 3.41262 11.9716C3.30827 11.4617 3.30909 10.9358 3.41503 10.4262L4.16253 6.68875ZM25.8375 6.68875C25.615 5.57625 25.5038 5.02 25.2775 4.56875C25.0418 4.0988 24.7098 3.68367 24.3033 3.35031C23.8967 3.01696 23.4246 2.77282 22.9175 2.63375C22.43 2.5 21.8625 2.5 20.7275 2.5H18.125L19.0313 11.5562C19.0791 12.0745 19.2322 12.5776 19.4812 13.0347C19.7302 13.4917 20.0699 13.8932 20.4794 14.2144C20.889 14.5356 21.3597 14.7699 21.863 14.9029C22.3662 15.0358 22.8912 15.0647 23.406 14.9877C23.9208 14.9107 24.4144 14.7294 24.8567 14.455C25.2989 14.1806 25.6806 13.8188 25.9782 13.3918C26.2758 12.9648 26.4831 12.4815 26.5874 11.9716C26.6918 11.4617 26.691 10.9358 26.585 10.4262L25.8375 6.68875Z" stroke="#19A7CE" stroke-width="2"/>
<path d="M11.875 26.875V23.125C11.875 21.9562 11.875 21.3725 12.1263 20.9375C12.2908 20.6525 12.5275 20.4158 12.8125 20.2513C13.2475 20 13.8312 20 15 20C16.1688 20 16.7525 20 17.1875 20.2513C17.4725 20.4158 17.7092 20.6525 17.8737 20.9375C18.125 21.3725 18.125 21.9562 18.125 23.125V26.875" stroke="#19A7CE" stroke-width="2" stroke-linecap="round"/>
</svg>
