<svg width="30" height="30" viewBox="0 0 30 30" fill="none" xmlns="http://www.w3.org/2000/svg">
<path d="M20.8683 3.99801H16.6977C15.9441 4.00041 15.9723 5.12361 16.6977 5.11701H20.8683V5.69121H16.6977C15.9483 5.68461 15.9759 6.80721 16.6977 6.81021H20.8683V7.39701H16.6977C15.9483 7.39701 15.9759 8.51901 16.6977 8.51601H20.8683V9.07521H16.6977C15.9639 9.08061 15.9759 10.2038 16.6977 10.2074H20.8683V10.7678H16.6977C15.9639 10.7654 15.9609 11.8868 16.6977 11.8868H20.8683V12.446H16.6977C15.9639 12.4484 15.9609 13.571 16.6977 13.5656H20.8683V14.1386H16.6977C15.9639 14.132 15.9609 15.2534 16.6977 15.2576H20.8683V15.8156H16.6977C15.9639 15.815 15.9759 16.9388 16.6977 16.9352H20.8683V27.8306C20.8707 29.4908 23.3925 29.4608 23.3997 27.8306V2.33361C23.3925 1.57521 22.7697 0.616409 21.7449 0.613409H16.6977C15.9441 0.614009 15.9723 1.73721 16.6977 1.73241L20.8683 1.74621V2.30421H16.6977C15.9453 2.30061 15.9735 3.42321 16.6977 3.42381H20.8683V3.99801ZM16.4109 23.3144C16.4085 21.3764 14.3997 19.292 11.9997 20.642V13.2296L10.4475 1.00461C10.4151 0.681209 10.1409 0.605009 9.95668 0.599609C9.76648 0.605009 9.38548 0.681209 9.34408 1.00461L7.79968 13.2296V20.642C5.39968 19.292 3.45568 21.3896 3.45508 23.2994C3.45568 24.9986 4.76368 26.3942 6.53368 26.39C8.31688 26.3942 9.59968 24.83 9.59968 23.2994V15.5996H10.1997V23.2994C10.1997 25.013 11.5269 26.2814 13.0017 26.3618C12.9771 27.3014 13.2837 28.6418 13.8609 29.1734C14.5377 29.7974 15.3435 28.9994 15.0129 28.3496C14.6937 27.7448 14.3805 27.3866 14.6349 26.066C15.6981 25.574 16.4085 24.5384 16.4109 23.3144ZM6.60208 24.839C6.19749 24.839 5.80947 24.6783 5.52339 24.3922C5.2373 24.1061 5.07658 23.7181 5.07658 23.3135C5.07658 22.9089 5.2373 22.5209 5.52339 22.2348C5.80947 21.9487 6.19749 21.788 6.60208 21.788C7.43368 21.7928 8.11108 22.475 8.11708 23.3144C8.11537 23.7166 7.9555 24.1019 7.67203 24.3872C7.38855 24.6725 7.00422 24.8348 6.60208 24.839ZM11.7447 23.3144C11.7461 22.9119 11.9059 22.5261 12.1895 22.2404C12.4731 21.9548 12.8578 21.7923 13.2603 21.788C13.6629 21.7916 14.0479 21.954 14.3316 22.2398C14.6152 22.5256 14.7747 22.9117 14.7753 23.3144C14.7747 23.7169 14.6151 24.1029 14.3314 24.3884C14.0477 24.6739 13.6628 24.8358 13.2603 24.839C12.8579 24.8354 12.4731 24.6733 12.1894 24.3879C11.9057 24.1025 11.7459 23.7168 11.7447 23.3144Z" fill="#19A7CE"/>
</svg>
