<svg width="32" height="33" viewBox="0 0 32 33" fill="none" xmlns="http://www.w3.org/2000/svg">
<path d="M14.27 4H16.74C18.3 4 19.56 5.27 19.56 6.82V6.84H19.6C20.95 6.84 22.04 7.93 22.04 9.28C22.04 10.63 20.95 11.72 19.6 11.72H16.3L11.5 14.04V11.72H11.44C10.09 11.72 9 10.63 9 9.28C9 7.93 10.09 6.84 11.44 6.84H11.45V6.82C11.45 5.26 12.71 4 14.27 4ZM19.61 15.72L11.5 19.65V21.81L19.61 17.89V15.72ZM19.6 27.14H16.527L19.61 25.65V23.49L12.059 27.14H11.44C10.09 27.14 9 28.23 9 29.58C9 30.93 10.09 32.02 11.44 32.02H19.6C20.95 32.02 22.04 30.93 22.04 29.58C22.04 28.23 20.95 27.14 19.6 27.14Z" fill="#19A7CE"/>
<path d="M11.5 15.7598L19.61 11.8398V13.9998L11.5 17.9198V15.7598ZM11.5 23.5298L19.61 19.6098V21.7698L11.5 25.6898V23.5298Z" fill="#19A7CE"/>
</svg>
