<svg width="30" height="30" viewBox="0 0 30 30" fill="none" xmlns="http://www.w3.org/2000/svg">
<path d="M2.5 20H21.25V23.75H2.5V20ZM25.625 20H27.5V23.75H25.625V20ZM22.5 20H24.375V23.75H22.5V20ZM23.5625 9.6625C24.3375 8.9 24.8125 7.85 24.8125 6.6875C24.8125 4.375 22.9375 2.5 20.625 2.5V4.375C21.875 4.375 22.9375 5.4125 22.9375 6.6875C22.9375 7.9625 21.875 9 20.625 9V10.875C23.425 10.875 25.625 13.1625 25.625 15.9625V18.75H27.5V15.95C27.5 13.175 25.9 10.775 23.5625 9.6625ZM20.0375 12.75H18.125C16.875 12.75 15.8125 11.525 15.8125 10.25C15.8125 8.975 16.875 8.0625 18.125 8.0625V6.1875C17.0144 6.1875 15.9493 6.62868 15.164 7.41399C14.3787 8.1993 13.9375 9.26441 13.9375 10.375C13.9375 11.4856 14.3787 12.5507 15.164 13.336C15.9493 14.1213 17.0144 14.5625 18.125 14.5625H20.0375C21.35 14.5625 22.5 15.4875 22.5 17.125V18.75H24.375V16.7C24.375 14.4375 22.375 12.75 20.0375 12.75Z" fill="#19A7CE"/>
</svg>
