<svg width="40" height="40" viewBox="0 0 40 40" fill="none" xmlns="http://www.w3.org/2000/svg">
<path d="M12.3337 11.667H7.66699C7.40178 11.667 7.14742 11.7723 6.95989 11.9599C6.77235 12.1474 6.66699 12.4018 6.66699 12.667V27.3337C6.66699 27.465 6.69286 27.595 6.74311 27.7163C6.79337 27.8377 6.86703 27.9479 6.95989 28.0408C7.05274 28.1336 7.16298 28.2073 7.28431 28.2575C7.40563 28.3078 7.53567 28.3337 7.66699 28.3337H12.3337C12.465 28.3337 12.595 28.3078 12.7163 28.2575C12.8377 28.2073 12.9479 28.1336 13.0408 28.0408C13.1336 27.9479 13.2073 27.8377 13.2575 27.7163C13.3078 27.595 13.3337 27.465 13.3337 27.3337V12.667C13.3337 12.4018 13.2283 12.1474 13.0408 11.9599C12.8532 11.7723 12.5989 11.667 12.3337 11.667ZM32.3337 11.667H27.667C27.4018 11.667 27.1474 11.7723 26.9599 11.9599C26.7723 12.1474 26.667 12.4018 26.667 12.667V27.3337C26.667 27.465 26.6929 27.595 26.7431 27.7163C26.7934 27.8377 26.867 27.9479 26.9599 28.0408C27.0527 28.1336 27.163 28.2073 27.2843 28.2575C27.4056 28.3078 27.5357 28.3337 27.667 28.3337H32.3337C32.465 28.3337 32.595 28.3078 32.7163 28.2575C32.8377 28.2073 32.9479 28.1336 33.0408 28.0408C33.1336 27.9479 33.2073 27.8377 33.2575 27.7163C33.3078 27.595 33.3337 27.465 33.3337 27.3337V12.667C33.3337 12.4018 33.2283 12.1474 33.0408 11.9599C32.8532 11.7723 32.5989 11.667 32.3337 11.667Z" stroke="#19A7CE" stroke-width="3" stroke-linecap="round" stroke-linejoin="round"/>
<path d="M13.3337 20H26.667M1.66699 24V16C1.66699 15.7348 1.77235 15.4804 1.95989 15.2929C2.14742 15.1054 2.40178 15 2.66699 15H5.66699C5.93221 15 6.18656 15.1054 6.3741 15.2929C6.56164 15.4804 6.66699 15.7348 6.66699 16V24C6.66699 24.2652 6.56164 24.5196 6.3741 24.7071C6.18656 24.8946 5.93221 25 5.66699 25H2.66699C2.40178 25 2.14742 24.8946 1.95989 24.7071C1.77235 24.5196 1.66699 24.2652 1.66699 24ZM38.3337 24V16C38.3337 15.7348 38.2283 15.4804 38.0408 15.2929C37.8532 15.1054 37.5989 15 37.3337 15H34.3337C34.0684 15 33.8141 15.1054 33.6266 15.2929C33.439 15.4804 33.3337 15.7348 33.3337 16V24C33.3337 24.2652 33.439 24.5196 33.6266 24.7071C33.8141 24.8946 34.0684 25 34.3337 25H37.3337C37.5989 25 37.8532 24.8946 38.0408 24.7071C38.2283 24.5196 38.3337 24.2652 38.3337 24Z" stroke="#19A7CE" stroke-width="3" stroke-linecap="round" stroke-linejoin="round"/>
</svg>
