<svg width="30" height="30" viewBox="0 0 30 30" fill="none" xmlns="http://www.w3.org/2000/svg">
<path d="M8.75 22.5H12.5V17.5H13.75V14.375C13.75 13.6875 13.5054 13.0992 13.0163 12.61C12.5271 12.1208 11.9383 11.8758 11.25 11.875H10C9.3125 11.875 8.72417 12.12 8.235 12.61C7.74583 13.1 7.50083 13.6883 7.5 14.375V17.5H8.75V22.5ZM10.625 10.625C11.0625 10.625 11.4325 10.4738 11.735 10.1713C12.0375 9.86875 12.1883 9.49917 12.1875 9.0625C12.1875 8.625 12.0363 8.255 11.7338 7.9525C11.4313 7.65 11.0617 7.49917 10.625 7.5C10.1875 7.5 9.8175 7.65125 9.515 7.95375C9.2125 8.25625 9.06167 8.62583 9.0625 9.0625C9.0625 9.5 9.21375 9.87 9.51625 10.1725C9.81875 10.475 10.1883 10.6258 10.625 10.625ZM16.25 13.75H22.5L19.375 8.75L16.25 13.75ZM19.375 21.25L22.5 16.25H16.25L19.375 21.25ZM6.25 26.25C5.5625 26.25 4.97417 26.0054 4.485 25.5163C3.99583 25.0271 3.75083 24.4383 3.75 23.75V6.25C3.75 5.5625 3.995 4.97417 4.485 4.485C4.975 3.99583 5.56333 3.75083 6.25 3.75H23.75C24.4375 3.75 25.0263 3.995 25.5163 4.485C26.0063 4.975 26.2508 5.56333 26.25 6.25V23.75C26.25 24.4375 26.0054 25.0263 25.5163 25.5163C25.0271 26.0063 24.4383 26.2508 23.75 26.25H6.25ZM6.25 23.75H23.75V6.25H6.25V23.75Z" fill="#19A7CE"/>
</svg>
