<svg width="30" height="30" viewBox="0 0 30 30" fill="none" xmlns="http://www.w3.org/2000/svg">
<path d="M11.25 6.25C11.25 6.91304 11.5134 7.54893 11.9822 8.01777C12.4511 8.48661 13.087 8.75 13.75 8.75C14.413 8.75 15.0489 8.48661 15.5178 8.01777C15.9866 7.54893 16.25 6.91304 16.25 6.25C16.25 5.58696 15.9866 4.95107 15.5178 4.48223C15.0489 4.01339 14.413 3.75 13.75 3.75C13.087 3.75 12.4511 4.01339 11.9822 4.48223C11.5134 4.95107 11.25 5.58696 11.25 6.25Z" stroke="#19A7CE" stroke-width="2" stroke-linecap="round" stroke-linejoin="round"/>
<path d="M13.7503 8.75V18.75H18.7503L23.7503 25M13.7503 13.75H20.0003M8.75026 14.375C7.85462 14.7459 7.05755 15.3201 6.42204 16.0521C5.78652 16.7841 5.33 17.6539 5.08856 18.5928C4.84712 19.5316 4.82737 20.5138 5.03089 21.4615C5.2344 22.4093 5.6556 23.2968 6.26117 24.0538C6.86675 24.8107 7.64011 25.4165 8.52011 25.8231C9.40011 26.2297 10.3626 26.426 11.3316 26.3965C12.3005 26.3671 13.2493 26.1126 14.103 25.6533C14.9567 25.194 15.6918 24.5424 16.2503 23.75" stroke="#19A7CE" stroke-width="2" stroke-linecap="round" stroke-linejoin="round"/>
</svg>
