<svg width="30" height="30" viewBox="0 0 30 30" fill="none" xmlns="http://www.w3.org/2000/svg">
<path d="M24.6879 6.6625C24.2735 6.6625 23.8761 6.82712 23.583 7.12015C23.29 7.41317 23.1254 7.8106 23.1254 8.225V13.9625H22.0879V5.1C22.0879 4.6856 21.9233 4.28817 21.6302 3.99515C21.3372 3.70212 20.9398 3.5375 20.5254 3.5375C20.111 3.5375 19.7136 3.70212 19.4205 3.99515C19.1275 4.28817 18.9629 4.6856 18.9629 5.1V13.9625H17.9129V4.0625C17.9129 3.6481 17.7483 3.25067 17.4552 2.95765C17.1622 2.66462 16.7648 2.5 16.3504 2.5C15.936 2.5 15.5386 2.66462 15.2455 2.95765C14.9525 3.25067 14.7879 3.6481 14.7879 4.0625V13.9625H13.7504V6.6625C13.7504 6.2481 13.5858 5.85067 13.2927 5.55765C12.9997 5.26462 12.6023 5.1 12.1879 5.1C11.7735 5.1 11.3761 5.26462 11.083 5.55765C10.79 5.85067 10.6254 6.2481 10.6254 6.6625V19.075L6.13789 16.575C5.9486 16.4627 5.733 16.4023 5.51289 16.4C5.20905 16.4004 4.91577 16.5115 4.68789 16.7125L3.33789 17.9625L11.5129 26.25C11.8974 26.6467 12.3579 26.9618 12.8669 27.1765C13.3759 27.3913 13.9229 27.5013 14.4754 27.5H22.0879C23.1919 27.5 24.2506 27.0615 25.0312 26.2808C25.8118 25.5002 26.2504 24.4415 26.2504 23.3375V8.225C26.2504 7.8106 26.0858 7.41317 25.7927 7.12015C25.4997 6.82712 25.1023 6.6625 24.6879 6.6625ZM13.7504 18.75C13.5032 18.75 13.2615 18.6767 13.0559 18.5393C12.8504 18.402 12.6902 18.2068 12.5955 17.9784C12.5009 17.7499 12.4762 17.4986 12.5244 17.2561C12.5726 17.0137 12.6917 16.7909 12.8665 16.6161C13.0413 16.4413 13.2641 16.3222 13.5065 16.274C13.749 16.2258 14.0003 16.2505 14.2287 16.3452C14.4572 16.4398 14.6524 16.6 14.7897 16.8055C14.9271 17.0111 15.0004 17.2528 15.0004 17.5C15.0004 17.8315 14.8687 18.1495 14.6343 18.3839C14.3999 18.6183 14.0819 18.75 13.7504 18.75ZM16.2504 22.5C16.0032 22.5 15.7615 22.4267 15.5559 22.2893C15.3504 22.152 15.1902 21.9568 15.0955 21.7284C15.0009 21.4999 14.9762 21.2486 15.0244 21.0061C15.0726 20.7637 15.1917 20.5409 15.3665 20.3661C15.5413 20.1913 15.7641 20.0722 16.0065 20.024C16.249 19.9758 16.5003 20.0005 16.7287 20.0952C16.9572 20.1898 17.1524 20.35 17.2897 20.5555C17.4271 20.7611 17.5004 21.0028 17.5004 21.25C17.5004 21.5815 17.3687 21.8995 17.1343 22.1339C16.8999 22.3683 16.5819 22.5 16.2504 22.5ZM22.5004 20C22.2532 20 22.0115 19.9267 21.8059 19.7893C21.6004 19.652 21.4402 19.4568 21.3455 19.2284C21.2509 18.9999 21.2262 18.7486 21.2744 18.5061C21.3226 18.2637 21.4417 18.0409 21.6165 17.8661C21.7913 17.6913 22.0141 17.5722 22.2565 17.524C22.499 17.4758 22.7503 17.5005 22.9787 17.5952C23.2072 17.6898 23.4024 17.85 23.5397 18.0555C23.6771 18.2611 23.7504 18.5028 23.7504 18.75C23.7504 19.0815 23.6187 19.3995 23.3843 19.6339C23.1499 19.8683 22.8319 20 22.5004 20ZM21.2504 23.75C21.0032 23.75 20.7615 23.6767 20.5559 23.5393C20.3504 23.402 20.1902 23.2068 20.0955 22.9784C20.0009 22.7499 19.9762 22.4986 20.0244 22.2561C20.0726 22.0137 20.1917 21.7909 20.3665 21.6161C20.5413 21.4413 20.7641 21.3222 21.0065 21.274C21.249 21.2258 21.5003 21.2505 21.7287 21.3452C21.9572 21.4398 22.1524 21.6 22.2897 21.8055C22.4271 22.0111 22.5004 22.2528 22.5004 22.5C22.5004 22.8315 22.3687 23.1495 22.1343 23.3839C21.8999 23.6183 21.5819 23.75 21.2504 23.75ZM18.7504 18.75C18.5032 18.75 18.2615 18.6767 18.0559 18.5393C17.8504 18.402 17.6902 18.2068 17.5955 17.9784C17.5009 17.7499 17.4762 17.4986 17.5244 17.2561C17.5726 17.0137 17.6917 16.7909 17.8665 16.6161C18.0413 16.4413 18.2641 16.3222 18.5065 16.274C18.749 16.2258 19.0003 16.2505 19.2287 16.3452C19.4572 16.4398 19.6524 16.6 19.7897 16.8055C19.9271 17.0111 20.0004 17.2528 20.0004 17.5C20.0004 17.8315 19.8687 18.1495 19.6343 18.3839C19.3999 18.6183 19.0819 18.75 18.7504 18.75Z" fill="#19A7CE"/>
</svg>
