<svg width="30" height="30" viewBox="0 0 30 30" fill="none" xmlns="http://www.w3.org/2000/svg">
<path d="M23.75 2.5H6.25C5.55964 2.5 5 3.05964 5 3.75V26.25C5 26.9404 5.55964 27.5 6.25 27.5H23.75C24.4404 27.5 25 26.9404 25 26.25V3.75C25 3.05964 24.4404 2.5 23.75 2.5Z" stroke="#19A7CE" stroke-width="2" stroke-linecap="round" stroke-linejoin="round"/>
<path d="M15 12.5C16.7259 12.5 18.125 11.1009 18.125 9.375C18.125 7.64911 16.7259 6.25 15 6.25C13.2741 6.25 11.875 7.64911 11.875 9.375C11.875 11.1009 13.2741 12.5 15 12.5Z" stroke="#19A7CE" stroke-width="2"/>
<path d="M8.75 7.5C9.44036 7.5 10 6.94036 10 6.25C10 5.55964 9.44036 5 8.75 5C8.05964 5 7.5 5.55964 7.5 6.25C7.5 6.94036 8.05964 7.5 8.75 7.5Z" fill="#19A7CE"/>
<path d="M8.75 25C9.44036 25 10 24.4404 10 23.75C10 23.0596 9.44036 22.5 8.75 22.5C8.05964 22.5 7.5 23.0596 7.5 23.75C7.5 24.4404 8.05964 25 8.75 25Z" fill="#19A7CE"/>
<path d="M21.25 7.5C21.9404 7.5 22.5 6.94036 22.5 6.25C22.5 5.55964 21.9404 5 21.25 5C20.5596 5 20 5.55964 20 6.25C20 6.94036 20.5596 7.5 21.25 7.5Z" fill="#19A7CE"/>
<path d="M21.25 25C21.9404 25 22.5 24.4404 22.5 23.75C22.5 23.0596 21.9404 22.5 21.25 22.5C20.5596 22.5 20 23.0596 20 23.75C20 24.4404 20.5596 25 21.25 25Z" fill="#19A7CE"/>
<path d="M15 23.75C17.0711 23.75 18.75 22.0711 18.75 20C18.75 17.9289 17.0711 16.25 15 16.25C12.9289 16.25 11.25 17.9289 11.25 20C11.25 22.0711 12.9289 23.75 15 23.75Z" stroke="#19A7CE" stroke-width="2"/>
</svg>
