<svg width="30" height="30" viewBox="0 0 30 30" fill="none" xmlns="http://www.w3.org/2000/svg">
<path d="M9.33418 2.95801C9.08554 2.95801 8.84708 3.05678 8.67127 3.2326C8.49545 3.40841 8.39668 3.64687 8.39668 3.89551C8.39676 4.05537 8.43771 4.21256 8.51565 4.35214C8.59359 4.49171 8.70593 4.60904 8.84199 4.69297C8.73067 5.73359 8.46699 6.86152 8.01582 7.6584C7.67598 8.25605 7.28926 8.66035 6.76192 8.8127C6.81992 8.67756 6.84983 8.53203 6.84981 8.38496C6.84981 8.09747 6.7356 7.82175 6.53231 7.61847C6.32903 7.41518 6.05331 7.30098 5.76582 7.30098C5.47833 7.30098 5.20262 7.41518 4.99933 7.61847C4.79604 7.82175 4.68184 8.09747 4.68184 8.38496C4.68178 8.63855 4.77063 8.88412 4.93293 9.07897C5.09523 9.27381 5.3207 9.40559 5.57012 9.45137L5.59649 9.55684C5.66094 10.9982 5.63223 12.7443 5.19512 13.9396C4.97012 14.5607 4.6543 15.0061 4.22832 15.2639C3.95645 15.4279 3.62246 15.5334 3.18711 15.5275C3.31634 15.3309 3.38519 15.1007 3.38516 14.8654C3.38539 14.707 3.35438 14.5501 3.29392 14.4037C3.23345 14.2572 3.14471 14.1241 3.03276 14.012C2.92082 13.8999 2.78787 13.811 2.64153 13.7503C2.49518 13.6896 2.33831 13.6584 2.17988 13.6584C2.02146 13.6584 1.86459 13.6896 1.71824 13.7503C1.57189 13.811 1.43895 13.8999 1.32701 14.012C1.21506 14.1241 1.12632 14.2572 1.06585 14.4037C1.00538 14.5501 0.97438 14.707 0.974611 14.8654C0.974149 15.1497 1.07415 15.4249 1.25695 15.6426C1.43976 15.8602 1.6936 16.0062 1.97363 16.0549L5.11719 27.3283L5.31055 27.2756L5.74883 25.6701L3.21524 16.5822C3.81231 16.5764 4.33613 16.4357 4.77442 16.1662C5.46699 15.7502 5.90645 15.0646 6.1877 14.3029C6.32246 13.9338 6.42207 13.5471 6.49238 13.1428L7.76973 18.2521L8.33223 16.1838L6.76192 9.8791C7.72285 9.6916 8.46699 9.01191 8.93574 8.17402C9.07637 7.92793 9.19356 7.66426 9.29902 7.39473L9.7502 10.9924L10.4768 8.33223L10.0021 4.55059C10.1742 4.37588 10.271 4.14071 10.2717 3.89551C10.2717 3.64687 10.1729 3.40841 9.99709 3.2326C9.82128 3.05678 9.58282 2.95801 9.33418 2.95801ZM20.6662 2.95801C20.4176 2.95801 20.1791 3.05678 20.0033 3.2326C19.8275 3.40841 19.7287 3.64687 19.7287 3.89551C19.7294 4.14071 19.8262 4.37588 19.9982 4.55059L19.5236 8.33223L20.2502 10.9924L20.7014 7.39473C20.8068 7.66426 20.924 7.92793 21.0646 8.17402C21.5334 9.01191 22.2775 9.6916 23.2385 9.8791L21.6682 16.1838L22.2307 18.2521L23.508 13.1428C23.5783 13.5412 23.6779 13.9338 23.8127 14.3029C24.0939 15.0646 24.5334 15.7502 25.2248 16.1662C25.6643 16.4357 26.1857 16.5764 26.7834 16.5822L24.2521 25.6643L24.6916 27.2756L24.885 27.3283L28.0256 16.0549C28.3062 16.0069 28.5607 15.8611 28.7441 15.6434C28.9275 15.4257 29.0279 15.1501 29.0275 14.8654C29.0278 14.7069 28.9967 14.5498 28.9361 14.4032C28.8756 14.2567 28.7867 14.1235 28.6745 14.0114C28.5624 13.8993 28.4292 13.8104 28.2827 13.7498C28.1361 13.6892 27.9791 13.6582 27.8205 13.6584C27.6619 13.6582 27.5049 13.6892 27.3583 13.7498C27.2118 13.8104 27.0786 13.8993 26.9665 14.0114C26.8544 14.1235 26.7655 14.2567 26.7049 14.4032C26.6443 14.5498 26.6132 14.7069 26.6135 14.8654C26.6138 15.1009 26.6831 15.331 26.8127 15.5275C26.3732 15.5334 26.0451 15.4279 25.7697 15.2639C25.3479 15.0061 25.0314 14.5607 24.8029 13.9396C24.3693 12.7443 24.34 10.9924 24.4045 9.55098L24.4279 9.45137C24.6778 9.40607 24.9038 9.27451 25.0666 9.07962C25.2293 8.88473 25.3185 8.63888 25.3186 8.38496C25.3186 8.09747 25.2044 7.82175 25.0011 7.61847C24.7978 7.41518 24.5221 7.30098 24.2346 7.30098C24.2326 7.30097 24.2307 7.30097 24.2287 7.30098C23.9422 7.30252 23.668 7.41741 23.466 7.62053C23.264 7.82365 23.1506 8.09848 23.1506 8.38496C23.1506 8.53203 23.1805 8.67756 23.2385 8.8127C22.7111 8.66035 22.3244 8.25605 21.9846 7.6584C21.5334 6.86152 21.2697 5.73359 21.1584 4.69297C21.2945 4.60904 21.4068 4.49171 21.4847 4.35214C21.5627 4.21256 21.6036 4.05537 21.6037 3.89551C21.6037 3.64687 21.5049 3.40841 21.3291 3.2326C21.1533 3.05678 20.9149 2.95801 20.6662 2.95801ZM11.6545 8.02754L6.3166 27.5979H23.6838L18.3459 8.02754H11.6545Z" fill="#19A7CE"/>
</svg>
