<svg width="30" height="30" viewBox="0 0 30 30" fill="none" xmlns="http://www.w3.org/2000/svg">
<path d="M1.40625 5.09766V6.15211H29.0625V5.09766H1.40625ZM8.85 11.7823C8.58551 11.7779 8.32031 11.9087 8.32031 12.1874V15.7609L9.375 13.7687V12.1874C9.37811 11.9259 9.11437 11.7866 8.85 11.7823ZM21.15 11.7823C20.8856 11.7866 20.6219 11.9259 20.625 12.1874V13.7687L21.6797 15.7609V12.1874C21.6797 11.9087 21.4145 11.7779 21.15 11.7823ZM10.63 13.6522L4.23979 25.7225H8.77611L11.9712 13.6522H10.63ZM13.0621 13.6522L12.3487 16.3475H14.4727V13.6522H13.0621ZM15.5273 13.6522V21.035H18.832L16.8235 13.6522H15.5273ZM17.9165 13.6522L21.9656 28.535H23.0164L22.3457 25.6171L24.1737 28.535H27.2492L19.37 13.6522H17.9165ZM3.75 16.4647C3.30352 16.4647 2.90332 16.5619 2.65992 16.6835C2.46826 16.7794 2.41934 16.8581 2.40691 16.8749C2.41934 16.8917 2.46826 16.9704 2.65992 17.0662C2.90332 17.1879 3.30352 17.285 3.75 17.285C4.19648 17.285 4.59668 17.1879 4.84008 17.0662C5.03174 16.9704 5.08066 16.8916 5.09309 16.8749C5.08066 16.8581 5.03174 16.7794 4.84008 16.6835C4.59668 16.5619 4.19648 16.4647 3.75 16.4647ZM5.09309 16.8749C5.09643 16.8794 5.09766 16.8804 5.09766 16.8749C5.09766 16.8693 5.09643 16.8704 5.09309 16.8749ZM2.40691 16.8749C2.40357 16.8704 2.40234 16.8694 2.40234 16.8749C2.40234 16.8804 2.40357 16.8794 2.40691 16.8749ZM26.25 16.4647C25.8035 16.4647 25.4033 16.5619 25.1599 16.6835C24.9683 16.7794 24.9193 16.8581 24.9069 16.8749C24.9193 16.8917 24.9683 16.9704 25.1599 17.0662C25.4033 17.1879 25.8035 17.285 26.25 17.285C26.6965 17.285 27.0967 17.1879 27.3401 17.0662C27.5317 16.9704 27.5807 16.8916 27.5931 16.8749C27.5807 16.8581 27.5317 16.7794 27.3401 16.6835C27.0967 16.5619 26.6965 16.4647 26.25 16.4647ZM27.5931 16.8749C27.5964 16.8794 27.5977 16.8804 27.5977 16.8749C27.5977 16.8693 27.5964 16.8704 27.5931 16.8749ZM24.9069 16.8749C24.9036 16.8704 24.9023 16.8693 24.9023 16.8749C24.9023 16.8804 24.9036 16.8794 24.9069 16.8749ZM12.0694 17.4022L9.12252 28.535H10.4643L11.358 24.0328L11.1518 28.535H14.4727V17.4022H12.0694ZM2.40234 18.1044V26.9393L5.09766 21.8481V18.1044C4.70508 18.2596 4.24594 18.3397 3.75 18.3397C3.25406 18.3397 2.79492 18.2596 2.40234 18.1044ZM24.9023 18.1044V21.8481L27.5977 26.9393V18.1044C27.2051 18.2596 26.7459 18.3397 26.25 18.3397C25.7541 18.3397 25.2949 18.2596 24.9023 18.1044ZM3.32244 19.2347C3.58131 19.2347 3.79119 19.6544 3.79119 20.1722C3.79119 20.6899 3.58131 21.1097 3.32244 21.1097C3.06357 21.1097 2.85369 20.6899 2.85369 20.1722C2.85369 19.6544 3.06357 19.2347 3.32244 19.2347ZM15.5273 22.0897V28.535H20.8726L19.1191 22.0897H15.5273ZM3.68145 26.7772L2.7508 28.535H8.03168L8.49703 26.7772H3.68145Z" fill="#19A7CE"/>
</svg>
