<svg width="25" height="20" viewBox="0 0 25 20" fill="none" xmlns="http://www.w3.org/2000/svg">
<path d="M0 20V15C0 13.1667 0.489583 11.5972 1.46875 10.2917C2.44792 8.98611 3.625 8.33333 5 8.33333H16.25V6.66667C16.25 6.19444 16.13 5.79889 15.89 5.48C15.65 5.16111 15.3533 5.00111 15 5H10C9.64583 5 9.34917 5.16 9.11 5.48C8.87083 5.8 8.75083 6.19556 8.75 6.66667H6.25C6.25 5.27778 6.61458 4.09722 7.34375 3.125C8.07292 2.15278 8.95833 1.66667 10 1.66667H15C16.0417 1.66667 16.9271 2.15278 17.6562 3.125C18.3854 4.09722 18.75 5.27778 18.75 6.66667V13.3333C19.1042 13.3333 19.4012 13.1733 19.6412 12.8533C19.8812 12.5333 20.0008 12.1378 20 11.6667V5C20 3.61111 20.3646 2.43056 21.0938 1.45833C21.8229 0.486111 22.7083 0 23.75 0H25V3.33333H23.75C23.3958 3.33333 23.0992 3.49333 22.86 3.81333C22.6208 4.13333 22.5008 4.52889 22.5 5V11.6667C22.5 13.0556 22.1354 14.2361 21.4062 15.2083C20.6771 16.1806 19.7917 16.6667 18.75 16.6667V20H0ZM2.5 16.6667H16.25V11.6667H5C4.3125 11.6667 3.72417 11.9933 3.235 12.6467C2.74583 13.3 2.50083 14.0844 2.5 15V16.6667Z" fill="#19A7CE"/>
</svg>
