<svg width="30" height="30" viewBox="0 0 30 30" fill="none" xmlns="http://www.w3.org/2000/svg">
<g clip-path="url(#clip0_1115_1307)">
<path d="M22.5 2.5C23.1307 2.4998 23.7382 2.73801 24.2007 3.16687C24.6632 3.59573 24.9464 4.18356 24.9938 4.8125L25 5V25C25.0002 25.6307 24.762 26.2382 24.3331 26.7007C23.9043 27.1632 23.3164 27.4464 22.6875 27.4938L22.5 27.5H7.5C6.86928 27.5002 6.26179 27.262 5.79932 26.8331C5.33684 26.4043 5.05355 25.8164 5.00625 25.1875L5 25V5C4.9998 4.36928 5.23801 3.76179 5.66687 3.29932C6.09573 2.83684 6.68356 2.55355 7.3125 2.50625L7.5 2.5H22.5ZM22.5 21.875H16.25V25H22.5V21.875ZM13.75 5H7.5V25H13.75V5ZM22.5 16.25H16.25V19.375H22.5V16.25ZM11.25 13.75C11.5686 13.7504 11.875 13.8723 12.1067 14.0911C12.3384 14.3098 12.4778 14.6087 12.4965 14.9267C12.5151 15.2448 12.4117 15.558 12.2072 15.8023C12.0027 16.0466 11.7126 16.2036 11.3962 16.2413L11.25 16.25H10C9.6814 16.2496 9.37496 16.1277 9.14329 15.9089C8.91162 15.6902 8.77221 15.3913 8.75354 15.0733C8.73486 14.7552 8.83834 14.442 9.04283 14.1977C9.24732 13.9534 9.53738 13.7964 9.85375 13.7587L10 13.75H11.25ZM22.5 10.625H16.25V13.75H22.5V10.625ZM22.5 5H16.25V8.125H22.5V5Z" fill="#19A7CE"/>
</g>
<defs>
<clipPath id="clip0_1115_1307">
<rect width="30" height="30" fill="white"/>
</clipPath>
</defs>
</svg>
