<svg width="48" height="48" viewBox="0 0 48 48" fill="none" xmlns="http://www.w3.org/2000/svg">
<path d="M7.36605 14.8012C6.45713 16.9449 5.99449 19.2138 6.00005 21.5003C6.00005 23.8734 6.48605 26.1353 7.36605 28.1986M11.272 33.8748C12.93 35.4866 14.9101 36.786 17.1101 37.6724C19.2695 38.547 21.6205 39 24 39C26.3796 39 28.7306 38.547 30.89 37.6724C33.09 36.786 35.0701 35.4866 36.7281 33.8748M40.634 28.1986C41.5428 26.0551 42.0055 23.7866 42 21.5003C42.0055 19.2138 41.5429 16.945 40.634 14.8012M36.7281 9.12585C35.0701 7.51319 33.09 6.21379 30.89 5.32828C28.7307 4.45345 26.3796 4.00021 24 4C19.03 4 14.53 5.95829 11.272 9.12585" stroke="#19A7CE" stroke-width="4" stroke-linecap="round"/>
<path d="M18 20.6251C18.7956 20.6251 19.5587 20.3485 20.1213 19.8562C20.6839 19.3639 21 18.6963 21 18.0001C21 17.3038 20.6839 16.6362 20.1213 16.1439C19.5587 15.6516 18.7956 15.375 18 15.375C17.2044 15.375 16.4413 15.6516 15.8787 16.1439C15.3161 16.6362 15 17.3038 15 18.0001C15 18.6963 15.3161 19.3639 15.8787 19.8562C16.4413 20.3485 17.2044 20.6251 18 20.6251ZM30 20.6251C30.7956 20.6251 31.5587 20.3485 32.1213 19.8562C32.6839 19.3639 33 18.6963 33 18.0001C33 17.3038 32.6839 16.6362 32.1213 16.1439C31.5587 15.6516 30.7956 15.375 30 15.375C29.2044 15.375 28.4413 15.6516 27.8787 16.1439C27.3161 16.6362 27 17.3038 27 18.0001C27 18.6963 27.3161 19.3639 27.8787 19.8562C28.4413 20.3485 29.2044 20.6251 30 20.6251ZM24 31.1253C26.761 31.1253 29 29.9502 29 28.5003C29 27.0504 26.761 25.8752 24 25.8752C21.239 25.8752 19 27.0504 19 28.5003C19 29.9502 21.239 31.1253 24 31.1253Z" stroke="#19A7CE" stroke-width="4"/>
</svg>
