<svg width="30" height="30" viewBox="0 0 30 30" fill="none" xmlns="http://www.w3.org/2000/svg">
<path d="M27.6377 26.8248L26.0502 28.4123L22.1127 24.4748C21.7002 25.2623 21.1627 25.9623 20.5127 26.5623C19.5588 27.4615 18.3996 28.1137 17.136 28.4623C15.8723 28.8109 14.5426 28.8452 13.2627 28.5623C8.8752 27.6248 6.0877 23.2998 7.0252 18.9123C7.3377 17.4373 8.0627 16.0873 9.1002 14.9998C9.30505 14.7839 9.41925 14.4975 9.41925 14.1998C9.41925 13.9022 9.30505 13.6158 9.1002 13.3998C8.29286 12.3896 7.75908 11.1886 7.5502 9.91234L1.3877 3.74984L2.9877 2.16234L27.6377 26.8248ZM19.1252 24.4498C19.6127 23.9123 20.0002 23.2873 20.2377 22.5998L17.1877 19.5498C16.9627 19.8373 16.6127 19.9998 16.2502 19.9998C15.5627 19.9998 15.0002 19.4373 15.0002 18.7498C15.0002 18.3873 15.1627 18.0373 15.4502 17.8123L11.9377 14.2998C11.9127 15.2248 11.5502 16.0998 10.9127 16.7623C8.78769 19.0248 8.91269 22.5873 11.1752 24.7123L11.1877 24.7248C12.2778 25.7387 13.7254 26.2791 15.2133 26.2275C16.7011 26.176 18.1078 25.5367 19.1252 24.4498ZM17.5002 21.2498C15.8877 21.2498 15.9002 23.7498 17.5002 23.7498C19.1002 23.7498 19.1127 21.2498 17.5002 21.2498ZM8.6252 4.62484L10.5377 6.53734C10.8502 5.88734 11.3127 5.31234 11.8752 4.86234C12.7502 4.13734 13.8627 3.74984 15.0002 3.74984H16.1002C16.8377 3.92484 17.5002 4.26234 18.1252 4.73734C20.2752 6.46234 20.6252 9.61234 18.9002 11.7623C18.3725 12.4142 18.0777 13.2238 18.0627 14.0623L22.9002 18.8998C22.5877 17.4623 21.8752 16.1498 20.9002 15.0748C20.4627 14.6248 20.4127 13.9123 20.7752 13.3998C20.7752 13.3998 22.5002 11.2498 22.5002 8.74984C22.5002 6.24984 19.9627 1.24609 15.0002 1.24609C10.0377 1.24609 8.6252 4.62484 8.6252 4.62484ZM15.0002 21.2498C15.0002 19.6373 12.5002 19.6498 12.5002 21.2498C12.5002 22.8498 15.0002 22.8623 15.0002 21.2498ZM16.2502 6.24984C14.6377 6.24984 14.6502 8.74984 16.2502 8.74984C17.8502 8.74984 17.8627 6.24984 16.2502 6.24984Z" fill="#19A7CE"/>
</svg>
