<svg width="33" height="33" viewBox="0 0 33 33" fill="none" xmlns="http://www.w3.org/2000/svg">
<path d="M11.1374 18.3428L5.37611 12.5953C4.34602 11.5622 3.76758 10.1629 3.76758 8.704C3.76758 7.24514 4.34602 5.8458 5.37611 4.81275L15.0286 14.4378L11.1374 18.3428ZM20.4599 15.854L18.4386 17.8753L27.8986 27.3352L25.9599 29.274L16.4999 19.814L7.03986 29.274L5.10111 27.3352L18.5211 13.9153C17.5449 11.8115 18.2324 8.85525 20.4186 6.669C23.0449 4.029 26.8124 3.534 28.8199 5.5415C30.8411 7.56275 30.3461 11.3302 27.7061 13.9565C25.5199 16.1427 22.5636 16.8303 20.4599 15.854Z" fill="#19A7CE"/>
</svg>
