<svg width="30" height="30" viewBox="0 0 30 30" fill="none" xmlns="http://www.w3.org/2000/svg">
<path d="M16.25 2.5625V5.0875C21.1875 5.7 25 9.9 25 15C25 19.0125 22.6 22.5 19.1 24.1L16.25 21.25V27.5H22.5L20.975 25.975C24.8875 23.8375 27.5 19.7 27.5 15C27.5 8.525 22.5625 3.1875 16.25 2.5625ZM13.75 2.5C11.3125 2.75 9 3.7 7.1 5.2625L8.875 7.0375C10.2939 5.94373 11.9748 5.24119 13.75 5V2.5ZM5.25 7.1C3.7 9 2.75 11.3125 2.5 13.75H5C5.2375 11.975 5.9375 10.2875 7.0375 8.875L5.25 7.1ZM7.5 10V12.5H11.25V13.75H10C8.625 13.75 7.5 14.875 7.5 16.25V20H13.75V17.5H10V16.25H11.25C12.6375 16.25 13.75 15.1375 13.75 13.75V12.5C13.75 11.837 13.4866 11.2011 13.0178 10.7322C12.5489 10.2634 11.913 10 11.25 10H7.5ZM15 10V16.25H18.75V20H21.25V16.25H22.5V13.75H21.25V10H18.75V13.75H17.5V10H15ZM2.5 16.25C2.75 18.6875 3.7125 21 5.275 22.9L7.05 21.125C5.95251 19.707 5.24571 18.0262 5 16.25H2.5ZM8.8875 22.9625L7.1 24.7375C8.99922 26.2882 11.3111 27.2485 13.75 27.5V25C11.9771 24.7643 10.2988 24.0611 8.8875 22.9625Z" fill="#19A7CE"/>
</svg>
