<svg width="30" height="30" viewBox="0 0 30 30" fill="none" xmlns="http://www.w3.org/2000/svg">
<path d="M2.5 23.75V21.25H27.5V23.75H2.5ZM3.75 20V18.75C3.75 16.0833 4.56792 13.7292 6.20375 11.6875C7.83958 9.64583 9.93833 8.35417 12.5 7.8125V7.5C12.5 6.8125 12.745 6.22417 13.235 5.735C13.725 5.24583 14.3133 5.00083 15 5C15.6875 5 16.2763 5.245 16.7663 5.735C17.2563 6.225 17.5008 6.81333 17.5 7.5V7.8125C20.0833 8.35417 22.1875 9.64583 23.8125 11.6875C25.4375 13.7292 26.25 16.0833 26.25 18.75V20H3.75ZM6.3125 17.5H23.6875C23.3958 15.3333 22.4271 13.5417 20.7812 12.125C19.1354 10.7083 17.2083 10 15 10C12.7917 10 10.87 10.7083 9.235 12.125C7.6 13.5417 6.62583 15.3333 6.3125 17.5Z" fill="#19A7CE"/>
</svg>
