<svg width="34" height="34" viewBox="0 0 34 34" fill="none" xmlns="http://www.w3.org/2000/svg">
<path d="M5.3125 5.3125C3.56469 5.3125 2.125 6.75219 2.125 8.5V26.5625H5.47825C5.95213 28.3889 7.59475 29.75 9.5625 29.75C11.5302 29.75 13.1729 28.3889 13.6467 26.5625H21.4158C21.8896 28.3889 23.5323 29.75 25.5 29.75C27.4677 29.75 29.1104 28.3889 29.5842 26.5625H32.9375V15.4721C32.9323 14.8725 32.7597 14.2863 32.4392 13.7796L28.0904 6.80638C27.8057 6.34915 27.4092 5.97204 26.9383 5.71065C26.4674 5.44926 25.9377 5.31223 25.3991 5.3125H5.3125ZM5.3125 7.4375H10.625V13.8125H4.25V8.5C4.25 7.90181 4.71538 7.4375 5.3125 7.4375ZM12.75 7.4375H19.125V13.8125H12.75V7.4375ZM21.25 7.4375H25.4001C25.7699 7.4375 26.1014 7.6245 26.2969 7.93581L29.9497 13.8125H21.25V7.4375ZM4.25 15.9375H30.8125V18.0625H27.625V20.1875H30.8125V24.4375H29.5842C29.1104 22.6111 27.4677 21.25 25.5 21.25C23.5323 21.25 21.8896 22.6111 21.4158 24.4375H13.6467C13.1729 22.6111 11.5302 21.25 9.5625 21.25C7.59475 21.25 5.95213 22.6111 5.47825 24.4375H4.25V15.9375ZM9.5625 23.375C10.7493 23.375 11.6875 24.3132 11.6875 25.5C11.6875 26.6868 10.7493 27.625 9.5625 27.625C8.37569 27.625 7.4375 26.6868 7.4375 25.5C7.4375 24.3132 8.37569 23.375 9.5625 23.375ZM25.5 23.375C26.6868 23.375 27.625 24.3132 27.625 25.5C27.625 26.6868 26.6868 27.625 25.5 27.625C24.3132 27.625 23.375 26.6868 23.375 25.5C23.375 24.3132 24.3132 23.375 25.5 23.375Z" fill="#19A7CE"/>
</svg>
