<svg width="29" height="27" viewBox="0 0 29 27" fill="none" xmlns="http://www.w3.org/2000/svg">
<path d="M8.5 19.3333C8.5 20.6594 8.02589 21.9312 7.18198 22.8689C6.33807 23.8065 5.19347 24.3333 4 24.3333M20.5 19.3333C20.5 20.6594 20.9741 21.9312 21.818 22.8689C22.6619 23.8065 23.8065 24.3333 25 24.3333M14.5 19.3333V26M1 4.33333C1 3.44928 1.31607 2.60143 1.87868 1.97631C2.44129 1.35119 3.20435 1 4 1H25C25.7956 1 26.5587 1.35119 27.1213 1.97631C27.6839 2.60143 28 3.44928 28 4.33333V11C28 11.8841 27.6839 12.7319 27.1213 13.357C26.5587 13.9821 25.7956 14.3333 25 14.3333H4C3.20435 14.3333 2.44129 13.9821 1.87868 13.357C1.31607 12.7319 1 11.8841 1 11V4.33333Z" stroke="#146C94" stroke-width="2" stroke-linecap="round" stroke-linejoin="round"/>
<path d="M7 14.3337V9.33366C7 8.89163 7.15804 8.46771 7.43934 8.15515C7.72064 7.84259 8.10218 7.66699 8.5 7.66699H20.5C20.8978 7.66699 21.2794 7.84259 21.5607 8.15515C21.842 8.46771 22 8.89163 22 9.33366V14.3337" stroke="#146C94" stroke-width="2" stroke-linecap="round" stroke-linejoin="round"/>
</svg>
