<svg width="30" height="25" viewBox="0 0 30 25" fill="none" xmlns="http://www.w3.org/2000/svg">
<path d="M15 25.0003L20 18.3337C18.6111 17.292 16.875 16.667 15 16.667C13.125 16.667 11.3889 17.292 10 18.3337L15 25.0003Z" fill="#146C94"/>
<path d="M14.999 8.33301C11.249 8.33301 7.79069 9.56912 4.99902 11.6663L7.49902 14.9997C9.58236 13.4302 12.1796 12.4997 14.999 12.4997C17.8185 12.4997 20.4157 13.4302 22.499 14.9997L24.999 11.6663C22.2074 9.56912 18.749 8.33301 14.999 8.33301Z" fill="#146C94"/>
<path d="M15 0C9.375 0 4.18056 1.86111 0 5L2.5 8.33333C5.97222 5.72222 10.3056 4.16667 15 4.16667C19.6944 4.16667 24.0278 5.72222 27.5 8.33333L30 5C25.8194 1.86111 20.625 0 15 0Z" fill="#146C94"/>
</svg>
