<svg width="174" height="55" viewBox="0 0 174 55" fill="none" xmlns="http://www.w3.org/2000/svg">
<path d="M47.8775 22.5213C47.155 22.5213 46.5693 22.2954 46.1174 21.8434C45.6655 21.3915 45.4395 20.8266 45.4395 20.1428C45.4395 19.4857 45.6833 18.9298 46.1769 18.4779C46.6675 18.02 47.2353 17.7881 47.8775 17.7881C48.5346 17.7881 49.1084 18.02 49.6019 18.4779C50.0925 18.9298 50.3393 19.4857 50.3393 20.1428C50.3393 20.8266 50.1044 21.3915 49.6376 21.8434C49.1768 22.2954 48.5911 22.5213 47.8775 22.5213ZM43.0135 44.1301C42.6894 44.1301 42.5259 43.9695 42.5259 43.6543V41.2521C42.5259 40.9488 42.6983 40.8001 43.0373 40.8001C44.0927 40.815 44.8271 40.6455 45.2493 40.2888C45.6774 39.932 45.8915 39.3076 45.8915 38.4216V24.3052C45.8915 23.9811 46.052 23.8176 46.3791 23.8176H49.3998C49.7238 23.8176 49.8874 23.9811 49.8874 24.3052V38.3622C49.8874 39.8666 49.6763 41.041 49.2571 41.8824C48.8438 42.7208 48.1451 43.3154 47.164 43.6662C46.1888 44.0141 44.8033 44.1687 43.0135 44.1301Z" fill="#F6F1F1"/>
<path d="M58.6545 23.5918C59.8735 23.5918 60.9646 23.8059 61.925 24.234C62.8912 24.6562 63.6434 25.233 64.1846 25.9703C64.7227 26.7076 64.9932 27.5282 64.9932 28.4321V37.8866C64.9932 38.2047 64.8297 38.3623 64.5057 38.3623H61.4849C61.1579 38.3623 60.9974 38.2047 60.9974 37.8866V37.1969C60.9974 37.1255 60.9765 37.0868 60.9379 37.0779C60.9052 37.072 60.8606 37.0958 60.8071 37.1493C59.933 38.1096 58.6426 38.5883 56.9301 38.5883C55.4703 38.5883 54.2959 38.2315 53.4099 37.518C52.5299 36.7985 52.0898 35.74 52.0898 34.3426C52.0898 32.8918 52.5953 31.7679 53.6121 30.9652C54.6348 30.1654 56.0887 29.764 57.9766 29.764H60.8309C60.9409 29.764 60.9974 29.7105 60.9974 29.5975V29.0029C60.9974 28.3785 60.8011 27.8909 60.4146 27.5401C60.0341 27.1923 59.4751 27.0168 58.7378 27.0168C58.1729 27.0168 57.7061 27.112 57.3345 27.3023C56.9688 27.4925 56.719 27.7542 56.5852 28.0872C56.4722 28.3577 56.2879 28.4796 56.0263 28.4558L52.8748 28.0634C52.7231 28.0485 52.6042 28.0099 52.518 27.9445C52.4377 27.8731 52.405 27.7839 52.4228 27.6709C52.518 26.8949 52.842 26.1963 53.398 25.5779C53.9599 24.9535 54.6973 24.4659 55.61 24.1151C56.5198 23.7672 57.5366 23.5918 58.6545 23.5918ZM58.0837 35.6151C58.8924 35.6151 59.5762 35.4011 60.1411 34.973C60.7119 34.5389 60.9974 33.9799 60.9974 33.2961V32.309C60.9974 32.199 60.9409 32.1425 60.8309 32.1425H58.821C57.9707 32.1425 57.3017 32.3061 56.8112 32.6301C56.3176 32.9482 56.0738 33.3972 56.0738 33.974C56.0738 34.4824 56.2552 34.8838 56.6209 35.1751C56.9925 35.4695 57.4801 35.6151 58.0837 35.6151Z" fill="#F6F1F1"/>
<path d="M68.2933 38.3626C67.9662 38.3626 67.8057 38.205 67.8057 37.8869V19.0372C67.8057 18.7221 67.9662 18.5615 68.2933 18.5615H71.314C71.638 18.5615 71.8016 18.7221 71.8016 19.0372V37.8869C71.8016 38.205 71.638 38.3626 71.314 38.3626H68.2933Z" fill="#F6F1F1"/>
<path d="M80.6272 23.5918C81.8462 23.5918 82.9373 23.8059 83.8976 24.234C84.8639 24.6562 85.6161 25.233 86.1572 25.9703C86.6953 26.7076 86.9659 27.5282 86.9659 28.4321V37.8866C86.9659 38.2047 86.8024 38.3623 86.4783 38.3623H83.4576C83.1306 38.3623 82.97 38.2047 82.97 37.8866V37.1969C82.97 37.1255 82.9492 37.0868 82.9105 37.0779C82.8778 37.072 82.8332 37.0958 82.7797 37.1493C81.9056 38.1096 80.6153 38.5883 78.9028 38.5883C77.443 38.5883 76.2686 38.2315 75.3826 37.518C74.5025 36.7985 74.0625 35.74 74.0625 34.3426C74.0625 32.8918 74.5679 31.7679 75.5847 30.9652C76.6075 30.1654 78.0614 29.764 79.9493 29.764H82.8035C82.9135 29.764 82.97 29.7105 82.97 29.5975V29.0029C82.97 28.3785 82.7738 27.8909 82.3873 27.5401C82.0067 27.1923 81.4478 27.0168 80.7104 27.0168C80.1455 27.0168 79.6787 27.112 79.3071 27.3023C78.9414 27.4925 78.6917 27.7542 78.5579 28.0872C78.4449 28.3577 78.2606 28.4796 77.9989 28.4558L74.8474 28.0634C74.6958 28.0485 74.5769 28.0099 74.4906 27.9445C74.4104 27.8731 74.3777 27.7839 74.3955 27.6709C74.4906 26.8949 74.8147 26.1963 75.3707 25.5779C75.9326 24.9535 76.6699 24.4659 77.5827 24.1151C78.4925 23.7672 79.5093 23.5918 80.6272 23.5918ZM80.0563 35.6151C80.865 35.6151 81.5489 35.4011 82.1137 34.973C82.6846 34.5389 82.97 33.9799 82.97 33.2961V32.309C82.97 32.199 82.9135 32.1425 82.8035 32.1425H80.7937C79.9434 32.1425 79.2744 32.3061 78.7838 32.6301C78.2903 32.9482 78.0465 33.3972 78.0465 33.974C78.0465 34.4824 78.2279 34.8838 78.5936 35.1751C78.9652 35.4695 79.4528 35.6151 80.0563 35.6151Z" fill="#F6F1F1"/>
<path d="M97.306 23.5918C98.8193 23.5918 100.035 24.0556 100.957 24.9832C101.885 25.9049 102.348 27.1566 102.348 28.7413V37.8866C102.348 38.2047 102.185 38.3623 101.861 38.3623H98.8402C98.5131 38.3623 98.3526 38.2047 98.3526 37.8866V29.5618C98.3526 28.8096 98.1444 28.2002 97.7341 27.7304C97.3209 27.2547 96.7649 27.0168 96.0692 27.0168C95.3705 27.0168 94.8026 27.2547 94.3686 27.7304C93.9315 28.2002 93.7145 28.8096 93.7145 29.5618V37.8866C93.7145 38.2047 93.5539 38.3623 93.2388 38.3623H90.2062C89.888 38.3623 89.7305 38.2047 89.7305 37.8866V24.3053C89.7305 23.9813 89.888 23.8178 90.2062 23.8178H93.2388C93.5539 23.8178 93.7145 23.9813 93.7145 24.3053V25.0903C93.7145 25.1705 93.7323 25.2211 93.7739 25.2449C93.8126 25.2627 93.8483 25.2389 93.881 25.1735C94.657 24.121 95.7986 23.5918 97.306 23.5918Z" fill="#F6F1F1"/>
<path d="M105.021 31.7151C104.702 31.7151 104.545 31.5545 104.545 31.2275V28.7776C104.545 28.4536 104.702 28.29 105.021 28.29H113.999C114.315 28.29 114.475 28.4536 114.475 28.7776V31.2275C114.475 31.5545 114.315 31.7151 113.999 31.7151H105.021Z" fill="#F6F1F1"/>
<path d="M118.941 22.5213C118.219 22.5213 117.633 22.2954 117.181 21.8434C116.729 21.3915 116.503 20.8266 116.503 20.1428C116.503 19.4857 116.747 18.9298 117.24 18.4779C117.731 18.02 118.299 17.7881 118.941 17.7881C119.598 17.7881 120.172 18.02 120.665 18.4779C121.156 18.9298 121.403 19.4857 121.403 20.1428C121.403 20.8266 121.168 21.3915 120.701 21.8434C120.24 22.2954 119.655 22.5213 118.941 22.5213ZM114.077 44.1301C113.753 44.1301 113.589 43.9695 113.589 43.6543V41.2521C113.589 40.9488 113.762 40.8001 114.101 40.8001C115.156 40.815 115.891 40.6455 116.313 40.2888C116.741 39.932 116.955 39.3076 116.955 38.4216V24.3052C116.955 23.9811 117.115 23.8176 117.443 23.8176H120.463C120.787 23.8176 120.951 23.9811 120.951 24.3052V38.3622C120.951 39.8666 120.74 41.041 120.321 41.8824C119.907 42.7208 119.209 43.3154 118.227 43.6662C117.252 44.0141 115.867 44.1687 114.077 44.1301Z" fill="#F6F1F1"/>
<path d="M129.718 23.5918C130.937 23.5918 132.029 23.8059 132.989 24.234C133.955 24.6562 134.707 25.233 135.249 25.9703C135.787 26.7076 136.057 27.5282 136.057 28.4321V37.8866C136.057 38.2047 135.894 38.3623 135.57 38.3623H132.549C132.222 38.3623 132.061 38.2047 132.061 37.8866V37.1969C132.061 37.1255 132.041 37.0868 132.002 37.0779C131.969 37.072 131.925 37.0958 131.871 37.1493C130.997 38.1096 129.707 38.5883 127.994 38.5883C126.534 38.5883 125.36 38.2315 124.474 37.518C123.594 36.7985 123.154 35.74 123.154 34.3426C123.154 32.8918 123.659 31.7679 124.676 30.9652C125.699 30.1654 127.153 29.764 129.041 29.764H131.895C132.005 29.764 132.061 29.7105 132.061 29.5975V29.0029C132.061 28.3785 131.865 27.8909 131.479 27.5401C131.098 27.1923 130.539 27.0168 129.802 27.0168C129.237 27.0168 128.77 27.112 128.398 27.3023C128.033 27.4925 127.783 27.7542 127.649 28.0872C127.536 28.3577 127.352 28.4796 127.09 28.4558L123.939 28.0634C123.787 28.0485 123.668 28.0099 123.582 27.9445C123.502 27.8731 123.469 27.7839 123.487 27.6709C123.582 26.8949 123.906 26.1963 124.462 25.5779C125.024 24.9535 125.761 24.4659 126.674 24.1151C127.584 23.7672 128.601 23.5918 129.718 23.5918ZM129.148 35.6151C129.956 35.6151 130.64 35.4011 131.205 34.973C131.776 34.5389 132.061 33.9799 132.061 33.2961V32.309C132.061 32.199 132.005 32.1425 131.895 32.1425H129.885C129.035 32.1425 128.366 32.3061 127.875 32.6301C127.382 32.9482 127.138 33.3972 127.138 33.974C127.138 34.4824 127.319 34.8838 127.685 35.1751C128.057 35.4695 128.544 35.6151 129.148 35.6151Z" fill="#F6F1F1"/>
<path d="M139.357 38.3626C139.03 38.3626 138.87 38.205 138.87 37.8869V19.0372C138.87 18.7221 139.03 18.5615 139.357 18.5615H142.378C142.702 18.5615 142.866 18.7221 142.866 19.0372V37.8869C142.866 38.205 142.702 38.3626 142.378 38.3626H139.357Z" fill="#F6F1F1"/>
<path d="M151.691 23.5918C152.91 23.5918 154.001 23.8059 154.961 24.234C155.927 24.6562 156.68 25.233 157.221 25.9703C157.759 26.7076 158.029 27.5282 158.029 28.4321V37.8866C158.029 38.2047 157.866 38.3623 157.542 38.3623H154.521C154.194 38.3623 154.033 38.2047 154.033 37.8866V37.1969C154.033 37.1255 154.013 37.0868 153.974 37.0779C153.941 37.072 153.897 37.0958 153.843 37.1493C152.969 38.1096 151.679 38.5883 149.966 38.5883C148.506 38.5883 147.332 38.2315 146.446 37.518C145.566 36.7985 145.126 35.74 145.126 34.3426C145.126 32.8918 145.631 31.7679 146.648 30.9652C147.671 30.1654 149.125 29.764 151.013 29.764H153.867C153.977 29.764 154.033 29.7105 154.033 29.5975V29.0029C154.033 28.3785 153.837 27.8909 153.451 27.5401C153.07 27.1923 152.511 27.0168 151.774 27.0168C151.209 27.0168 150.742 27.112 150.371 27.3023C150.005 27.4925 149.755 27.7542 149.621 28.0872C149.508 28.3577 149.324 28.4796 149.062 28.4558L145.911 28.0634C145.759 28.0485 145.64 28.0099 145.554 27.9445C145.474 27.8731 145.441 27.7839 145.459 27.6709C145.554 26.8949 145.878 26.1963 146.434 25.5779C146.996 24.9535 147.733 24.4659 148.646 24.1151C149.556 23.7672 150.573 23.5918 151.691 23.5918ZM151.12 35.6151C151.929 35.6151 152.612 35.4011 153.177 34.973C153.748 34.5389 154.033 33.9799 154.033 33.2961V32.309C154.033 32.199 153.977 32.1425 153.867 32.1425H151.857C151.007 32.1425 150.338 32.3061 149.847 32.6301C149.354 32.9482 149.11 33.3972 149.11 33.974C149.11 34.4824 149.291 34.8838 149.657 35.1751C150.029 35.4695 150.516 35.6151 151.12 35.6151Z" fill="#F6F1F1"/>
<path d="M168.37 23.5918C169.883 23.5918 171.099 24.0556 172.021 24.9832C172.949 25.9049 173.412 27.1566 173.412 28.7413V37.8866C173.412 38.2047 173.249 38.3623 172.925 38.3623H169.904C169.577 38.3623 169.417 38.2047 169.417 37.8866V29.5618C169.417 28.8096 169.208 28.2002 168.798 27.7304C168.385 27.2547 167.829 27.0168 167.133 27.0168C166.434 27.0168 165.867 27.2547 165.433 27.7304C164.995 28.2002 164.778 28.8096 164.778 29.5618V37.8866C164.778 38.2047 164.618 38.3623 164.303 38.3623H161.27C160.952 38.3623 160.794 38.2047 160.794 37.8866V24.3053C160.794 23.9813 160.952 23.8178 161.27 23.8178H164.303C164.618 23.8178 164.778 23.9813 164.778 24.3053V25.0903C164.778 25.1705 164.796 25.2211 164.838 25.2449C164.877 25.2627 164.912 25.2389 164.945 25.1735C165.721 24.121 166.863 23.5918 168.37 23.5918Z" fill="#F6F1F1"/>
<path fill-rule="evenodd" clip-rule="evenodd" d="M29.4936 11.8004H27.9208V4.98008C27.9208 3.32107 26.5681 1.9683 24.9061 1.9683H23.9487V0.395508H24.9061C27.4362 0.395508 29.4936 2.45292 29.4936 4.98305V11.8004Z" fill="#F6F1F1"/>
<path fill-rule="evenodd" clip-rule="evenodd" d="M7.27811 11.8004H5.70532V4.98008C5.70532 2.44994 7.75976 0.395508 10.2899 0.395508H11.2502V1.9683H10.2899C8.63089 1.9683 7.27811 3.3181 7.27811 4.98008V11.8004Z" fill="#F6F1F1"/>
<mask id="mask0_218_1110" style="mask-type:luminance" maskUnits="userSpaceOnUse" x="11" y="0" width="13" height="3">
<path d="M11.8835 0H23.3004V2.59852H11.8835V0Z" fill="white"/>
</mask>
<g mask="url(#mask0_218_1110)">
<path fill-rule="evenodd" clip-rule="evenodd" d="M21.612 2.36067H13.5876C12.9364 2.36067 12.4072 1.83145 12.4072 1.18033C12.4072 0.529217 12.9364 0 13.5876 0H21.612C22.2632 0 22.7924 0.529217 22.7924 1.18033C22.7924 1.83145 22.2632 2.36067 21.612 2.36067Z" fill="#F6F1F1"/>
</g>
<mask id="mask1_218_1110" style="mask-type:luminance" maskUnits="userSpaceOnUse" x="7" y="52" width="5" height="3">
<path d="M7.31689 52.0713H11.1225V54.9998H7.31689V52.0713Z" fill="white"/>
</mask>
<g mask="url(#mask1_218_1110)">
<path fill-rule="evenodd" clip-rule="evenodd" d="M7.33496 52.2471V53.4274C7.33496 54.2956 8.03662 55.0002 8.90775 55.0002C9.7759 55.0002 10.4805 54.2956 10.4805 53.4274V52.2471H7.33496Z" fill="#F6F1F1"/>
</g>
<mask id="mask2_218_1110" style="mask-type:luminance" maskUnits="userSpaceOnUse" x="24" y="52" width="4" height="3">
<path d="M24.0615 52.0713H27.8671V54.9998H24.0615V52.0713Z" fill="white"/>
</mask>
<g mask="url(#mask2_218_1110)">
<path fill-rule="evenodd" clip-rule="evenodd" d="M24.7183 52.2461V53.4264C24.7183 54.2946 25.4199 54.9992 26.291 54.9992C27.1592 54.9992 27.8638 54.2946 27.8638 53.4264V52.2461H24.7183Z" fill="#F6F1F1"/>
</g>
<mask id="mask3_218_1110" style="mask-type:luminance" maskUnits="userSpaceOnUse" x="0" y="9" width="36" height="43">
<path d="M0 9.44922H35.1543V51.3109H0V9.44922Z" fill="white"/>
</mask>
<g mask="url(#mask3_218_1110)">
<path fill-rule="evenodd" clip-rule="evenodd" d="M23.8117 51.1976C23.7968 51.1976 23.782 51.1976 23.7641 51.1976C23.779 51.1976 23.7939 51.1976 23.8117 51.1976ZM5.03041 42.5695L7.98273 39.9116V37.9404C7.98273 37.6223 8.24437 37.3606 8.56249 37.3606C8.88062 37.3606 9.14226 37.6223 9.14226 37.9404V38.871L12.0738 36.2308V34.5688C12.0738 34.2477 12.3354 33.9891 12.6535 33.9891C12.9717 33.9891 13.2333 34.2477 13.2333 34.5688V35.1873L15.6445 33.0169C15.7634 28.4382 16.4532 24.2818 17.6008 24.2818C18.7484 24.2818 19.4382 28.4382 19.5601 33.0169L21.9713 35.1873V34.5688C21.9713 34.2477 22.233 33.9891 22.5511 33.9891C22.8692 33.9891 23.1308 34.2477 23.1279 34.5688V36.2308L26.0624 38.871V37.9404C26.0624 37.6223 26.321 37.3606 26.6421 37.3606C26.9602 37.3606 27.2189 37.6223 27.2189 37.9404V39.9116L30.1742 42.5695V43.7291L19.4323 38.8948C19.1558 43.7856 18.5998 48.7566 18.5998 48.7566L21.341 51.1976H23.8147C23.8206 51.1976 23.8266 51.1976 23.8325 51.1976H30.2872C32.9987 51.1976 35.1958 48.9975 35.1958 46.2889V14.9878C35.1958 12.2733 32.9957 10.0762 30.2872 10.0762H4.9204C2.20891 10.0762 0.00878906 12.2733 0.00878906 14.9878V46.2889C0.00878906 49.0004 2.20891 51.1976 4.9204 51.1976H13.8636L16.6048 48.7566C16.6048 48.7566 16.0488 43.7856 15.7723 38.8948L5.03338 43.7291V42.5695H5.03041Z" fill="#FFC436"/>
</g>
</svg>
