<svg width="36" height="55" viewBox="0 0 36 55" fill="none" xmlns="http://www.w3.org/2000/svg">
<path fill-rule="evenodd" clip-rule="evenodd" d="M29.4936 11.8004H27.9208V4.98008C27.9208 3.32107 26.568 1.9683 24.906 1.9683H23.9487V0.395508H24.906C27.4362 0.395508 29.4936 2.45292 29.4936 4.98305V11.8004Z" fill="#F6F1F1"/>
<path fill-rule="evenodd" clip-rule="evenodd" d="M7.27823 11.8004H5.70544V4.98008C5.70544 2.44994 7.75988 0.395508 10.29 0.395508H11.2503V1.9683H10.29C8.63101 1.9683 7.27823 3.3181 7.27823 4.98008V11.8004Z" fill="#F6F1F1"/>
<mask id="mask0_350_1179" style="mask-type:luminance" maskUnits="userSpaceOnUse" x="11" y="0" width="13" height="3">
<path d="M11.8836 0H23.3004V2.59852H11.8836V0Z" fill="white"/>
</mask>
<g mask="url(#mask0_350_1179)">
<path fill-rule="evenodd" clip-rule="evenodd" d="M21.612 2.36067H13.5875C12.9364 2.36067 12.4072 1.83145 12.4072 1.18033C12.4072 0.529217 12.9364 0 13.5875 0H21.612C22.2631 0 22.7924 0.529217 22.7924 1.18033C22.7924 1.83145 22.2631 2.36067 21.612 2.36067Z" fill="#F6F1F1"/>
</g>
<mask id="mask1_350_1179" style="mask-type:luminance" maskUnits="userSpaceOnUse" x="7" y="52" width="5" height="3">
<path d="M7.31699 52.0713H11.1226V54.9998H7.31699V52.0713Z" fill="white"/>
</mask>
<g mask="url(#mask1_350_1179)">
<path fill-rule="evenodd" clip-rule="evenodd" d="M7.33505 52.2466V53.4269C7.33505 54.2951 8.03671 54.9997 8.90784 54.9997C9.77599 54.9997 10.4806 54.2951 10.4806 53.4269V52.2466H7.33505Z" fill="#F6F1F1"/>
</g>
<mask id="mask2_350_1179" style="mask-type:luminance" maskUnits="userSpaceOnUse" x="24" y="52" width="4" height="3">
<path d="M24.0617 52.0713H27.8673V54.9998H24.0617V52.0713Z" fill="white"/>
</mask>
<g mask="url(#mask2_350_1179)">
<path fill-rule="evenodd" clip-rule="evenodd" d="M24.7186 52.2466V53.4269C24.7186 54.2951 25.4203 54.9997 26.2914 54.9997C27.1596 54.9997 27.8642 54.2951 27.8642 53.4269V52.2466H24.7186Z" fill="#F6F1F1"/>
</g>
<mask id="mask3_350_1179" style="mask-type:luminance" maskUnits="userSpaceOnUse" x="0" y="9" width="36" height="43">
<path d="M0 9.44873H35.1543V51.3105H0V9.44873Z" fill="white"/>
</mask>
<g mask="url(#mask3_350_1179)">
<path fill-rule="evenodd" clip-rule="evenodd" d="M23.8117 51.1971C23.7969 51.1971 23.782 51.1971 23.7642 51.1971C23.779 51.1971 23.7939 51.1971 23.8117 51.1971ZM5.03044 42.5691L7.98276 39.9111V37.9399C7.98276 37.6218 8.2444 37.3601 8.56252 37.3601C8.88065 37.3601 9.14229 37.6218 9.14229 37.9399V38.8705L12.0738 36.2303V34.5684C12.0738 34.2473 12.3354 33.9886 12.6536 33.9886C12.9717 33.9886 13.2333 34.2473 13.2333 34.5684V35.1868L15.6445 33.0164C15.7635 28.4378 16.4532 24.2813 17.6009 24.2813C18.7485 24.2813 19.4382 28.4378 19.5601 33.0164L21.9714 35.1868V34.5684C21.9714 34.2473 22.233 33.9886 22.5511 33.9886C22.8692 33.9886 23.1309 34.2473 23.1279 34.5684V36.2303L26.0624 38.8705V37.9399C26.0624 37.6218 26.3211 37.3601 26.6421 37.3601C26.9603 37.3601 27.2189 37.6218 27.2189 37.9399V39.9111L30.1742 42.5691V43.7286L19.4323 38.8943C19.1558 43.7851 18.5998 48.7561 18.5998 48.7561L21.3411 51.1971H23.8147C23.8206 51.1971 23.8266 51.1971 23.8325 51.1971H30.2872C32.9987 51.1971 35.1959 48.997 35.1959 46.2884V14.9873C35.1959 12.2728 32.9957 10.0757 30.2872 10.0757H4.92044C2.20894 10.0757 0.00881958 12.2728 0.00881958 14.9873V46.2884C0.00881958 48.9999 2.20894 51.1971 4.92044 51.1971H13.8636L16.6049 48.7561C16.6049 48.7561 16.0489 43.7851 15.7724 38.8943L5.03341 43.7286V42.5691H5.03044Z" fill="#FFC436"/>
</g>
</svg>
